{
.appVersion = "3112";
.formatVersion = 3;
DisplayStrings = (
"The quıic/_corner.caps_diag_xs k brow/_corner.left n fox jumps over a lanzy dog
THW THE QUICK BROWN FOX  JUMPS OVER A LAZY D/slashlongcomb.case O/E.swsh/P.ss01 OOOQB  /Rmacronbelow.ss01/E.swsh/Q.swsh G",
"HHHOOOADJUSTINGkemie@/at.case QUIVER.COM AND BOW, ZOMPYC† KILLED $7 THE FO. Amazingly, C.J. Hquaffed sıix vodkas without burping. BaAc/_corner.caps_diag_xs k ›homenononn/n.ss01 ooonnn after‹ jiving, sheUSA expired (with quizzicality). Bo rocked a £3,500 xylophone, making quiet waves of ȷjazz. Chip required 44% booze to fix my VolkPAagen® Jetta. Cozy sphinx©waves.com quart §28.2 ȷjug of bad milk. Even while I adȷjust [my expectations hıigher,] you keep NYSE amazing me. I request: be my wife. \"Exquisite farm wench\" gives body* jolt to prize stinker. Five wine¶ experts MTA ȷjokingly quizzed sample; chablis. French wine: ‘Ze bouquet is exceptıional, aqvec ȷjust un peu of monkey Hdung.’ GQ Magazine© backers enjoyed; the Pixies’ „Wave of Mutilation.” 


glyphs = (
{
glyphname = A;
kernLeft = A;
kernRight = A;
layers = (
{
anchors = (
{
name = bottom;
pos = (375,0);
},
{
name = ogonek;
pos = (684,0);
},
{
name = top;
pos = (377,687);
}
);
hints = (
{
name = _corner.caps_diag;
origin = (0,0);
scale = (-1,1);
type = Corner;
}
);
layerId = "0CAF3BED-C4AC-4024-B3E1-4C69D1EF7EC0";
shapes = (
{
closed = 1;
nodes = (
(178,53,l,{
"Letterink-NibData" = {
AngleInDegrees = 22.71999;
};
}),
(259,253,l,{
"Letterink-NibData" = {
AngleInDegrees = 236.57519;
};
}),
(209,210,l,{
"Letterink-NibData" = {
AngleInDegrees = 90;
};
}),
(541,210,l,{
"Letterink-NibData" = {
AngleInDegrees = 303.42481;
};
}),
(491,253,l,{
"Letterink-NibData" = {
AngleInDegrees = 157.34811;
};
}),
(597,0,l,{
"Letterink-NibData" = {
AngleInDegrees = 90;
};
}),
(684,0,l,{
"Letterink-NibData" = {
AngleInDegrees = 336.96218;
};
}),
(391,690,l,{
"Letterink-NibData" = {
AngleInDegrees = 270;
};
}),
(357,690,l,{
"Letterink-NibData" = {
AngleInDegrees = 202.82503;
};
}),
(104,83,l,{
"Letterink-NibData" = {
AngleInDegrees = 202.38014;
};
})
);
},
{
closed = 1;
nodes = (
(368,541,l,{
"Letterink-NibData" = {
AngleInDegrees = 8.1301;
};
}),
(374,571,l,{
"Letterink-NibData" = {
AngleInDegrees = 171.8699;
};
}),
(381,541,l,{
"Letterink-NibData" = {
AngleInDegrees = 159.79358;
};
}),
(483,260,l,{
"Letterink-NibData" = {
AngleInDegrees = 35.21759;
};
}),
(507,284,l,{
"Letterink-NibData" = {
AngleInDegrees = 270;
};
}),
(239,284,l,{
"Letterink-NibData" = {
AngleInDegrees = 145.92281;
};
}),
(262,260,l,{
"Letterink-NibData" = {
AngleInDegrees = 20.73026;
};
})
);
}
);
width = 692;
},
{
anchors = (
{
name = bottom;
pos = (386,0);
},
{
name = ogonek;
pos = (678,1);
},
{
name = top;
pos = (387,684);
}
);
hints = (
{
name = _corner.caps_diag;
options = 2;
origin = (0,0);
scale = (-1,1);
type = Corner;
}
);
layerId = "49C16FD3-6177-408B-A733-AEB3898BB77C";
shapes = (
{
closed = 1;
nodes = (
(154,45,l,{
"Letterink-NibData" = {
AngleInDegrees = 22.1315;
};
}),
(237,251,l,{
"Letterink-NibData" = {
AngleInDegrees = 235.7843;
};
}),
(215,234,l,{
"Letterink-NibData" = {
AngleInDegrees = 90;
};
}),
(556,234,l,{
"Letterink-NibData" = {
AngleInDegrees = 304.2157;
};
}),
(534,251,l,{
"Letterink-NibData" = {
AngleInDegrees = 157.41269;
};
}),
(637,0,l,{
"Letterink-NibData" = {
AngleInDegrees = 90;
};
}),
(678,0,l,{
"Letterink-NibData" = {
AngleInDegrees = 337.30364;
};
}),
(391,692,l,{
"Letterink-NibData" = {
AngleInDegrees = 270;
};
}),
(382,692,l,{
"Letterink-NibData" = {
AngleInDegrees = 202.68401;
};
}),
(120,61,l,{
"Letterink-NibData" = {
AngleInDegrees = 202.61986;
};
})
);
},
{
closed = 1;
nodes = (
(373,584,l,{
"Letterink-NibData" = {
AngleInDegrees = 16.29405;
};
}),
(386,627,l,{
"Letterink-NibData" = {
AngleInDegrees = 163.21735;
};
}),
(400,584,l,{
"Letterink-NibData" = {
AngleInDegrees = 158.19859;
};
}),
(530,257,l,{
"Letterink-NibData" = {
AngleInDegrees = 32.90524;
};
}),
(539,270,l,{
"Letterink-NibData" = {
AngleInDegrees = 270;
};
}),
(230,270,l,{
"Letterink-NibData" = {
AngleInDegrees = 147.09476;
};
}),
(240,257,l,{
"Letterink-NibData" = {
AngleInDegrees = 22.09423;
};
})
);
}
);
width = 705;
},
{
anchors = (
{
name = bottom;
pos = (421,-8);
},
{
name = ogonek;
pos = (714,1);
},
{
name = top;
pos = (421,684);
}
);
associatedMasterId = "49C16FD3-6177-408B-A733-AEB3898BB77C";
layerId = "E63F2094-54D6-44F3-A00F-83DE5DFBC8F4";
name = "6 Jan 22, 16:48";
shapes = (
{
closed = 1;
nodes = (
(148,-9,o),
(176,8,o),
(190,42,cs,{
"Letterink-NibData" = {
AngleInDegrees = 22.1315;
};
}),
(275,251,l,{
"Letterink-NibData" = {
AngleInDegrees = 235.7843;
};
}),
(250,234,l,{
"Letterink-NibData" = {
AngleInDegrees = 90;
};
}),
(590,234,l,{
"Letterink-NibData" = {
AngleInDegrees = 304.2157;
};
}),
(565,251,l,{
"Letterink-NibData" = {
AngleInDegrees = 157.41269;
};
}),
(669,1,l,{
"Letterink-NibData" = {
AngleInDegrees = 90;
};
}),
(714,1,l,{
"Letterink-NibData" = {
AngleInDegrees = 337.30364;
};
}),
(425,692,l,{
"Letterink-NibData" = {
AngleInDegrees = 270;
};
}),
(417,692,l,{
"Letterink-NibData" = {
AngleInDegrees = 202.68401;
};
}),
(152,58,ls,{
"Letterink-NibData" = {
AngleInDegrees = 202.61986;
};
}),
(147,46,o),
(132,31,o),
(115,31,cs,{
"Letterink-NibData" = {
AngleInDegrees = 270;
};
}),
(96,31,o),
(80,45,o),
(75,59,c,{
"Letterink-NibData" = {
AngleInDegrees = 261.25384;
};
}),
(36,53,l,{
"Letterink-NibData" = {
AngleInDegrees = 163.85566;
};
}),
(47,15,o),
(76,-9,o),
(114,-9,cs,{
"Letterink-NibData" = {
AngleInDegrees = 90;
};
})
);
},
{
closed = 1;
nodes = (
(401,560,l,{
"Letterink-NibData" = {
AngleInDegrees = 16.29405;
};
}),
(420,625,l,{
"Letterink-NibData" = {
AngleInDegrees = 163.21735;
};
}),
(439,562,l,{
"Letterink-NibData" = {
AngleInDegrees = 158.19859;
};
}),
(561,257,l,{
"Letterink-NibData" = {
AngleInDegrees = 32.90524;
};
}),
(572,274,l,{
"Letterink-NibData" = {
AngleInDegrees = 270;
};
}),
(267,274,l,{
"Letterink-NibData" = {
AngleInDegrees = 147.09476;
};
}),
(278,257,l,{
"Letterink-NibData" = {
AngleInDegrees = 22.09423;
};
})
);
}
);
width = 752;
},
{
anchors = (
{
name = bottom;
pos = (446,0);
},
{
name = ogonek;
pos = (788,0);
},
{
name = top;
pos = (448,695);
}
);
hints = (
{
name = _corner.caps_diag;
options = 2;
origin = (0,0);
scale = (-1,1);
type = Corner;
}
);
layerId = m004;
shapes = (
{
closed = 1;
nodes = (
(296,61,l,{
"Letterink-NibData" = {
AngleInDegrees = "22.65189";
};
}),
(389,257,l,{
"Letterink-NibData" = {
AngleInDegrees = "236.57519";
};
}),
(292,146,l,{
"Letterink-NibData" = {
AngleInDegrees = "90";
};
}),
(602,146,l,{
"Letterink-NibData" = {
AngleInDegrees = "303.42481";
};
}),
(507,257,l,{
"Letterink-NibData" = {
AngleInDegrees = "156.96496";
};
}),
(615,0,l,{
"Letterink-NibData" = {
AngleInDegrees = "90";
};
}),
(788,0,l,{
"Letterink-NibData" = {
AngleInDegrees = "337.32254";
};
}),
(490,708,l,{
"Letterink-NibData" = {
AngleInDegrees = "270";
};
}),
(404,708,l,{
"Letterink-NibData" = {
AngleInDegrees = "202.53914";
};
}),
(151,139,l,{
"Letterink-NibData" = {
AngleInDegrees = "90";
};
})
);
},
{
closed = 1;
nodes = (
(463,480,l,{
"Letterink-NibData" = {
AngleInDegrees = "19.98311";
};
}),
(446,484,l,{
"Letterink-NibData" = {
AngleInDegrees = "161.56505";
};
}),
(427,480,l,{
"Letterink-NibData" = {
AngleInDegrees = "158.35875";
};
}),
(494,272,l,{
"Letterink-NibData" = {
AngleInDegrees = "34.87533";
};
}),
(540,288,l,{
"Letterink-NibData" = {
AngleInDegrees = "270";
};
}),
(349,288,l,{
"Letterink-NibData" = {
AngleInDegrees = "145.92281";
};
}),
(395,268,l,{
"Letterink-NibData" = {
AngleInDegrees = "21.36191";
};
})
);
}
);
width = 787;
}
);
metricLeft = H;
unicode = 65;
userData = {
position = 666;
width = 20;
};
},
{
glyphname = A.ss01;
kernLeft = Atext;
kernRight = A;
layers = (
{
anchors = (
{
name = bottom;
pos = (317,0);
},
{
name = ogonek;
pos = (628,-1);
},
{
name = top;
pos = (317,690);
}
);
layerId = "0CAF3BED-C4AC-4024-B3E1-4C69D1EF7EC0";
shapes = (
{
closed = 1;
nodes = (
(94,0,l,{
"Letterink-NibData" = {
AngleInDegrees = 22.65189;
};
}),
(200,253,l,{
"Letterink-NibData" = {
AngleInDegrees = 236.57519;
};
}),
(150,210,l,{
"Letterink-NibData" = {
AngleInDegrees = 90;
};
}),
(483,210,l,{
"Letterink-NibData" = {
AngleInDegrees = 303.42481;
};
}),
(433,253,l,{
"Letterink-NibData" = {
AngleInDegrees = 156.96496;
};
}),
(541,0,l,{
"Letterink-NibData" = {
AngleInDegrees = 90;
};
}),
(628,0,l,{
"Letterink-NibData" = {
AngleInDegrees = 337.32254;
};
}),
(333,702,l,{
"Letterink-NibData" = {
AngleInDegrees = 270;
};
}),
(300,702,l,{
"Letterink-NibData" = {
AngleInDegrees = 202.53914;
};
}),
(7,0,l,{
"Letterink-NibData" = {
AngleInDegrees = 90;
};
})
);
},
{
closed = 1;
nodes = (
(301,508,l,{
"Letterink-NibData" = {
AngleInDegrees = 19.98311;
};
}),
(316,557,l,{
"Letterink-NibData" = {
AngleInDegrees = 161.56505;
};
}),
(330,508,l,{
"Letterink-NibData" = {
AngleInDegrees = 158.35875;
};
}),
(428,261,l,{
"Letterink-NibData" = {
AngleInDegrees = 34.87533;
};
}),
(451,284,l,{
"Letterink-NibData" = {
AngleInDegrees = 270;
};
}),
(181,284,l,{
"Letterink-NibData" = {
AngleInDegrees = 145.92281;
};
}),
(204,260,l,{
"Letterink-NibData" = {
AngleInDegrees = 21.36191;
};
})
);
}
);
width = 635;
},
{
anchors = (
{
name = bottom;
pos = (328,-2);
},
{
name = ogonek;
pos = (630,1);
},
{
name = top;
pos = (327,684);
}
);
layerId = "49C16FD3-6177-408B-A733-AEB3898BB77C";
shapes = (
{
closed = 1;
nodes = (
(68,0,l,{
"Letterink-NibData" = {
AngleInDegrees = 22.78241;
};
}),
(173,251,l,{
"Letterink-NibData" = {
AngleInDegrees = 235.7843;
};
}),
(151,236,l,{
"Letterink-NibData" = {
AngleInDegrees = 90;
};
}),
(504,236,l,{
"Letterink-NibData" = {
AngleInDegrees = 304.2157;
};
}),
(482,251,l,{
"Letterink-NibData" = {
AngleInDegrees = 157.02305;
};
}),
(587,0,l,{
"Letterink-NibData" = {
AngleInDegrees = 90;
};
}),
(630,0,l,{
"Letterink-NibData" = {
AngleInDegrees = 336.95898;
};
}),
(332,699,l,{
"Letterink-NibData" = {
AngleInDegrees = 270;
};
}),
(323,699,l,{
"Letterink-NibData" = {
AngleInDegrees = 202.90284;
};
}),
(27,0,l,{
"Letterink-NibData" = {
AngleInDegrees = 90;
};
})
);
},
{
closed = 1;
nodes = (
(314,585,l,{
"Letterink-NibData" = {
AngleInDegrees = 22.61986;
};
}),
(328,631,l,{
"Letterink-NibData" = {
AngleInDegrees = 160.34617;
};
}),
(343,587,l,{
"Letterink-NibData" = {
AngleInDegrees = 157.39526;
};
}),
(480,257,l,{
"Letterink-NibData" = {
AngleInDegrees = 32.90524;
};
}),
(490,272,l,{
"Letterink-NibData" = {
AngleInDegrees = 270;
};
}),
(165,272,l,{
"Letterink-NibData" = {
AngleInDegrees = 147.09476;
};
}),
(175,257,l,{
"Letterink-NibData" = {
AngleInDegrees = 22.96683;
};
})
);
}
);
width = 656;
},
{
anchors = (
{
name = bottom;
pos = (340,0);
},
{
name = ogonek;
pos = (680,0);
},
{
name = top;
pos = (339,694);
}
);
layerId = m004;
shapes = (
{
closed = 1;
nodes = (
(173,0,l,{
"Letterink-NibData" = {
AngleInDegrees = 22.65189;
};
}),
(283,257,l,{
"Letterink-NibData" = {
AngleInDegrees = 236.57519;
};
}),
(184,146,l,{
"Letterink-NibData" = {
AngleInDegrees = 90;
};
}),
(494,146,l,{
"Letterink-NibData" = {
AngleInDegrees = 303.42481;
};
}),
(399,257,l,{
"Letterink-NibData" = {
AngleInDegrees = 156.96496;
};
}),
(507,0,l,{
"Letterink-NibData" = {
AngleInDegrees = 90;
};
}),
(680,0,l,{
"Letterink-NibData" = {
AngleInDegrees = 337.32254;
};
}),
(386,704,l,{
"Letterink-NibData" = {
AngleInDegrees = 270;
};
}),
(300,704,l,{
"Letterink-NibData" = {
AngleInDegrees = 202.53914;
};
}),
(-1,0,l,{
"Letterink-NibData" = {
AngleInDegrees = 90;
};
})
);
},
{
closed = 1;
nodes = (
(357,480,l,{
"Letterink-NibData" = {
AngleInDegrees = 19.98311;
};
}),
(338,484,l,{
"Letterink-NibData" = {
AngleInDegrees = 161.56505;
};
}),
(312,480,l,{
"Letterink-NibData" = {
AngleInDegrees = 158.35875;
};
}),
(386,272,l,{
"Letterink-NibData" = {
AngleInDegrees = 34.87533;
};
}),
(432,288,l,{
"Letterink-NibData" = {
AngleInDegrees = 270;
};
}),
(241,288,l,{
"Letterink-NibData" = {
AngleInDegrees = 145.92281;
};
}),
(287,268,l,{
"Letterink-NibData" = {
AngleInDegrees = 21.36191;
};
})
);
}
);
width = 679;
}
);
userData = {
position = 10;
width = 615;
};
},
{
glyphname = A.swsh;
kernLeft = A;
kernRight = A;
layers = (
{
anchors = (
{
name = bottom;
pos = (411,0);
},
{
name = ogonek;
pos = (720,0);
},
{
name = top;
pos = (409,684);
}
);
hints = (
{
name = _corner.caps_swash_diag;
origin = (0,0);
scale = (-1,1);
type = Corner;
}
);
layerId = "0CAF3BED-C4AC-4024-B3E1-4C69D1EF7EC0";
shapes = (
{
closed = 1;
nodes = (
(214,53,l,{
"Letterink-NibData" = {
AngleInDegrees = "22.71999";
};
}),
(295,253,l,{
"Letterink-NibData" = {
AngleInDegrees = "236.57519";
};
}),
(245,210,l,{
"Letterink-NibData" = {
AngleInDegrees = "90";
};
}),
(577,210,l,{
"Letterink-NibData" = {
AngleInDegrees = "303.42481";
};
}),
(527,253,l,{
"Letterink-NibData" = {
AngleInDegrees = "157.34811";
};
}),
(633,0,l,{
"Letterink-NibData" = {
AngleInDegrees = "90";
};
}),
(720,0,l,{
"Letterink-NibData" = {
AngleInDegrees = "336.96218";
};
}),
(427,690,l,{
"Letterink-NibData" = {
AngleInDegrees = "270";
};
}),
(393,690,l,{
"Letterink-NibData" = {
AngleInDegrees = "202.82503";
};
}),
(140,83,l,{
"Letterink-NibData" = {
AngleInDegrees = "202.38014";
};
})
);
},
{
closed = 1;
nodes = (
(404,541,l,{
"Letterink-NibData" = {
AngleInDegrees = "8.130100000000001";
};
}),
(410,571,l,{
"Letterink-NibData" = {
AngleInDegrees = "171.8699";
};
}),
(417,541,l,{
"Letterink-NibData" = {
AngleInDegrees = "159.79358";
};
}),
(519,260,l,{
"Letterink-NibData" = {
AngleInDegrees = "35.21759";
};
}),
(543,284,l,{
"Letterink-NibData" = {
AngleInDegrees = "270";
};
}),
(275,284,l,{
"Letterink-NibData" = {
AngleInDegrees = "145.92281";
};
}),
(298,260,l,{
"Letterink-NibData" = {
AngleInDegrees = "20.73026";
};
})
);
}
);
width = 728;
},
{
anchors = (
{
name = bottom;
pos = (432,0);
},
{
name = ogonek;
pos = (724,1);
},
{
name = top;
pos = (433,684);
}
);
hints = (
{
name = _corner.caps_swash_diag;
origin = (0,0);
scale = (-1,1);
type = Corner;
}
);
layerId = "49C16FD3-6177-408B-A733-AEB3898BB77C";
shapes = (
{
closed = 1;
nodes = (
(200,54,l,{
"Letterink-NibData" = {
AngleInDegrees = "22.1315";
};
}),
(283,251,l,{
"Letterink-NibData" = {
AngleInDegrees = "235.7843";
};
}),
(261,234,l,{
"Letterink-NibData" = {
AngleInDegrees = "90";
};
}),
(602,234,l,{
"Letterink-NibData" = {
AngleInDegrees = "304.2157";
};
}),
(580,251,l,{
"Letterink-NibData" = {
AngleInDegrees = "157.41269";
};
}),
(683,0,l,{
"Letterink-NibData" = {
AngleInDegrees = "90";
};
}),
(724,0,l,{
"Letterink-NibData" = {
AngleInDegrees = "337.30364";
};
}),
(437,692,l,{
"Letterink-NibData" = {
AngleInDegrees = "270";
};
}),
(428,692,l,{
"Letterink-NibData" = {
AngleInDegrees = "202.68401";
};
}),
(166,70,l,{
"Letterink-NibData" = {
AngleInDegrees = "202.61986";
};
})
);
},
{
closed = 1;
nodes = (
(419,584,l,{
"Letterink-NibData" = {
AngleInDegrees = "16.29405";
};
}),
(432,627,l,{
"Letterink-NibData" = {
AngleInDegrees = "163.21735";
};
}),
(446,584,l,{
"Letterink-NibData" = {
AngleInDegrees = "158.19859";
};
}),
(576,257,l,{
"Letterink-NibData" = {
AngleInDegrees = "32.90524";
};
}),
(585,270,l,{
"Letterink-NibData" = {
AngleInDegrees = "270";
};
}),
(276,270,l,{
"Letterink-NibData" = {
AngleInDegrees = "147.09476";
};
}),
(286,257,l,{
"Letterink-NibData" = {
AngleInDegrees = "22.09423";
};
})
);
}
);
width = 751;
},
{
anchors = (
{
name = bottom;
pos = (424,-6);
},
{
name = ogonek;
pos = (720,0);
},
{
name = top;
pos = (424,684);
}
);
associatedMasterId = "49C16FD3-6177-408B-A733-AEB3898BB77C";
layerId = "58617E73-3A60-467D-AD5A-D66EDA6AE7B6";
name = "6 Jan 22, 16:52";
shapes = (
{
closed = 1;
nodes = (
(162,-11,o),
(188,10,o),
(204,49,cs,{
"Letterink-NibData" = {
AngleInDegrees = 21.9487;
};
}),
(285,250,l,{
"Letterink-NibData" = {
AngleInDegrees = 235.7843;
};
}),
(260,233,l,{
"Letterink-NibData" = {
AngleInDegrees = 90;
};
}),
(587,233,l,{
"Letterink-NibData" = {
AngleInDegrees = 304.2157;
};
}),
(562,250,l,{
"Letterink-NibData" = {
AngleInDegrees = 157.41269;
};
}),
(666,0,l,{
"Letterink-NibData" = {
AngleInDegrees = 90;
};
}),
(715,0,l,{
"Letterink-NibData" = {
AngleInDegrees = 337.54495;
};
}),
(429,692,l,{
"Letterink-NibData" = {
AngleInDegrees = 270;
};
}),
(419,692,l,{
"Letterink-NibData" = {
AngleInDegrees = 202.29205;
};
}),
(164,70,ls,{
"Letterink-NibData" = {
AngleInDegrees = 202.47943;
};
}),
(152,41,o),
(141,30,o),
(121,30,cs,{
"Letterink-NibData" = {
AngleInDegrees = 270;
};
}),
(101,30,o),
(84,48,o),
(84,67,cs),
(84,72,o),
(85,77,o),
(87,82,c,{
"Letterink-NibData" = {
AngleInDegrees = 304.43899;
};
}),
(52,106,l,{
"Letterink-NibData" = {
AngleInDegrees = 213.69007;
};
}),
(44,94,o),
(40,76,o),
(40,66,cs,{
"Letterink-NibData" = {
AngleInDegrees = 180;
};
}),
(40,21,o),
(81,-11,o),
(123,-11,cs,{
"Letterink-NibData" = {
AngleInDegrees = 90;
};
})
);
},
{
closed = 1;
nodes = (
(410,569,l,{
"Letterink-NibData" = {
AngleInDegrees = 15.64224;
};
}),
(424,619,l,{
"Letterink-NibData" = {
AngleInDegrees = 165.42579;
};
}),
(437,569,l,{
"Letterink-NibData" = {
AngleInDegrees = 158.93765;
};
}),
(556,260,l,{
"Letterink-NibData" = {
AngleInDegrees = 35.21759;
};
}),
(568,277,l,{
"Letterink-NibData" = {
AngleInDegrees = 270;
};
}),
(279,277,l,{
"Letterink-NibData" = {
AngleInDegrees = 144.78241;
};
}),
(291,260,l,{
"Letterink-NibData" = {
AngleInDegrees = 21.06235;
};
})
);
}
);
width = 753;
},
{
anchors = (
{
name = bottom;
pos = (482,0);
},
{
name = ogonek;
pos = (824,0);
},
{
name = top;
pos = (481,694);
}
);
hints = (
{
name = _corner.caps_swash_diag;
options = 2;
origin = (0,0);
scale = (-1,1);
type = Corner;
}
);
layerId = m004;
shapes = (
{
closed = 1;
nodes = (
(332,66,l,{
"Letterink-NibData" = {
AngleInDegrees = "22.65189";
};
}),
(425,257,l,{
"Letterink-NibData" = {
AngleInDegrees = "236.57519";
};
}),
(328,146,l,{
"Letterink-NibData" = {
AngleInDegrees = "90";
};
}),
(638,146,l,{
"Letterink-NibData" = {
AngleInDegrees = "303.42481";
};
}),
(543,257,l,{
"Letterink-NibData" = {
AngleInDegrees = "156.96496";
};
}),
(651,0,l,{
"Letterink-NibData" = {
AngleInDegrees = "90";
};
}),
(824,0,l,{
"Letterink-NibData" = {
AngleInDegrees = "337.32254";
};
}),
(526,708,l,{
"Letterink-NibData" = {
AngleInDegrees = "270";
};
}),
(440,708,l,{
"Letterink-NibData" = {
AngleInDegrees = "202.53914";
};
}),
(187,144,l,{
"Letterink-NibData" = {
AngleInDegrees = "90";
};
})
);
},
{
closed = 1;
nodes = (
(499,480,l,{
"Letterink-NibData" = {
AngleInDegrees = "19.98311";
};
}),
(482,484,l,{
"Letterink-NibData" = {
AngleInDegrees = "161.56505";
};
}),
(463,480,l,{
"Letterink-NibData" = {
AngleInDegrees = "158.35875";
};
}),
(530,272,l,{
"Letterink-NibData" = {
AngleInDegrees = "34.87533";
};
}),
(576,288,l,{
"Letterink-NibData" = {
AngleInDegrees = "270";
};
}),
(385,288,l,{
"Letterink-NibData" = {
AngleInDegrees = "145.92281";
};
}),
(431,268,l,{
"Letterink-NibData" = {
AngleInDegrees = "21.36191";
};
})
);
}
);
width = 823;
}
);
userData = {
position = 666;
width = 20;
};
},
{
glyphname = AE;
kernLeft = AE;
kernRight = E;
layers = (
{
anchors = (
{
name = bottom;
pos = (505,0);
},
{
name = top;
pos = (516,673);
}
);
hints = (
{
name = _corner.caps_diag;
options = 1;
origin = (0,0);
scale = (-1,1);
type = Corner;
}
);
layerId = "0CAF3BED-C4AC-4024-B3E1-4C69D1EF7EC0";
shapes = (
{
closed = 1;
nodes = (
(174,37,l,{
"Letterink-NibData" = {
AngleInDegrees = 26.8249;
};
}),
(279,252,l,{
"Letterink-NibData" = {
AngleInDegrees = 90;
};
}),
(222,210,l,{
"Letterink-NibData" = {
AngleInDegrees = 90;
};
}),
(481,210,l,{
"Letterink-NibData" = {
AngleInDegrees = 180;
};
}),
(445,256,l,{
"Letterink-NibData" = {
AngleInDegrees = 180;
};
}),
(445,-1,l,{
"Letterink-NibData" = {
AngleInDegrees = 90;
};
}),
(882,-1,l),
(882,75,l,{
"Letterink-NibData" = {
AngleInDegrees = 270;
};
}),
(527,75,l),
(527,325,l,{
"Letterink-NibData" = {
AngleInDegrees = 90;
};
}),
(764,325,l),
(764,401,l,{
"Letterink-NibData" = {
AngleInDegrees = 270;
};
}),
(527,401,l),
(527,610,l,{
"Letterink-NibData" = {
AngleInDegrees = 90;
};
}),
(862,610,l),
(862,686,l,{
"Letterink-NibData" = {
AngleInDegrees = 270;
};
}),
(418,686,l,{
"Letterink-NibData" = {
AngleInDegrees = 208.5766;
};
}),
(110,86,l,{
"Letterink-NibData" = {
AngleInDegrees = 209.0546;
};
})
);
},
{
closed = 1;
nodes = (
(427,537,l,{
"Letterink-NibData" = {
AngleInDegrees = 23.19859;
};
}),
(445,586,l,{
"Letterink-NibData" = {
AngleInDegrees = 180;
};
}),
(445,260,l,{
"Letterink-NibData" = {
AngleInDegrees = 270;
};
}),
(481,286,l,{
"Letterink-NibData" = {
AngleInDegrees = 270;
};
}),
(266,286,l,{
"Letterink-NibData" = {
AngleInDegrees = 28.71031;
};
}),
(285,264,l,{
"Letterink-NibData" = {
AngleInDegrees = 28.71031;
};
})
);
}
);
width = 924;
},
{
anchors = (
{
name = bottom;
pos = (529,0);
},
{
name = top;
pos = (522,684);
}
);
hints = (
{
name = _corner.caps_diag;
origin = (0,0);
scale = (-1,1);
type = Corner;
}
);
layerId = "49C16FD3-6177-408B-A733-AEB3898BB77C";
shapes = (
{
closed = 1;
nodes = (
(154,43,l,{
"Letterink-NibData" = {
AngleInDegrees = 29.29136;
};
}),
(260,249,l,{
"Letterink-NibData" = {
AngleInDegrees = 90;
};
}),
(237,237,l,{
"Letterink-NibData" = {
AngleInDegrees = 90;
};
}),
(501,237,l,{
"Letterink-NibData" = {
AngleInDegrees = 180;
};
}),
(485,253,l,{
"Letterink-NibData" = {
AngleInDegrees = 180;
};
}),
(485,1,l,{
"Letterink-NibData" = {
AngleInDegrees = 90;
};
}),
(902,1,l),
(902,37,l,{
"Letterink-NibData" = {
AngleInDegrees = 270;
};
}),
(522,37,l),
(522,346,l,{
"Letterink-NibData" = {
AngleInDegrees = 90;
};
}),
(778,346,l),
(778,382,l,{
"Letterink-NibData" = {
AngleInDegrees = 270;
};
}),
(522,382,l),
(522,649,l,{
"Letterink-NibData" = {
AngleInDegrees = 90;
};
}),
(882,649,l),
(882,685,l,{
"Letterink-NibData" = {
AngleInDegrees = 270;
};
}),
(456,685,l,{
"Letterink-NibData" = {
AngleInDegrees = 208.82166;
};
}),
(119,56,l,{
"Letterink-NibData" = {
AngleInDegrees = 213.69007;
};
})
);
},
{
closed = 1;
nodes = (
(449,600,l,{
"Letterink-NibData" = {
AngleInDegrees = 27.32389;
};
}),
(484,663,l,{
"Letterink-NibData" = {
AngleInDegrees = 179.84962;
};
}),
(485,257,l,{
"Letterink-NibData" = {
AngleInDegrees = 270;
};
}),
(501,273,l,{
"Letterink-NibData" = {
AngleInDegrees = 270;
};
}),
(255,273,l,{
"Letterink-NibData" = {
AngleInDegrees = 28.59795;
};
}),
(263,259,l,{
"Letterink-NibData" = {
AngleInDegrees = 28.59795;
};
})
);
}
);
width = 917;
},
{
anchors = (
{
name = bottom;
pos = (548,0);
},
{
name = top;
pos = (556,692);
}
);
associatedMasterId = "49C16FD3-6177-408B-A733-AEB3898BB77C";
layerId = "C1A3D0A8-503D-4B78-876F-381CB7337013";
name = "11 Jan 22, 13:13";
shapes = (
{
closed = 1;
nodes = (
(139,-2,o),
(151,26,o),
(182,71,c,{
"Letterink-NibData" = {
AngleInDegrees = 29.29136;
};
}),
(274,235,l,{
"Letterink-NibData" = {
AngleInDegrees = 90;
};
}),
(502,235,l,{
"Letterink-NibData" = {
AngleInDegrees = 180;
};
}),
(502,1,l,{
"Letterink-NibData" = {
AngleInDegrees = 90;
};
}),
(921,1,l),
(921,41,l,{
"Letterink-NibData" = {
AngleInDegrees = 270;
};
}),
(544,41,l),
(544,344,l,{
"Letterink-NibData" = {
AngleInDegrees = 90;
};
}),
(798,344,l),
(798,384,l,{
"Letterink-NibData" = {
AngleInDegrees = 270;
};
}),
(544,384,l),
(544,645,l,{
"Letterink-NibData" = {
AngleInDegrees = 90;
};
}),
(901,645,l),
(901,685,l,{
"Letterink-NibData" = {
AngleInDegrees = 270;
};
}),
(474,685,l,{
"Letterink-NibData" = {
AngleInDegrees = 208.82166;
};
}),
(140,78,l,{
"Letterink-NibData" = {
AngleInDegrees = 213.69007;
};
}),
(126,57,o),
(117,38,o),
(93,38,cs,{
"Letterink-NibData" = {
AngleInDegrees = 270;
};
}),
(79,38,o),
(62,47,o),
(54,56,c,{
"Letterink-NibData" = {
AngleInDegrees = 244.0577;
};
}),
(17,38,l,{
"Letterink-NibData" = {
AngleInDegrees = 146.82149;
};
}),
(34,12,o),
(61,-2,o),
(92,-2,cs,{
"Letterink-NibData" = {
AngleInDegrees = 90;
};
})
);
},
{
closed = 1;
nodes = (
(470,596,l,{
"Letterink-NibData" = {
AngleInDegrees = 27.32389;
};
}),
(501,656,l,{
"Letterink-NibData" = {
AngleInDegrees = 179.84962;
};
}),
(502,275,l,{
"Letterink-NibData" = {
AngleInDegrees = 270;
};
}),
(295,275,l,{
"Letterink-NibData" = {
AngleInDegrees = 28.59795;
};
})
);
}
);
width = 966;
},
{
anchors = (
{
name = bottom;
pos = (543,0);
},
{
name = top;
pos = (554,673);
}
);
associatedMasterId = "0CAF3BED-C4AC-4024-B3E1-4C69D1EF7EC0";
layerId = "8D16C2AC-4E99-48C9-ADA3-C168C353B72B";
name = "11 Jan 22, 13:30";
shapes = (
{
closed = 1;
nodes = (
(142,-12,o),
(179,8,o),
(197,44,cs,{
"Letterink-NibData" = {
AngleInDegrees = 26.8249;
};
}),
(286,220,l,{
"Letterink-NibData" = {
AngleInDegrees = 90;
};
}),
(483,220,l,{
"Letterink-NibData" = {
AngleInDegrees = 180;
};
}),
(483,-1,l,{
"Letterink-NibData" = {
AngleInDegrees = 90;
};
}),
(920,-1,l),
(920,75,l,{
"Letterink-NibData" = {
AngleInDegrees = 270;
};
}),
(565,75,l),
(565,325,l,{
"Letterink-NibData" = {
AngleInDegrees = 90;
};
}),
(802,325,l),
(802,401,l,{
"Letterink-NibData" = {
AngleInDegrees = 270;
};
}),
(565,401,l),
(565,610,l,{
"Letterink-NibData" = {
AngleInDegrees = 90;
};
}),
(900,610,l),
(900,686,l,{
"Letterink-NibData" = {
AngleInDegrees = 270;
};
}),
(456,686,l,{
"Letterink-NibData" = {
AngleInDegrees = 208.5766;
};
}),
(133,93,ls,{
"Letterink-NibData" = {
AngleInDegrees = 209.0546;
};
}),
(123,75,o),
(114,67,o),
(99,67,cs,{
"Letterink-NibData" = {
AngleInDegrees = 270;
};
}),
(88,67,o),
(76,72,o),
(66,86,c,{
"Letterink-NibData" = {
AngleInDegrees = 220.6013;
};
}),
(18,30,l,{
"Letterink-NibData" = {
AngleInDegrees = 145.7843;
};
}),
(35,5,o),
(66,-12,o),
(107,-12,cs,{
"Letterink-NibData" = {
AngleInDegrees = 90;
};
})
);
},
{
closed = 1;
nodes = (
(462,537,l,{
"Letterink-NibData" = {
AngleInDegrees = 23.19859;
};
}),
(483,586,l,{
"Letterink-NibData" = {
AngleInDegrees = 180;
};
}),
(483,296,l,{
"Letterink-NibData" = {
AngleInDegrees = 270;
};
}),
(330,296,l,{
"Letterink-NibData" = {
AngleInDegrees = 28.71031;
};
})
);
}
);
width = 962;
},
{
anchors = (
{
name = bottom;
pos = (620,0);
},
{
name = top;
pos = (631,684);
}
);
hints = (
{
name = _corner.caps_diag;
options = 2;
origin = (0,0);
scale = (-1,1);
type = Corner;
}
);
layerId = m004;
shapes = (
{
closed = 1;
nodes = (
(296,70,l,{
"Letterink-NibData" = {
AngleInDegrees = "28.81079";
};
}),
(392,256,l,{
"Letterink-NibData" = {
AngleInDegrees = "90";
};
}),
(300,146,l,{
"Letterink-NibData" = {
AngleInDegrees = "90";
};
}),
(569,146,l,{
"Letterink-NibData" = {
AngleInDegrees = "180";
};
}),
(499,264,l,{
"Letterink-NibData" = {
AngleInDegrees = "180";
};
}),
(499,0,l,{
"Letterink-NibData" = {
AngleInDegrees = "90";
};
}),
(963,0,l),
(963,148,l,{
"Letterink-NibData" = {
AngleInDegrees = "270";
};
}),
(664,148,l),
(664,281,l,{
"Letterink-NibData" = {
AngleInDegrees = "90";
};
}),
(853,281,l),
(853,429,l,{
"Letterink-NibData" = {
AngleInDegrees = "270";
};
}),
(664,429,l),
(664,536,l,{
"Letterink-NibData" = {
AngleInDegrees = "90";
};
}),
(943,536,l),
(943,684,l,{
"Letterink-NibData" = {
AngleInDegrees = "270";
};
}),
(444,684,l,{
"Letterink-NibData" = {
AngleInDegrees = "209.70894";
};
}),
(149,145,l,{
"Letterink-NibData" = {
AngleInDegrees = "89.3704";
};
})
);
},
{
closed = 1;
nodes = (
(504,488,l,{
"Letterink-NibData" = {
AngleInDegrees = "23.62938";
};
}),
(499,449,l,{
"Letterink-NibData" = {
AngleInDegrees = "180";
};
}),
(499,275,l,{
"Letterink-NibData" = {
AngleInDegrees = "270";
};
}),
(569,296,l,{
"Letterink-NibData" = {
AngleInDegrees = "270";
};
}),
(381,296,l,{
"Letterink-NibData" = {
AngleInDegrees = "28.68615";
};
}),
(418,279,l,{
"Letterink-NibData" = {
AngleInDegrees = "28.68615";
};
})
);
}
);
width = 978;
},
{
anchors = (
{
name = bottom;
pos = (543,0);
},
{
name = top;
pos = (554,673);
}
);
associatedMasterId = m004;
layerId = "80EF8790-0869-49FF-90A7-EBAC34F5F575";
name = "11 Jan 22, 13:30";
shapes = (
{
closed = 1;
nodes = (
(142,-12,o),
(179,8,o),
(197,44,cs,{
"Letterink-NibData" = {
AngleInDegrees = 26.8249;
};
}),
(286,220,l,{
"Letterink-NibData" = {
AngleInDegrees = 90;
};
}),
(483,220,l,{
"Letterink-NibData" = {
AngleInDegrees = 180;
};
}),
(483,-1,l,{
"Letterink-NibData" = {
AngleInDegrees = 90;
};
}),
(920,-1,l),
(920,75,l,{
"Letterink-NibData" = {
AngleInDegrees = 270;
};
}),
(565,75,l),
(565,325,l,{
"Letterink-NibData" = {
AngleInDegrees = 90;
};
}),
(802,325,l),
(802,401,l,{
"Letterink-NibData" = {
AngleInDegrees = 270;
};
}),
(565,401,l),
(565,610,l,{
"Letterink-NibData" = {
AngleInDegrees = 90;
};
}),
(900,610,l),
(900,686,l,{
"Letterink-NibData" = {
AngleInDegrees = 270;
};
}),
(456,686,l,{
"Letterink-NibData" = {
AngleInDegrees = 208.5766;
};
}),
(133,93,ls,{
"Letterink-NibData" = {
AngleInDegrees = 209.0546;
};
}),
(123,75,o),
(114,67,o),
(99,67,cs,{
"Letterink-NibData" = {
AngleInDegrees = 270;
};
}),
(88,67,o),
(76,72,o),
(66,86,c,{
"Letterink-NibData" = {
AngleInDegrees = 220.6013;
};
}),
(18,30,l,{
"Letterink-NibData" = {
AngleInDegrees = 145.7843;
};
}),
(35,5,o),
(66,-12,o),
(107,-12,cs,{
"Letterink-NibData" = {
AngleInDegrees = 90;
};
})
);
},
{
closed = 1;
nodes = (
(462,537,l,{
"Letterink-NibData" = {
AngleInDegrees = 23.19859;
};
}),
(483,586,l,{
"Letterink-NibData" = {
AngleInDegrees = 180;
};
}),
(483,296,l,{
"Letterink-NibData" = {
AngleInDegrees = 270;
};
}),
(330,296,l,{
"Letterink-NibData" = {
AngleInDegrees = 28.71031;
};
})
);
}
);
width = 962;
}
);
metricLeft = A;
unicode = 198;
userData = {
position = 422;
width = 61;
};
},
{
glyphname = AE.ss01;
kernLeft = AE;
kernRight = E;
layers = (
{
anchors = (
{
name = bottom;
pos = (476,0);
},
{
name = top;
pos = (487,673);
}
);
layerId = "0CAF3BED-C4AC-4024-B3E1-4C69D1EF7EC0";
shapes = (
{
closed = 1;
nodes = (
(98,0,l,{
"Letterink-NibData" = {
AngleInDegrees = 28.81079;
};
}),
(236,252,l,{
"Letterink-NibData" = {
AngleInDegrees = 90;
};
}),
(183,210,l,{
"Letterink-NibData" = {
AngleInDegrees = 90;
};
}),
(452,210,l,{
"Letterink-NibData" = {
AngleInDegrees = 180;
};
}),
(416,256,l,{
"Letterink-NibData" = {
AngleInDegrees = 180;
};
}),
(416,-1,l,{
"Letterink-NibData" = {
AngleInDegrees = 90;
};
}),
(843,-1,l),
(843,75,l,{
"Letterink-NibData" = {
AngleInDegrees = 270;
};
}),
(498,75,l),
(498,325,l,{
"Letterink-NibData" = {
AngleInDegrees = 90;
};
}),
(725,325,l),
(725,401,l,{
"Letterink-NibData" = {
AngleInDegrees = 270;
};
}),
(498,401,l),
(498,610,l,{
"Letterink-NibData" = {
AngleInDegrees = 90;
};
}),
(823,610,l),
(823,686,l,{
"Letterink-NibData" = {
AngleInDegrees = 270;
};
}),
(399,686,l,{
"Letterink-NibData" = {
AngleInDegrees = 209.70894;
};
}),
(7,-1,l,{
"Letterink-NibData" = {
AngleInDegrees = 89.3704;
};
})
);
},
{
closed = 1;
nodes = (
(402,561,l,{
"Letterink-NibData" = {
AngleInDegrees = 23.62938;
};
}),
(416,593,l,{
"Letterink-NibData" = {
AngleInDegrees = 180;
};
}),
(416,260,l,{
"Letterink-NibData" = {
AngleInDegrees = 270;
};
}),
(452,286,l,{
"Letterink-NibData" = {
AngleInDegrees = 270;
};
}),
(221,286,l,{
"Letterink-NibData" = {
AngleInDegrees = 28.68615;
};
}),
(240,264,l,{
"Letterink-NibData" = {
AngleInDegrees = 28.68615;
};
})
);
}
);
width = 876;
},
{
anchors = (
{
name = bottom;
pos = (458,0);
},
{
name = top;
pos = (451,684);
}
);
layerId = "49C16FD3-6177-408B-A733-AEB3898BB77C";
shapes = (
{
closed = 1;
nodes = (
(69,1,l,{
"Letterink-NibData" = {
AngleInDegrees = 28.2127;
};
}),
(202,250,l,{
"Letterink-NibData" = {
AngleInDegrees = 90;
};
}),
(168,236,l,{
"Letterink-NibData" = {
AngleInDegrees = 90;
};
}),
(430,236,l,{
"Letterink-NibData" = {
AngleInDegrees = 180;
};
}),
(414,252,l,{
"Letterink-NibData" = {
AngleInDegrees = 180;
};
}),
(414,1,l,{
"Letterink-NibData" = {
AngleInDegrees = 90;
};
}),
(834,1,l),
(834,37,l,{
"Letterink-NibData" = {
AngleInDegrees = 270;
};
}),
(451,37,l),
(451,346,l,{
"Letterink-NibData" = {
AngleInDegrees = 90;
};
}),
(711,346,l),
(711,382,l,{
"Letterink-NibData" = {
AngleInDegrees = 270;
};
}),
(451,382,l),
(451,649,l,{
"Letterink-NibData" = {
AngleInDegrees = 90;
};
}),
(814,649,l),
(814,685,l,{
"Letterink-NibData" = {
AngleInDegrees = 270;
};
}),
(398,685,l,{
"Letterink-NibData" = {
AngleInDegrees = 208.86222;
};
}),
(27,1,l,{
"Letterink-NibData" = {
AngleInDegrees = 90;
};
})
);
},
{
closed = 1;
nodes = (
(391,601,l,{
"Letterink-NibData" = {
AngleInDegrees = 32.55;
};
}),
(414,650,l,{
"Letterink-NibData" = {
AngleInDegrees = 180;
};
}),
(414,256,l,{
"Letterink-NibData" = {
AngleInDegrees = 270;
};
}),
(430,272,l,{
"Letterink-NibData" = {
AngleInDegrees = 270;
};
}),
(184,272,l,{
"Letterink-NibData" = {
AngleInDegrees = 28.9193;
};
}),
(207,257,l,{
"Letterink-NibData" = {
AngleInDegrees = 28.9193;
};
})
);
}
);
width = 869;
},
{
anchors = (
{
name = bottom;
pos = (427,0);
},
{
name = top;
pos = (498,684);
}
);
layerId = m004;
shapes = (
{
closed = 1;
nodes = (
(182,1,l,{
"Letterink-NibData" = {
AngleInDegrees = "28.81079";
};
}),
(320,256,l,{
"Letterink-NibData" = {
AngleInDegrees = "90";
};
}),
(228,146,l,{
"Letterink-NibData" = {
AngleInDegrees = "90";
};
}),
(497,146,l,{
"Letterink-NibData" = {
AngleInDegrees = "180";
};
}),
(427,264,l,{
"Letterink-NibData" = {
AngleInDegrees = "180";
};
}),
(427,0,l,{
"Letterink-NibData" = {
AngleInDegrees = "90";
};
}),
(891,0,l),
(891,148,l,{
"Letterink-NibData" = {
AngleInDegrees = "270";
};
}),
(592,148,l),
(592,281,l,{
"Letterink-NibData" = {
AngleInDegrees = "90";
};
}),
(781,281,l),
(781,429,l,{
"Letterink-NibData" = {
AngleInDegrees = "270";
};
}),
(592,429,l),
(592,536,l,{
"Letterink-NibData" = {
AngleInDegrees = "90";
};
}),
(871,536,l),
(871,684,l,{
"Letterink-NibData" = {
AngleInDegrees = "270";
};
}),
(372,684,l,{
"Letterink-NibData" = {
AngleInDegrees = "209.70894";
};
}),
(-1,0,l,{
"Letterink-NibData" = {
AngleInDegrees = "89.3704";
};
})
);
},
{
closed = 1;
nodes = (
(428,488,l,{
"Letterink-NibData" = {
AngleInDegrees = "23.62938";
};
}),
(427,449,l,{
"Letterink-NibData" = {
AngleInDegrees = "180";
};
}),
(427,275,l,{
"Letterink-NibData" = {
AngleInDegrees = "270";
};
}),
(497,296,l,{
"Letterink-NibData" = {
AngleInDegrees = "270";
};
}),
(309,296,l,{
"Letterink-NibData" = {
AngleInDegrees = "28.68615";
};
}),
(346,279,l,{
"Letterink-NibData" = {
AngleInDegrees = "28.68615";
};
})
);
}
);
width = 960;
}
);
metricLeft = A.ss01;
metricRight = E;
userData = {
position = 422;
width = 61;
};
},
{
glyphname = AE.swsh;
kernLeft = AE;
kernRight = E;
layers = (
{
anchors = (
{
name = bottom;
pos = (528,0);
},
{
name = top;
pos = (539,673);
}
);
hints = (
{
name = _corner.caps_swash_diag;
options = 1;
origin = (0,0);
scale = (-1,1);
type = Corner;
}
);
layerId = "0CAF3BED-C4AC-4024-B3E1-4C69D1EF7EC0";
shapes = (
{
closed = 1;
nodes = (
(206,67,l,{
"Letterink-NibData" = {
AngleInDegrees = 26.8249;
};
}),
(297,252,l,{
"Letterink-NibData" = {
AngleInDegrees = 90;
};
}),
(245,210,l,{
"Letterink-NibData" = {
AngleInDegrees = 90;
};
}),
(504,210,l,{
"Letterink-NibData" = {
AngleInDegrees = 180;
};
}),
(468,256,l,{
"Letterink-NibData" = {
AngleInDegrees = 180;
};
}),
(468,-1,l,{
"Letterink-NibData" = {
AngleInDegrees = 90;
};
}),
(905,-1,l),
(905,75,l,{
"Letterink-NibData" = {
AngleInDegrees = 270;
};
}),
(550,75,l),
(550,325,l,{
"Letterink-NibData" = {
AngleInDegrees = 90;
};
}),
(787,325,l),
(787,401,l,{
"Letterink-NibData" = {
AngleInDegrees = 270;
};
}),
(550,401,l),
(550,610,l,{
"Letterink-NibData" = {
AngleInDegrees = 90;
};
}),
(885,610,l),
(885,686,l,{
"Letterink-NibData" = {
AngleInDegrees = 270;
};
}),
(441,686,l,{
"Letterink-NibData" = {
AngleInDegrees = 208.5766;
};
}),
(143,116,l,{
"Letterink-NibData" = {
AngleInDegrees = 209.0546;
};
})
);
},
{
closed = 1;
nodes = (
(452,537,l,{
"Letterink-NibData" = {
AngleInDegrees = 23.19859;
};
}),
(468,586,l,{
"Letterink-NibData" = {
AngleInDegrees = 180;
};
}),
(468,260,l,{
"Letterink-NibData" = {
AngleInDegrees = 270;
};
}),
(504,286,l,{
"Letterink-NibData" = {
AngleInDegrees = 270;
};
}),
(289,286,l,{
"Letterink-NibData" = {
AngleInDegrees = 28.71031;
};
}),
(308,264,l,{
"Letterink-NibData" = {
AngleInDegrees = 28.71031;
};
})
);
}
);
width = 947;
},
{
anchors = (
{
name = bottom;
pos = (576,0);
},
{
name = top;
pos = (584,694);
}
);
hints = (
{
name = _corner.caps_swash_diag;
origin = (0,0);
scale = (-1,1);
type = Corner;
}
);
layerId = "49C16FD3-6177-408B-A733-AEB3898BB77C";
shapes = (
{
closed = 1;
nodes = (
(197,48,l,{
"Letterink-NibData" = {
AngleInDegrees = 29.29136;
};
}),
(312,249,l,{
"Letterink-NibData" = {
AngleInDegrees = 90;
};
}),
(284,237,l,{
"Letterink-NibData" = {
AngleInDegrees = 90;
};
}),
(547,237,l,{
"Letterink-NibData" = {
AngleInDegrees = 180;
};
}),
(531,253,l,{
"Letterink-NibData" = {
AngleInDegrees = 180;
};
}),
(531,1,l,{
"Letterink-NibData" = {
AngleInDegrees = 90;
};
}),
(948,1,l),
(948,37,l,{
"Letterink-NibData" = {
AngleInDegrees = 270;
};
}),
(569,37,l),
(569,346,l,{
"Letterink-NibData" = {
AngleInDegrees = 90;
};
}),
(825,346,l),
(825,382,l,{
"Letterink-NibData" = {
AngleInDegrees = 270;
};
}),
(569,382,l),
(569,649,l,{
"Letterink-NibData" = {
AngleInDegrees = 90;
};
}),
(928,649,l),
(928,685,l,{
"Letterink-NibData" = {
AngleInDegrees = 270;
};
}),
(511,685,l,{
"Letterink-NibData" = {
AngleInDegrees = 208.82166;
};
}),
(161,61,l,{
"Letterink-NibData" = {
AngleInDegrees = 213.69007;
};
})
);
},
{
closed = 1;
nodes = (
(504,600,l,{
"Letterink-NibData" = {
AngleInDegrees = 27.32389;
};
}),
(530,650,l,{
"Letterink-NibData" = {
AngleInDegrees = 179.84962;
};
}),
(531,257,l,{
"Letterink-NibData" = {
AngleInDegrees = 270;
};
}),
(547,273,l,{
"Letterink-NibData" = {
AngleInDegrees = 270;
};
}),
(302,273,l,{
"Letterink-NibData" = {
AngleInDegrees = 28.59795;
};
}),
(315,259,l,{
"Letterink-NibData" = {
AngleInDegrees = 28.59795;
};
})
);
}
);
width = 963;
},
{
anchors = (
{
name = bottom;
pos = (548,0);
},
{
name = top;
pos = (556,692);
}
);
associatedMasterId = "49C16FD3-6177-408B-A733-AEB3898BB77C";
layerId = "C1A3D0A8-503D-4B78-876F-381CB7337013";
name = "11 Jan 22, 13:13";
shapes = (
{
closed = 1;
nodes = (
(139,-2,o),
(151,26,o),
(182,71,c,{
"Letterink-NibData" = {
AngleInDegrees = 29.29136;
};
}),
(274,235,l,{
"Letterink-NibData" = {
AngleInDegrees = 90;
};
}),
(502,235,l,{
"Letterink-NibData" = {
AngleInDegrees = 180;
};
}),
(502,1,l,{
"Letterink-NibData" = {
AngleInDegrees = 90;
};
}),
(921,1,l),
(921,41,l,{
"Letterink-NibData" = {
AngleInDegrees = 270;
};
}),
(544,41,l),
(544,344,l,{
"Letterink-NibData" = {
AngleInDegrees = 90;
};
}),
(798,344,l),
(798,384,l,{
"Letterink-NibData" = {
AngleInDegrees = 270;
};
}),
(544,384,l),
(544,645,l,{
"Letterink-NibData" = {
AngleInDegrees = 90;
};
}),
(901,645,l),
(901,685,l,{
"Letterink-NibData" = {
AngleInDegrees = 270;
};
}),
(474,685,l,{
"Letterink-NibData" = {
AngleInDegrees = 208.82166;
};
}),
(140,78,l,{
"Letterink-NibData" = {
AngleInDegrees = 213.69007;
};
}),
(126,57,o),
(117,38,o),
(93,38,cs,{
"Letterink-NibData" = {
AngleInDegrees = 270;
};
}),
(79,38,o),
(62,47,o),
(54,56,c,{
"Letterink-NibData" = {
AngleInDegrees = 244.0577;
};
}),
(17,38,l,{
"Letterink-NibData" = {
AngleInDegrees = 146.82149;
};
}),
(34,12,o),
(61,-2,o),
(92,-2,cs,{
"Letterink-NibData" = {
AngleInDegrees = 90;
};
})
);
},
{
closed = 1;
nodes = (
(470,596,l,{
"Letterink-NibData" = {
AngleInDegrees = 27.32389;
};
}),
(501,656,l,{
"Letterink-NibData" = {
AngleInDegrees = 179.84962;
};
}),
(502,275,l,{
"Letterink-NibData" = {
AngleInDegrees = 270;
};
}),
(295,275,l,{
"Letterink-NibData" = {
AngleInDegrees = 28.59795;
};
})
);
}
);
width = 966;
},
{
anchors = (
{
name = bottom;
pos = (543,0);
},
{
name = top;
pos = (554,673);
}
);
associatedMasterId = "0CAF3BED-C4AC-4024-B3E1-4C69D1EF7EC0";
layerId = "8D16C2AC-4E99-48C9-ADA3-C168C353B72B";
name = "11 Jan 22, 13:30";
shapes = (
{
closed = 1;
nodes = (
(142,-12,o),
(179,8,o),
(197,44,cs,{
"Letterink-NibData" = {
AngleInDegrees = 26.8249;
};
}),
(286,220,l,{
"Letterink-NibData" = {
AngleInDegrees = 90;
};
}),
(483,220,l,{
"Letterink-NibData" = {
AngleInDegrees = 180;
};
}),
(483,-1,l,{
"Letterink-NibData" = {
AngleInDegrees = 90;
};
}),
(920,-1,l),
(920,75,l,{
"Letterink-NibData" = {
AngleInDegrees = 270;
};
}),
(565,75,l),
(565,325,l,{
"Letterink-NibData" = {
AngleInDegrees = 90;
};
}),
(802,325,l),
(802,401,l,{
"Letterink-NibData" = {
AngleInDegrees = 270;
};
}),
(565,401,l),
(565,610,l,{
"Letterink-NibData" = {
AngleInDegrees = 90;
};
}),
(900,610,l),
(900,686,l,{
"Letterink-NibData" = {
AngleInDegrees = 270;
};
}),
(456,686,l,{
"Letterink-NibData" = {
AngleInDegrees = 208.5766;
};
}),
(133,93,ls,{
"Letterink-NibData" = {
AngleInDegrees = 209.0546;
};
}),
(123,75,o),
(114,67,o),
(99,67,cs,{
"Letterink-NibData" = {
AngleInDegrees = 270;
};
}),
(88,67,o),
(76,72,o),
(66,86,c,{
"Letterink-NibData" = {
AngleInDegrees = 220.6013;
};
}),
(18,30,l,{
"Letterink-NibData" = {
AngleInDegrees = 145.7843;
};
}),
(35,5,o),
(66,-12,o),
(107,-12,cs,{
"Letterink-NibData" = {
AngleInDegrees = 90;
};
})
);
},
{
closed = 1;
nodes = (
(462,537,l,{
"Letterink-NibData" = {
AngleInDegrees = 23.19859;
};
}),
(483,586,l,{
"Letterink-NibData" = {
AngleInDegrees = 180;
};
}),
(483,296,l,{
"Letterink-NibData" = {
AngleInDegrees = 270;
};
}),
(330,296,l,{
"Letterink-NibData" = {
AngleInDegrees = 28.71031;
};
})
);
}
);
width = 962;
},
{
anchors = (
{
name = bottom;
pos = (528,0);
},
{
name = top;
pos = (660,673);
}
);
hints = (
{
name = _corner.caps_swash_diag;
options = 1;
origin = (0,0);
scale = (-1,1);
type = Corner;
}
);
layerId = m004;
shapes = (
{
closed = 1;
nodes = (
(327,58,l,{
"Letterink-NibData" = {
AngleInDegrees = "28.81079";
};
}),
(421,256,l,{
"Letterink-NibData" = {
AngleInDegrees = "90";
};
}),
(329,146,l,{
"Letterink-NibData" = {
AngleInDegrees = "90";
};
}),
(598,146,l,{
"Letterink-NibData" = {
AngleInDegrees = "180";
};
}),
(528,264,l,{
"Letterink-NibData" = {
AngleInDegrees = "180";
};
}),
(528,0,l,{
"Letterink-NibData" = {
AngleInDegrees = "90";
};
}),
(992,0,l),
(992,148,l,{
"Letterink-NibData" = {
AngleInDegrees = "270";
};
}),
(693,148,l),
(693,291,l,{
"Letterink-NibData" = {
AngleInDegrees = "90";
};
}),
(882,291,l),
(882,439,l,{
"Letterink-NibData" = {
AngleInDegrees = "270";
};
}),
(693,439,l),
(693,536,l,{
"Letterink-NibData" = {
AngleInDegrees = "90";
};
}),
(972,536,l),
(972,684,l,{
"Letterink-NibData" = {
AngleInDegrees = "270";
};
}),
(468,684,l,{
"Letterink-NibData" = {
AngleInDegrees = "209.70894";
};
}),
(186,143,l,{
"Letterink-NibData" = {
AngleInDegrees = "89.3704";
};
})
);
},
{
closed = 1;
nodes = (
(530,488,l,{
"Letterink-NibData" = {
AngleInDegrees = "23.62938";
};
}),
(528,449,l,{
"Letterink-NibData" = {
AngleInDegrees = "180";
};
}),
(528,275,l,{
"Letterink-NibData" = {
AngleInDegrees = "270";
};
}),
(598,296,l,{
"Letterink-NibData" = {
AngleInDegrees = "270";
};
}),
(410,296,l,{
"Letterink-NibData" = {
AngleInDegrees = "28.68615";
};
}),
(447,279,l,{
"Letterink-NibData" = {
AngleInDegrees = "28.68615";
};
})
);
}
);
width = 1007;
},
{
anchors = (
{
name = bottom;
pos = (543,0);
},
{
name = top;
pos = (554,673);
}
);
associatedMasterId = m004;
layerId = "80EF8790-0869-49FF-90A7-EBAC34F5F575";
name = "11 Jan 22, 13:30";
shapes = (
{
closed = 1;
nodes = (
(142,-12,o),
(179,8,o),
(197,44,cs,{
"Letterink-NibData" = {
AngleInDegrees = 26.8249;
};
}),
(286,220,l,{
"Letterink-NibData" = {
AngleInDegrees = 90;
};
}),
(483,220,l,{
"Letterink-NibData" = {
AngleInDegrees = 180;
};
}),
(483,-1,l,{
"Letterink-NibData" = {
AngleInDegrees = 90;
};
}),
(920,-1,l),
(920,75,l,{
"Letterink-NibData" = {
AngleInDegrees = 270;
};
}),
(565,75,l),
(565,325,l,{
"Letterink-NibData" = {
AngleInDegrees = 90;
};
}),
(802,325,l),
(802,401,l,{
"Letterink-NibData" = {
AngleInDegrees = 270;
};
}),
(565,401,l),
(565,610,l,{
"Letterink-NibData" = {
AngleInDegrees = 90;
};
}),
(900,610,l),
(900,686,l,{
"Letterink-NibData" = {
AngleInDegrees = 270;
};
}),
(456,686,l,{
"Letterink-NibData" = {
AngleInDegrees = 208.5766;
};
}),
(133,93,ls,{
"Letterink-NibData" = {
AngleInDegrees = 209.0546;
};
}),
(123,75,o),
(114,67,o),
(99,67,cs,{
"Letterink-NibData" = {
AngleInDegrees = 270;
};
}),
(88,67,o),
(76,72,o),
(66,86,c,{
"Letterink-NibData" = {
AngleInDegrees = 220.6013;
};
}),
(18,30,l,{
"Letterink-NibData" = {
AngleInDegrees = 145.7843;
};
}),
(35,5,o),
(66,-12,o),
(107,-12,cs,{
"Letterink-NibData" = {
AngleInDegrees = 90;
};
})
);
},
{
closed = 1;
nodes = (
(462,537,l,{
"Letterink-NibData" = {
AngleInDegrees = 23.19859;
};
}),
(483,586,l,{
"Letterink-NibData" = {
AngleInDegrees = 180;
};
}),
(483,296,l,{
"Letterink-NibData" = {
AngleInDegrees = 270;
};
}),
(330,296,l,{
"Letterink-NibData" = {
AngleInDegrees = 28.71031;
};
})
);
}
);
width = 962;
}
);
metricLeft = A.swsh;
userData = {
position = 422;
width = 61;
};
},
{
glyphname = B;
kernLeft = E;
kernRight = B;
layers = (
{
anchors = (
{
name = bottom;
pos = (321,0);
},
{
name = center;
pos = (331,368);
},
{
name = top;
pos = (321,684);
}
);
hints = (
{
name = _corner.caps_left;
origin = (0,18);
type = Corner;
}
);
layerId = "0CAF3BED-C4AC-4024-B3E1-4C69D1EF7EC0";
shapes = (
{
closed = 1;
nodes = (
(491,-10,o),
(584,63,o),
(584,190,cs),
(584,264,o),
(553,318,o),
(503,348,cs,{
"Letterink-NibData" = {
AngleInDegrees = 300.96376;
};
}),
(479,362,o),
(452,370,o),
(442,370,c,{
"Letterink-NibData" = {
AngleInDegrees = 71.56505;
};
}),
(453,374,o),
(469,377,o),
(486,385,cs,{
"Letterink-NibData" = {
AngleInDegrees = 63.43495;
};
}),
(530,407,o),
(554,453,o),
(554,511,cs),
(554,617,o),
(474,684,o),
(346,684,cs,{
"Letterink-NibData" = {
AngleInDegrees = 270;
};
}),
(120,684,l,{
"Letterink-NibData" = {
AngleInDegrees = 180;
};
}),
(120,606,l,{
"Letterink-NibData" = {
AngleInDegrees = 90;
};
}),
(347,606,l,{
"Letterink-NibData" = {
AngleInDegrees = 93.91825;
};
}),
(430,601,o),
(472,568,o),
(472,508,cs,{
"Letterink-NibData" = {
AngleInDegrees = 180;
};
}),
(472,443,o),
(423,401,o),
(345,401,cs,{
"Letterink-NibData" = {
AngleInDegrees = 270;
};
}),
(160,401,l,{
"Letterink-NibData" = {
AngleInDegrees = 180;
};
}),
(160,325,l,{
"Letterink-NibData" = {
AngleInDegrees = 90;
};
}),
(352,324,ls,{
"Letterink-NibData" = {
AngleInDegrees = 90;
};
}),
(445,324,o),
(503,273,o),
(503,188,cs,{
"Letterink-NibData" = {
AngleInDegrees = 180;
};
}),
(503,102,o),
(444,66,o),
(319,64,cs,{
"Letterink-NibData" = {
AngleInDegrees = 270;
};
}),
(283,63,o),
(240,65,o),
(202,71,c),
(202,642,l,{
"Letterink-NibData" = {
AngleInDegrees = 270;
};
}),
(120,642,l,{
"Letterink-NibData" = {
AngleInDegrees = 180;
};
}),
(120,2,l,{
"Letterink-NibData" = {
AngleInDegrees = 96.54629;
};
}),
(181,-5,ls,{
"Letterink-NibData" = {
AngleInDegrees = 96.70984;
};
}),
(202,-7,o),
(268,-10,o),
(306,-10,cs,{
"Letterink-NibData" = {
AngleInDegrees = 90;
};
})
);
}
);
width = 630;
},
{
anchors = (
{
name = bottom;
pos = (314,-2);
},
{
name = center;
pos = (331,367);
},
{
name = top;
pos = (314,684);
}
);
hints = (
{
name = _corner.caps_left;
origin = (0,18);
type = Corner;
}
);
layerId = "49C16FD3-6177-408B-A733-AEB3898BB77C";
shapes = (
{
closed = 1;
nodes = (
(463,-9,o),
(571,43,o),
(571,181,cs),
(571,254,o),
(534,315,o),
(464,349,cs,{
"Letterink-NibData" = {
AngleInDegrees = 305.53768;
};
}),
(453,354,o),
(429,361,o),
(401,366,c,{
"Letterink-NibData" = {
AngleInDegrees = 75.67728;
};
}),
(431,373,o),
(450,375,o),
(479,398,cs,{
"Letterink-NibData" = {
AngleInDegrees = 53.1301;
};
}),
(509,422,o),
(538,453,o),
(538,515,cs),
(538,633,o),
(445,684,o),
(341,684,cs,{
"Letterink-NibData" = {
AngleInDegrees = 270;
};
}),
(125,684,l,{
"Letterink-NibData" = {
AngleInDegrees = 180;
};
}),
(125,648,l,{
"Letterink-NibData" = {
AngleInDegrees = 90;
};
}),
(357,648,l,{
"Letterink-NibData" = {
AngleInDegrees = 93.81407;
};
}),
(448,641,o),
(499,598,o),
(499,519,cs,{
"Letterink-NibData" = {
AngleInDegrees = 180;
};
}),
(499,425,o),
(427,382,o),
(340,382,cs,{
"Letterink-NibData" = {
AngleInDegrees = 270;
};
}),
(154,382,l,{
"Letterink-NibData" = {
AngleInDegrees = 180;
};
}),
(154,347,l,{
"Letterink-NibData" = {
AngleInDegrees = 90;
};
}),
(347,347,ls,{
"Letterink-NibData" = {
AngleInDegrees = 90;
};
}),
(467,347,o),
(533,271,o),
(533,181,cs,{
"Letterink-NibData" = {
AngleInDegrees = 180;
};
}),
(533,78,o),
(449,26,o),
(333,26,cs,{
"Letterink-NibData" = {
AngleInDegrees = 270;
};
}),
(325,26,o),
(215,26,o),
(166,32,c),
(166,654,l,{
"Letterink-NibData" = {
AngleInDegrees = 270;
};
}),
(125,654,l,{
"Letterink-NibData" = {
AngleInDegrees = 90;
};
}),
(126,3,l,{
"Letterink-NibData" = {
AngleInDegrees = 98.65254;
};
}),
(171,-4,ls,{
"Letterink-NibData" = {
AngleInDegrees = 99.21103;
};
}),
(210,-10,o),
(332,-9,o),
(323,-9,cs,{
"Letterink-NibData" = {
AngleInDegrees = 90;
};
})
);
}
);
width = 627;
},
{
anchors = (
{
name = bottom;
pos = (392,-2);
},
{
name = center;
pos = (392,356);
},
{
name = top;
pos = (387,684);
}
);
hints = (
{
name = _corner.caps_left;
origin = (0,18);
type = Corner;
}
);
layerId = m004;
shapes = (
{
closed = 1;
nodes = (
(595,19,o),
(660,93,o),
(660,195,cs),
(660,254,o),
(627,313,o),
(582,339,cs),
(552,356,o),
(536,361,o),
(508,365,c,{
"Letterink-NibData" = {
AngleInDegrees = "77.90524000000001";
};
}),
(540,369,o),
(556,377,o),
(575,391,cs,{
"Letterink-NibData" = {
AngleInDegrees = "63.90458";
};
}),
(623,426,o),
(638,471,o),
(638,520,cs),
(638,617,o),
(554,686,o),
(421,686,cs,{
"Letterink-NibData" = {
AngleInDegrees = "270";
};
}),
(167,686,l,{
"Letterink-NibData" = {
AngleInDegrees = "180";
};
}),
(167,535,l),
(421,536,ls,{
"Letterink-NibData" = {
AngleInDegrees = "90";
};
}),
(456,536,o),
(477,513,o),
(477,485,cs,{
"Letterink-NibData" = {
AngleInDegrees = "180";
};
}),
(477,451,o),
(454,424,o),
(427,424,cs,{
"Letterink-NibData" = {
AngleInDegrees = "269.3338";
};
}),
(302,424,l,{
"Letterink-NibData" = {
AngleInDegrees = "180.77422";
};
}),
(302,289,l,{
"Letterink-NibData" = {
AngleInDegrees = "90";
};
}),
(418,289,ls,{
"Letterink-NibData" = {
AngleInDegrees = "90";
};
}),
(466,289,o),
(505,258,o),
(505,211,cs,{
"Letterink-NibData" = {
AngleInDegrees = "180";
};
}),
(505,158,o),
(468,132,o),
(394,132,cs,{
"Letterink-NibData" = {
AngleInDegrees = "270";
};
}),
(371,132,o),
(357,133,o),
(332,137,c),
(332,551,l,{
"Letterink-NibData" = {
AngleInDegrees = "90";
};
}),
(167,552,l),
(167,6,l,{
"Letterink-NibData" = {
AngleInDegrees = "96.44159999999999";
};
}),
(219,-2,ls,{
"Letterink-NibData" = {
AngleInDegrees = "96.65443";
};
}),
(312,-16,o),
(421,-17,o),
(487,-3,cs,{
"Letterink-NibData" = {
AngleInDegrees = "90";
};
})
);
}
);
width = 695;
}
);
metricLeft = E;
unicode = 66;
userData = {
position = 514;
width = 59;
};
},
{
glyphname = B.ss01;
kernLeft = L;
kernRight = B;
layers = (
{
anchors = (
{
name = bottom;
pos = (285,0);
},
{
name = center;
pos = (295,370);
},
{
name = top;
pos = (285,684);
}
);
layerId = "0CAF3BED-C4AC-4024-B3E1-4C69D1EF7EC0";
shapes = (
{
closed = 1;
nodes = (
(455,-10,o),
(548,63,o),
(548,190,cs),
(548,264,o),
(517,318,o),
(467,348,cs,{
"Letterink-NibData" = {
AngleInDegrees = 300.96376;
};
}),
(440,364,o),
(408,368,o),
(396,370,c,{
"Letterink-NibData" = {
AngleInDegrees = 71.56505;
};
}),
(410,372,o),
(430,375,o),
(450,385,cs,{
"Letterink-NibData" = {
AngleInDegrees = 63.43495;
};
}),
(494,407,o),
(518,453,o),
(518,511,cs),
(518,617,o),
(438,684,o),
(310,684,cs,{
"Letterink-NibData" = {
AngleInDegrees = 270;
};
}),
(84,684,l,{
"Letterink-NibData" = {
AngleInDegrees = 180;
};
}),
(84,606,l,{
"Letterink-NibData" = {
AngleInDegrees = 90;
};
}),
(311,606,l,{
"Letterink-NibData" = {
AngleInDegrees = 93.91825;
};
}),
(394,601,o),
(436,568,o),
(436,508,cs,{
"Letterink-NibData" = {
AngleInDegrees = 180;
};
}),
(436,443,o),
(387,401,o),
(309,401,cs,{
"Letterink-NibData" = {
AngleInDegrees = 270;
};
}),
(124,401,l,{
"Letterink-NibData" = {
AngleInDegrees = 180;
};
}),
(124,325,l,{
"Letterink-NibData" = {
AngleInDegrees = 90;
};
}),
(316,324,ls,{
"Letterink-NibData" = {
AngleInDegrees = 90;
};
}),
(409,324,o),
(467,273,o),
(467,188,cs,{
"Letterink-NibData" = {
AngleInDegrees = 180;
};
}),
(467,102,o),
(408,66,o),
(283,64,cs,{
"Letterink-NibData" = {
AngleInDegrees = 270;
};
}),
(247,63,o),
(204,65,o),
(166,71,c),
(166,642,l,{
"Letterink-NibData" = {
AngleInDegrees = 270;
};
}),
(84,642,l,{
"Letterink-NibData" = {
AngleInDegrees = 180;
};
}),
(84,2,l,{
"Letterink-NibData" = {
AngleInDegrees = 96.54629;
};
}),
(145,-5,ls,{
"Letterink-NibData" = {
AngleInDegrees = 96.70984;
};
}),
(166,-7,o),
(232,-10,o),
(270,-10,cs,{
"Letterink-NibData" = {
AngleInDegrees = 90;
};
})
);
}
);
width = 580;
},
{
anchors = (
{
name = bottom;
pos = (281,0);
},
{
name = center;
pos = (275,363);
},
{
name = top;
pos = (281,684);
}
);
layerId = "49C16FD3-6177-408B-A733-AEB3898BB77C";
shapes = (
{
closed = 1;
nodes = (
(450,-9,o),
(538,58,o),
(538,177,cs),
(538,256,o),
(499,317,o),
(441,346,cs,{
"Letterink-NibData" = {
AngleInDegrees = 305.53768;
};
}),
(419,356,o),
(393,361,o),
(368,365,c,{
"Letterink-NibData" = {
AngleInDegrees = 75.67728;
};
}),
(396,369,o),
(425,380,o),
(454,403,cs,{
"Letterink-NibData" = {
AngleInDegrees = 53.1301;
};
}),
(488,430,o),
(505,467,o),
(505,516,cs),
(505,619,o),
(429,684,o),
(308,684,cs,{
"Letterink-NibData" = {
AngleInDegrees = 270;
};
}),
(92,684,l,{
"Letterink-NibData" = {
AngleInDegrees = 180;
};
}),
(92,648,l,{
"Letterink-NibData" = {
AngleInDegrees = 90;
};
}),
(324,648,l,{
"Letterink-NibData" = {
AngleInDegrees = 93.81407;
};
}),
(417,641,o),
(466,596,o),
(466,520,cs,{
"Letterink-NibData" = {
AngleInDegrees = 180;
};
}),
(466,435,o),
(405,382,o),
(307,382,cs,{
"Letterink-NibData" = {
AngleInDegrees = 270;
};
}),
(125,382,l,{
"Letterink-NibData" = {
AngleInDegrees = 180;
};
}),
(125,347,l,{
"Letterink-NibData" = {
AngleInDegrees = 90;
};
}),
(314,347,ls,{
"Letterink-NibData" = {
AngleInDegrees = 90;
};
}),
(424,347,o),
(500,276,o),
(500,179,cs,{
"Letterink-NibData" = {
AngleInDegrees = 180;
};
}),
(500,63,o),
(424,26,o),
(271,26,cs,{
"Letterink-NibData" = {
AngleInDegrees = 270;
};
}),
(236,26,o),
(159,29,o),
(133,32,c),
(133,654,l,{
"Letterink-NibData" = {
AngleInDegrees = 270;
};
}),
(92,654,l,{
"Letterink-NibData" = {
AngleInDegrees = 90;
};
}),
(93,3,l,{
"Letterink-NibData" = {
AngleInDegrees = 98.65254;
};
}),
(138,-4,ls,{
"Letterink-NibData" = {
AngleInDegrees = 99.21103;
};
}),
(177,-10,o),
(299,-9,o),
(315,-9,cs,{
"Letterink-NibData" = {
AngleInDegrees = 90;
};
})
);
}
);
width = 581;
},
{
anchors = (
{
name = bottom;
pos = (303,0);
},
{
name = center;
pos = (303,356);
},
{
name = top;
pos = (303,684);
}
);
layerId = m004;
shapes = (
{
closed = 1;
nodes = (
(506,19,o),
(571,93,o),
(571,195,cs),
(571,254,o),
(538,313,o),
(493,339,cs),
(463,356,o),
(447,361,o),
(419,365,c,{
"Letterink-NibData" = {
AngleInDegrees = "77.90524000000001";
};
}),
(451,369,o),
(467,377,o),
(486,391,cs,{
"Letterink-NibData" = {
AngleInDegrees = "63.90458";
};
}),
(534,426,o),
(549,471,o),
(549,520,cs),
(549,617,o),
(465,686,o),
(332,686,cs,{
"Letterink-NibData" = {
AngleInDegrees = "270";
};
}),
(78,686,l,{
"Letterink-NibData" = {
AngleInDegrees = "180";
};
}),
(78,535,l),
(332,536,ls,{
"Letterink-NibData" = {
AngleInDegrees = "90";
};
}),
(367,536,o),
(388,513,o),
(388,485,cs,{
"Letterink-NibData" = {
AngleInDegrees = "180";
};
}),
(388,451,o),
(365,424,o),
(338,424,cs,{
"Letterink-NibData" = {
AngleInDegrees = "269.3338";
};
}),
(213,424,l,{
"Letterink-NibData" = {
AngleInDegrees = "180.77422";
};
}),
(213,289,l,{
"Letterink-NibData" = {
AngleInDegrees = "90";
};
}),
(329,289,ls,{
"Letterink-NibData" = {
AngleInDegrees = "90";
};
}),
(377,289,o),
(416,258,o),
(416,211,cs,{
"Letterink-NibData" = {
AngleInDegrees = "180";
};
}),
(416,158,o),
(379,132,o),
(305,132,cs,{
"Letterink-NibData" = {
AngleInDegrees = "270";
};
}),
(282,132,o),
(268,133,o),
(243,137,c),
(243,551,l,{
"Letterink-NibData" = {
AngleInDegrees = "90";
};
}),
(78,552,l),
(78,6,l,{
"Letterink-NibData" = {
AngleInDegrees = "96.44159999999999";
};
}),
(130,-2,ls,{
"Letterink-NibData" = {
AngleInDegrees = "96.65443";
};
}),
(223,-16,o),
(332,-17,o),
(398,-3,cs,{
"Letterink-NibData" = {
AngleInDegrees = "90";
};
})
);
}
);
width = 605;
}
);
metricLeft = N.ss01;
userData = {
position = 494;
width = 59;
};
},
{
glyphname = B.swsh;
kernLeft = E.swsh;
kernRight = B;
layers = (
{
anchors = (
{
name = bottom;
pos = (344,0);
},
{
name = center;
pos = (354,369);
},
{
name = top;
pos = (344,684);
}
);
background = {
hints = (
{
name = _corner.caps_swash;
origin = (0,18);
type = Corner;
}
);
shapes = (
{
closed = 1;
nodes = (
(518,-10,o),
(597,76,o),
(597,187,cs),
(597,254,o),
(569,306,o),
(530,335,cs,{
"Letterink-NibData" = {
AngleInDegrees = 306.46923;
};
}),
(507,352,o),
(468,363,o),
(445,363,c,{
"Letterink-NibData" = {
AngleInDegrees = 78.69007;
};
}),
(465,367,o),
(491,368,o),
(518,393,cs,{
"Letterink-NibData" = {
AngleInDegrees = 47.91084;
};
}),
(549,421,o),
(566,458,o),
(566,506,cs),
(566,621,o),
(477,685,o),
(358,685,cs,{
"Letterink-NibData" = {
AngleInDegrees = 270;
};
}),
(122,685,l,{
"Letterink-NibData" = {
AngleInDegrees = 180;
};
}),
(122,609,l,{
"Letterink-NibData" = {
AngleInDegrees = 90;
};
}),
(371,609,ls,{
"Letterink-NibData" = {
AngleInDegrees = 90;
};
}),
(441,609,o),
(484,571,o),
(484,509,cs,{
"Letterink-NibData" = {
AngleInDegrees = 180;
};
}),
(484,434,o),
(431,401,o),
(357,401,cs,{
"Letterink-NibData" = {
AngleInDegrees = 270;
};
}),
(270,401,l,{
"Letterink-NibData" = {
AngleInDegrees = 180;
};
}),
(270,324,l,{
"Letterink-NibData" = {
AngleInDegrees = 90;
};
}),
(364,324,ls,{
"Letterink-NibData" = {
AngleInDegrees = 90;
};
}),
(445,324,o),
(515,278,o),
(515,191,cs,{
"Letterink-NibData" = {
AngleInDegrees = 180;
};
}),
(515,97,o),
(451,66,o),
(335,66,cs,{
"Letterink-NibData" = {
AngleInDegrees = 270;
};
}),
(316,66,o),
(305,67,o),
(223,71,c),
(223,561,l,{
"Letterink-NibData" = {
AngleInDegrees = 270;
};
}),
(141,561,l,{
"Letterink-NibData" = {
AngleInDegrees = 180;
};
}),
(141,2,l,{
"Letterink-NibData" = {
AngleInDegrees = 96.34019;
};
}),
(204,-5,ls,{
"Letterink-NibData" = {
AngleInDegrees = 97.12502;
};
}),
(228,-8,o),
(282,-10,o),
(329,-10,cs,{
"Letterink-NibData" = {
AngleInDegrees = 90;
};
})
);
}
);
};
hints = (
{
name = _corner.caps_swash;
options = 2;
origin = (0,18);
type = Corner;
}
);
layerId = "0CAF3BED-C4AC-4024-B3E1-4C69D1EF7EC0";
shapes = (
{
closed = 1;
nodes = (
(514,-10,o),
(607,63,o),
(607,190,cs),
(607,264,o),
(576,318,o),
(530,345,cs,{
"Letterink-NibData" = {
AngleInDegrees = "300.96376";
};
}),
(501,363,o),
(467,369,o),
(455,370,c,{
"Letterink-NibData" = {
AngleInDegrees = "71.56505";
};
}),
(468,373,o),
(489,375,o),
(510,386,cs,{
"Letterink-NibData" = {
AngleInDegrees = "63.43495";
};
}),
(553,407,o),
(577,453,o),
(577,511,cs),
(577,617,o),
(497,684,o),
(369,684,cs,{
"Letterink-NibData" = {
AngleInDegrees = "270";
};
}),
(143,684,l,{
"Letterink-NibData" = {
AngleInDegrees = "180";
};
}),
(143,607,l,{
"Letterink-NibData" = {
AngleInDegrees = "90";
};
}),
(370,607,l,{
"Letterink-NibData" = {
AngleInDegrees = "93.91825";
};
}),
(453,602,o),
(495,568,o),
(495,508,cs,{
"Letterink-NibData" = {
AngleInDegrees = "180";
};
}),
(495,443,o),
(446,401,o),
(368,401,cs,{
"Letterink-NibData" = {
AngleInDegrees = "270";
};
}),
(273,401,l,{
"Letterink-NibData" = {
AngleInDegrees = "180";
};
}),
(273,325,l,{
"Letterink-NibData" = {
AngleInDegrees = "90";
};
}),
(375,324,ls,{
"Letterink-NibData" = {
AngleInDegrees = "90";
};
}),
(468,323,o),
(526,273,o),
(526,193,cs,{
"Letterink-NibData" = {
AngleInDegrees = "180";
};
}),
(526,112,o),
(467,66,o),
(338,64,cs,{
"Letterink-NibData" = {
AngleInDegrees = "270";
};
}),
(306,63,o),
(263,65,o),
(225,71,c),
(225,560,l,{
"Letterink-NibData" = {
AngleInDegrees = "270";
};
}),
(143,560,l,{
"Letterink-NibData" = {
AngleInDegrees = "180";
};
}),
(143,2,l,{
"Letterink-NibData" = {
AngleInDegrees = "96.54629";
};
}),
(204,-5,ls,{
"Letterink-NibData" = {
AngleInDegrees = "96.70984";
};
}),
(225,-7,o),
(291,-10,o),
(329,-10,cs,{
"Letterink-NibData" = {
AngleInDegrees = "90";
};
})
);
}
);
width = 640;
},
{
anchors = (
{
name = bottom;
pos = (300,0);
},
{
name = center;
pos = (318,367);
},
{
name = top;
pos = (300,684);
}
);
background = {
hints = (
{
name = _corner.caps_swash;
origin = (0,18);
type = Corner;
}
);
shapes = (
{
closed = 1;
nodes = (
(494,-9,o),
(588,47,o),
(588,178,cs),
(588,266,o),
(546,319,o),
(482,351,cs,{
"Letterink-NibData" = {
AngleInDegrees = 296.56505;
};
}),
(474,355,o),
(443,362,o),
(428,365,c,{
"Letterink-NibData" = {
AngleInDegrees = 80.83765;
};
}),
(459,370,o),
(477,380,o),
(479,381,cs,{
"Letterink-NibData" = {
AngleInDegrees = 63.43495;
};
}),
(529,406,o),
(557,452,o),
(557,514,cs),
(557,620,o),
(466,685,o),
(359,685,cs,{
"Letterink-NibData" = {
AngleInDegrees = 270;
};
}),
(121,685,l,{
"Letterink-NibData" = {
AngleInDegrees = 180;
};
}),
(121,645,l,{
"Letterink-NibData" = {
AngleInDegrees = 90;
};
}),
(373,645,l,{
"Letterink-NibData" = {
AngleInDegrees = 93.40644;
};
}),
(457,640,o),
(514,593,o),
(514,517,cs,{
"Letterink-NibData" = {
AngleInDegrees = 180;
};
}),
(514,425,o),
(444,383,o),
(358,383,cs,{
"Letterink-NibData" = {
AngleInDegrees = 270;
};
}),
(276,383,l,{
"Letterink-NibData" = {
AngleInDegrees = 180;
};
}),
(276,345,l,{
"Letterink-NibData" = {
AngleInDegrees = 90;
};
}),
(365,345,ls,{
"Letterink-NibData" = {
AngleInDegrees = 90;
};
}),
(460,345,o),
(546,289,o),
(546,182,cs,{
"Letterink-NibData" = {
AngleInDegrees = 180;
};
}),
(546,78,o),
(466,29,o),
(333,29,cs,{
"Letterink-NibData" = {
AngleInDegrees = 270;
};
}),
(315,29,o),
(270,31,o),
(194,34,c),
(194,591,l,{
"Letterink-NibData" = {
AngleInDegrees = 270;
};
}),
(152,591,l,{
"Letterink-NibData" = {
AngleInDegrees = 180;
};
}),
(152,1,l,{
"Letterink-NibData" = {
AngleInDegrees = 94.96974;
};
}),
(198,-3,ls,{
"Letterink-NibData" = {
AngleInDegrees = 94.92711;
};
}),
(256,-8,o),
(283,-9,o),
(313,-9,cs,{
"Letterink-NibData" = {
AngleInDegrees = 90;
};
})
);
}
);
};
hints = (
{
name = _corner.caps_swash;
origin = (0,18);
type = Corner;
}
);
layerId = "49C16FD3-6177-408B-A733-AEB3898BB77C";
shapes = (
{
closed = 1;
nodes = (
(507,-9,o),
(595,58,o),
(595,177,cs),
(595,256,o),
(556,319,o),
(497,348,cs,{
"Letterink-NibData" = {
AngleInDegrees = "305.53768";
};
}),
(476,358,o),
(450,365,o),
(425,369,c,{
"Letterink-NibData" = {
AngleInDegrees = "75.67728";
};
}),
(453,376,o),
(482,384,o),
(512,408,cs,{
"Letterink-NibData" = {
AngleInDegrees = "53.1301";
};
}),
(545,435,o),
(562,467,o),
(562,516,cs),
(562,619,o),
(486,684,o),
(365,684,cs,{
"Letterink-NibData" = {
AngleInDegrees = "270";
};
}),
(149,684,l,{
"Letterink-NibData" = {
AngleInDegrees = "180";
};
}),
(149,648,l,{
"Letterink-NibData" = {
AngleInDegrees = "90";
};
}),
(381,648,l,{
"Letterink-NibData" = {
AngleInDegrees = "93.81407";
};
}),
(474,641,o),
(523,596,o),
(523,520,cs,{
"Letterink-NibData" = {
AngleInDegrees = "180";
};
}),
(523,435,o),
(462,382,o),
(364,382,cs,{
"Letterink-NibData" = {
AngleInDegrees = "270";
};
}),
(275,382,l,{
"Letterink-NibData" = {
AngleInDegrees = "180";
};
}),
(275,347,l,{
"Letterink-NibData" = {
AngleInDegrees = "90";
};
}),
(371,347,ls,{
"Letterink-NibData" = {
AngleInDegrees = "90";
};
}),
(473,347,o),
(557,280,o),
(557,183,cs,{
"Letterink-NibData" = {
AngleInDegrees = "180";
};
}),
(557,76,o),
(481,26,o),
(346,26,cs,{
"Letterink-NibData" = {
AngleInDegrees = "270";
};
}),
(294,26,o),
(216,29,o),
(190,32,c),
(190,597,l,{
"Letterink-NibData" = {
AngleInDegrees = "270";
};
}),
(149,597,l,{
"Letterink-NibData" = {
AngleInDegrees = "179.91332";
};
}),
(150,3,l,{
"Letterink-NibData" = {
AngleInDegrees = "98.65254";
};
}),
(195,-4,ls,{
"Letterink-NibData" = {
AngleInDegrees = "99.21102999999999";
};
}),
(234,-10,o),
(356,-9,o),
(372,-9,cs,{
"Letterink-NibData" = {
AngleInDegrees = "90";
};
})
);
}
);
width = 631;
},
{
anchors = (
{
name = bottom;
pos = (398,0);
},
{
name = center;
pos = (398,355);
},
{
name = top;
pos = (398,684);
}
);
hints = (
{
name = _corner.caps_swash;
options = 2;
origin = (0,18);
type = Corner;
}
);
layerId = m004;
shapes = (
{
closed = 1;
nodes = (
(625,19,o),
(690,93,o),
(690,195,cs),
(690,254,o),
(657,313,o),
(612,339,cs),
(582,356,o),
(566,361,o),
(538,365,c,{
"Letterink-NibData" = {
AngleInDegrees = "77.90524000000001";
};
}),
(570,369,o),
(586,377,o),
(605,391,cs,{
"Letterink-NibData" = {
AngleInDegrees = "63.90458";
};
}),
(653,426,o),
(668,471,o),
(668,520,cs),
(668,617,o),
(584,686,o),
(451,686,cs,{
"Letterink-NibData" = {
AngleInDegrees = "270";
};
}),
(197,686,l,{
"Letterink-NibData" = {
AngleInDegrees = "180";
};
}),
(197,535,l),
(451,536,ls,{
"Letterink-NibData" = {
AngleInDegrees = "90";
};
}),
(486,536,o),
(507,513,o),
(507,485,cs,{
"Letterink-NibData" = {
AngleInDegrees = "180";
};
}),
(507,451,o),
(484,424,o),
(457,424,cs,{
"Letterink-NibData" = {
AngleInDegrees = "269.3338";
};
}),
(402,424,l,{
"Letterink-NibData" = {
AngleInDegrees = "180.77422";
};
}),
(402,289,l,{
"Letterink-NibData" = {
AngleInDegrees = "90";
};
}),
(448,289,ls,{
"Letterink-NibData" = {
AngleInDegrees = "90";
};
}),
(496,289,o),
(535,258,o),
(535,211,cs,{
"Letterink-NibData" = {
AngleInDegrees = "180";
};
}),
(535,158,o),
(498,132,o),
(424,132,cs,{
"Letterink-NibData" = {
AngleInDegrees = "270";
};
}),
(401,132,o),
(387,133,o),
(362,137,c),
(362,496,l,{
"Letterink-NibData" = {
AngleInDegrees = "90";
};
}),
(197,497,l),
(197,6,l,{
"Letterink-NibData" = {
AngleInDegrees = "96.44159999999999";
};
}),
(249,-2,ls,{
"Letterink-NibData" = {
AngleInDegrees = "96.65443";
};
}),
(342,-16,o),
(451,-17,o),
(517,-3,cs,{
"Letterink-NibData" = {
AngleInDegrees = "90";
};
})
);
}
);
width = 723;
}
);
metricLeft = E.swsh;
userData = {
position = 514;
width = 59;
};
},
{
glyphname = C;
kernLeft = O;
kernRight = C;
layers = (
{
anchors = (
{
name = bottom;
pos = (382,-5);
},
{
name = top;
pos = (381,689);
}
);
background = {
shapes = (
{
closed = 1;
nodes = (
(573,-25,o),
(719,126,o),
(719,326,cs),
(719,355,ls),
(719,548,o),
(567,702,o),
(377,702,cs,{
"Letterink-NibData" = {
AngleInDegrees = "270";
};
}),
(187,702,o),
(36,548,o),
(36,355,cs,{
"Letterink-NibData" = {
AngleInDegrees = "180";
};
}),
(36,326,ls,{
"Letterink-NibData" = {
AngleInDegrees = "180";
};
}),
(36,126,o),
(180,-19,o),
(381,-22,cs,{
"Letterink-NibData" = {
AngleInDegrees = "90.89517371732774";
};
})
);
},
{
closed = 1;
nodes = (
(230,54,o),
(118,170,o),
(118,326,cs),
(118,355,ls),
(118,504,o),
(232,626,o),
(376,626,cs,{
"Letterink-NibData" = {
AngleInDegrees = "90";
};
}),
(522,626,o),
(637,504,o),
(637,355,cs,{
"Letterink-NibData" = {
AngleInDegrees = "180";
};
}),
(637,326,ls,{
"Letterink-NibData" = {
AngleInDegrees = "180";
};
}),
(637,170,o),
(525,54,o),
(378,54,cs,{
"Letterink-NibData" = {
AngleInDegrees = "270";
};
})
);
}
);
};
layerId = "0CAF3BED-C4AC-4024-B3E1-4C69D1EF7EC0";
shapes = (
{
closed = 1;
nodes = (
(465,443,l),
(484,429,o),
(505,422,o),
(526,422,cs),
(582,422,o),
(626,472,o),
(626,536,cs),
(626,633,o),
(526,703,o),
(387,703,cs),
(181,703,o),
(36,553,o),
(36,342,cs),
(36,132,o),
(179,-19,o),
(379,-19,cs),
(496,-19,o),
(598,33,o),
(652,121,c),
(589,159,l),
(548,95,o),
(470,55,o),
(377,55,cs),
(225,55,o),
(116,173,o),
(116,338,cs),
(116,511,o),
(224,627,o),
(385,627,cs),
(482,627,o),
(552,588,o),
(552,534,cs),
(552,511,o),
(542,496,o),
(526,496,cs),
(519,496,o),
(511,498,o),
(507,501,c)
);
}
);
width = 684;
},
{
anchors = (
{
name = bottom;
pos = (398,-4);
},
{
name = top;
pos = (400,688);
}
);
background = {
shapes = (
{
closed = 1;
nodes = (
(594,-14,o),
(736,131,o),
(736,331,cs),
(736,350,ls),
(736,550,o),
(588,702,o),
(394,702,cs,{
"Letterink-NibData" = {
AngleInDegrees = "270";
};
}),
(200,702,o),
(54,551,o),
(54,350,cs,{
"Letterink-NibData" = {
AngleInDegrees = "180";
};
}),
(54,331,ls,{
"Letterink-NibData" = {
AngleInDegrees = "180";
};
}),
(54,133,o),
(201,-14,o),
(398,-14,cs,{
"Letterink-NibData" = {
AngleInDegrees = "90";
};
})
);
},
{
closed = 1;
nodes = (
(224,24,o),
(96,156,o),
(96,331,cs),
(96,350,ls),
(96,526,o),
(225,662,o),
(393,662,cs,{
"Letterink-NibData" = {
AngleInDegrees = "90";
};
}),
(562,662,o),
(694,526,o),
(694,350,cs,{
"Letterink-NibData" = {
AngleInDegrees = "180";
};
}),
(694,331,ls,{
"Letterink-NibData" = {
AngleInDegrees = "180";
};
}),
(694,156,o),
(565,24,o),
(395,24,cs,{
"Letterink-NibData" = {
AngleInDegrees = "270";
};
})
);
}
);
};
layerId = "49C16FD3-6177-408B-A733-AEB3898BB77C";
shapes = (
{
closed = 1;
nodes = (
(503,464,l),
(520,452,o),
(540,446,o),
(557,446,cs),
(595,446,o),
(636,485,o),
(636,542,cs),
(636,614,o),
(557,699,o),
(400,699,cs),
(205,699,o),
(52,555,o),
(52,327,cs),
(52,127,o),
(201,-17,o),
(409,-17,cs),
(519,-17,o),
(621,36,o),
(669,119,c),
(641,137,l),
(598,64,o),
(506,16,o),
(409,16,cs),
(223,16,o),
(90,142,o),
(90,327,cs),
(90,533,o),
(224,665,o),
(400,665,cs),
(494,665,o),
(603,624,o),
(603,542,cs),
(603,517,o),
(590,480,o),
(557,480,cs),
(548,480,o),
(532,484,o),
(523,491,c)
);
}
);
width = 716;
},
{
anchors = (
{
name = bottom;
pos = (384,-29);
},
{
name = top;
pos = (384,723);
}
);
associatedMasterId = "49C16FD3-6177-408B-A733-AEB3898BB77C";
layerId = "9A6A7639-79A9-4EC5-AE88-1E69E535A513";
name = "3 Jan 22, 15:02";
shapes = (
{
closed = 1;
nodes = (
(504,-22,o),
(607,20,o),
(676,118,c,{
"Letterink-NibData" = {
AngleInDegrees = 307.18471;
};
}),
(647,140,l,{
"Letterink-NibData" = {
AngleInDegrees = 215.75389;
};
}),
(593,65,o),
(500,18,o),
(401,18,cs,{
"Letterink-NibData" = {
AngleInDegrees = 270;
};
}),
(226,18,o),
(102,167,o),
(102,335,cs),
(102,508,o),
(235,665,o),
(405,665,cs,{
"Letterink-NibData" = {
AngleInDegrees = 90;
};
}),
(488,665,o),
(595,637,o),
(595,558,cs,{
"Letterink-NibData" = {
AngleInDegrees = 180;
};
}),
(595,531,o),
(582,510,o),
(559,510,cs,{
"Letterink-NibData" = {
AngleInDegrees = 270;
};
}),
(551,510,o),
(536,515,o),
(529,522,c,{
"Letterink-NibData" = {
AngleInDegrees = 217.99873;
};
}),
(504,490,l,{
"Letterink-NibData" = {
AngleInDegrees = 132.27369;
};
}),
(515,480,o),
(540,472,o),
(556,472,cs,{
"Letterink-NibData" = {
AngleInDegrees = 90;
};
}),
(603,472,o),
(635,510,o),
(635,562,cs),
(635,661,o),
(517,706,o),
(413,706,cs,{
"Letterink-NibData" = {
AngleInDegrees = 270;
};
}),
(211,706,o),
(60,535,o),
(60,335,cs,{
"Letterink-NibData" = {
AngleInDegrees = 180;
};
}),
(60,140,o),
(204,-22,o),
(402,-22,cs,{
"Letterink-NibData" = {
AngleInDegrees = 90;
};
})
);
}
);
width = 720;
},
{
anchors = (
{
name = bottom;
pos = (387,-9);
},
{
name = top;
pos = (387,703);
}
);
associatedMasterId = "0CAF3BED-C4AC-4024-B3E1-4C69D1EF7EC0";
layerId = "354B442F-650F-4F84-82F8-D7A6B1A052DE";
name = "3 Jan 22, 15:22";
shapes = (
{
closed = 1;
nodes = (
(533,-19,o),
(637,45,o),
(684,146,c,{
"Letterink-NibData" = {
AngleInDegrees = 296.92768;
};
}),
(621,178,l,{
"Letterink-NibData" = {
AngleInDegrees = 204.38637;
};
}),
(587,103,o),
(498,52,o),
(401,52,cs,{
"Letterink-NibData" = {
AngleInDegrees = 270;
};
}),
(250,52,o),
(135,178,o),
(135,340,cs),
(135,509,o),
(259,632,o),
(399,632,cs,{
"Letterink-NibData" = {
AngleInDegrees = 90;
};
}),
(458,632,o),
(562,610,o),
(562,547,cs,{
"Letterink-NibData" = {
AngleInDegrees = 180;
};
}),
(562,530,o),
(554,517,o),
(538,517,cs,{
"Letterink-NibData" = {
AngleInDegrees = 270;
};
}),
(526,517,o),
(513,525,o),
(506,534,c,{
"Letterink-NibData" = {
AngleInDegrees = 218.25442;
};
}),
(465,482,l,{
"Letterink-NibData" = {
AngleInDegrees = 143.53076;
};
}),
(482,459,o),
(508,445,o),
(538,445,cs,{
"Letterink-NibData" = {
AngleInDegrees = 90;
};
}),
(591,445,o),
(637,490,o),
(637,551,cs),
(637,642,o),
(532,706,o),
(404,706,cs,{
"Letterink-NibData" = {
AngleInDegrees = 270;
};
}),
(197,706,o),
(53,539,o),
(53,341,cs,{
"Letterink-NibData" = {
AngleInDegrees = 180;
};
}),
(53,147,o),
(190,-26,o),
(404,-22,cs,{
"Letterink-NibData" = {
AngleInDegrees = 88.66778;
};
})
);
}
);
width = 720;
},
{
anchors = (
{
name = bottom;
pos = (390,-29);
},
{
name = top;
pos = (390,723);
}
);
associatedMasterId = "49C16FD3-6177-408B-A733-AEB3898BB77C";
background = {
shapes = (
{
closed = 1;
nodes = (
(510,-22,o),
(613,20,o),
(682,118,c),
(653,140,l),
(599,65,o),
(506,18,o),
(407,18,cs),
(232,18,o),
(108,167,o),
(108,335,cs),
(108,508,o),
(241,665,o),
(411,665,cs),
(494,665,o),
(601,637,o),
(601,558,cs),
(601,531,o),
(588,510,o),
(565,510,cs),
(557,510,o),
(542,515,o),
(535,522,c),
(510,490,l),
(521,480,o),
(546,472,o),
(562,472,cs),
(609,472,o),
(641,510,o),
(641,562,cs),
(641,661,o),
(523,706,o),
(419,706,cs),
(217,706,o),
(66,535,o),
(66,335,cs),
(66,140,o),
(210,-22,o),
(408,-22,cs)
);
}
);
};
layerId = "4473E775-5B50-49F8-862E-9DFFC95B4874";
name = "5 Jan 22, 07:44";
shapes = (
{
attr = {
strokeHeight = 38;
strokeWidth = 42;
};
closed = 0;
nodes = (
(518,484,l,{
"Letterink-NibData" = {
AngleInDegrees = 116.56505;
};
}),
(528,479,o),
(538,477,o),
(549,477,cs,{
"Letterink-NibData" = {
AngleInDegrees = 91.50744;
};
}),
(587,476,o),
(613,516,o),
(613,556,cs),
(613,630,o),
(519,690,o),
(395,684,cs,{
"Letterink-NibData" = {
AngleInDegrees = 267.08916;
};
}),
(218,675,o),
(84,532,o),
(84,330,cs,{
"Letterink-NibData" = {
AngleInDegrees = 180;
};
}),
(84,136,o),
(219,0,o),
(409,0,cs,{
"Letterink-NibData" = {
AngleInDegrees = 90;
};
}),
(507,0,o),
(602,52,o),
(648,130,c,{
"Letterink-NibData" = {
AngleInDegrees = 30.52971;
};
})
);
}
);
width = 726;
},
{
anchors = (
{
name = bottom;
pos = (415,-10);
},
{
name = top;
pos = (398,699);
}
);
background = {
shapes = (
{
closed = 1;
nodes = (
(590,-25,o),
(736,126,o),
(736,326,cs),
(736,355,ls),
(736,548,o),
(584,702,o),
(394,702,cs,{
"Letterink-NibData" = {
AngleInDegrees = "270";
};
}),
(204,702,o),
(53,548,o),
(53,355,cs,{
"Letterink-NibData" = {
AngleInDegrees = "180";
};
}),
(53,326,ls,{
"Letterink-NibData" = {
AngleInDegrees = "180";
};
}),
(53,126,o),
(197,-19,o),
(398,-22,cs,{
"Letterink-NibData" = {
AngleInDegrees = "90.89517371732774";
};
})
);
},
{
closed = 1;
nodes = (
(247,54,o),
(135,170,o),
(135,326,cs),
(135,355,ls),
(135,504,o),
(249,626,o),
(393,626,cs,{
"Letterink-NibData" = {
AngleInDegrees = "90";
};
}),
(539,626,o),
(654,504,o),
(654,355,cs,{
"Letterink-NibData" = {
AngleInDegrees = "180";
};
}),
(654,326,ls,{
"Letterink-NibData" = {
AngleInDegrees = "180";
};
}),
(654,170,o),
(542,54,o),
(395,54,cs,{
"Letterink-NibData" = {
AngleInDegrees = "270";
};
})
);
}
);
};
layerId = m004;
shapes = (
{
closed = 1;
nodes = (
(437,385,l),
(460,355,o),
(499,338,o),
(544,338,cs),
(630,338,o),
(690,400,o),
(690,487,cs),
(690,614,o),
(562,713,o),
(398,713,cs),
(192,713,o),
(40,555,o),
(40,343,cs),
(40,130,o),
(196,-27,o),
(409,-27,cs),
(536,-27,o),
(642,27,o),
(698,121,c),
(570,196,l),
(543,151,o),
(475,121,o),
(403,121,cs),
(284,121,o),
(205,207,o),
(205,337,cs),
(205,471,o),
(288,565,o),
(406,565,cs),
(461,565,o),
(509,545,o),
(534,511,cs),
(544,496,o),
(547,486,o),
(543,482,cs),
(538,477,o),
(525,482,o),
(519,490,c)
);
}
);
width = 734;
},
{
anchors = (
{
name = bottom;
pos = (387,-9);
},
{
name = top;
pos = (387,703);
}
);
associatedMasterId = m004;
layerId = "1D3C4DC7-3234-4807-8E35-E7EE46E86FD4";
name = "3 Jan 22, 15:22";
shapes = (
{
closed = 1;
nodes = (
(533,-19,o),
(637,45,o),
(684,146,c,{
"Letterink-NibData" = {
AngleInDegrees = 296.92768;
};
}),
(621,178,l,{
"Letterink-NibData" = {
AngleInDegrees = 204.38637;
};
}),
(587,103,o),
(498,52,o),
(401,52,cs,{
"Letterink-NibData" = {
AngleInDegrees = 270;
};
}),
(250,52,o),
(135,178,o),
(135,340,cs),
(135,509,o),
(259,632,o),
(399,632,cs,{
"Letterink-NibData" = {
AngleInDegrees = 90;
};
}),
(458,632,o),
(562,610,o),
(562,547,cs,{
"Letterink-NibData" = {
AngleInDegrees = 180;
};
}),
(562,530,o),
(554,517,o),
(538,517,cs,{
"Letterink-NibData" = {
AngleInDegrees = 270;
};
}),
(526,517,o),
(513,525,o),
(506,534,c,{
"Letterink-NibData" = {
AngleInDegrees = 218.25442;
};
}),
(465,482,l,{
"Letterink-NibData" = {
AngleInDegrees = 143.53076;
};
}),
(482,459,o),
(508,445,o),
(538,445,cs,{
"Letterink-NibData" = {
AngleInDegrees = 90;
};
}),
(591,445,o),
(637,490,o),
(637,551,cs),
(637,642,o),
(532,706,o),
(404,706,cs,{
"Letterink-NibData" = {
AngleInDegrees = 270;
};
}),
(197,706,o),
(53,539,o),
(53,341,cs,{
"Letterink-NibData" = {
AngleInDegrees = 180;
};
}),
(53,147,o),
(190,-26,o),
(404,-22,cs,{
"Letterink-NibData" = {
AngleInDegrees = 88.66778;
};
})
);
}
);
width = 720;
},
{
anchors = (
{
name = bottom;
pos = (382,0);
},
{
name = top;
pos = (374,684);
}
);
associatedMasterId = m004;
background = {
shapes = (
{
closed = 1;
nodes = (
(566,-25,o),
(712,126,o),
(712,326,cs),
(712,355,ls),
(712,548,o),
(560,702,o),
(370,702,cs,{
"Letterink-NibData" = {
AngleInDegrees = "270";
};
}),
(180,702,o),
(29,548,o),
(29,355,cs,{
"Letterink-NibData" = {
AngleInDegrees = "180";
};
}),
(29,326,ls,{
"Letterink-NibData" = {
AngleInDegrees = "180";
};
}),
(29,126,o),
(173,-19,o),
(374,-22,cs,{
"Letterink-NibData" = {
AngleInDegrees = "90.89517371732774";
};
})
);
},
{
closed = 1;
nodes = (
(223,54,o),
(111,170,o),
(111,326,cs),
(111,355,ls),
(111,504,o),
(225,626,o),
(369,626,cs,{
"Letterink-NibData" = {
AngleInDegrees = "90";
};
}),
(515,626,o),
(630,504,o),
(630,355,cs,{
"Letterink-NibData" = {
AngleInDegrees = "180";
};
}),
(630,326,ls,{
"Letterink-NibData" = {
AngleInDegrees = "180";
};
}),
(630,170,o),
(518,54,o),
(371,54,cs,{
"Letterink-NibData" = {
AngleInDegrees = "270";
};
})
);
}
);
};
layerId = "C056148C-2549-4511-9EFE-DD576A128247";
name = "19 Jan 22, 08:49";
shapes = (
{
closed = 0;
nodes = (
(459,430,l,{
"Letterink-NibData" = {
AngleInDegrees = -45;
MainAxisWidth = 118;
MinorAxisWidth = -15;
ValidForParentMainAxisWidth = 30;
ValidForParentMinorAxisWidth = 15;
};
"Letterink-NibStyleId" = "8";
}),
(479,410,o),
(501,408,o),
(517,408,cs,{
"Letterink-NibData" = {
AngleInDegrees = -45;
MainAxisWidth = 118;
MinorAxisWidth = -15;
ValidForParentMainAxisWidth = 30;
ValidForParentMinorAxisWidth = 15;
};
"Letterink-NibStyleId" = "8";
}),
(559,408,o),
(592,452,o),
(592,500,cs,{
"Letterink-NibData" = {
AngleInDegrees = -45;
MainAxisWidth = 118;
MinorAxisWidth = -15;
ValidForParentMainAxisWidth = 30;
ValidForParentMinorAxisWidth = 15;
};
"Letterink-NibStyleId" = "8";
}),
(592,568,o),
(493,639,o),
(383,639,cs,{
"Letterink-NibData" = {
AngleInDegrees = -45;
MainAxisWidth = 118;
MinorAxisWidth = -15;
ValidForParentMainAxisWidth = 30;
ValidForParentMinorAxisWidth = 15;
};
"Letterink-NibStyleId" = "8";
}),
(222,639,o),
(98,519,o),
(98,331,cs,{
"Letterink-NibData" = {
AngleInDegrees = -45;
MainAxisWidth = 135;
MinorAxisWidth = -15;
ValidForParentMainAxisWidth = 30;
ValidForParentMinorAxisWidth = 15;
};
"Letterink-NibStyleId" = "8";
}),
(98,164,o),
(221,47,o),
(391,47,cs,{
"Letterink-NibData" = {
AngleInDegrees = -45;
MainAxisWidth = 118;
MinorAxisWidth = -15;
ValidForParentMainAxisWidth = 30;
ValidForParentMinorAxisWidth = 15;
};
"Letterink-NibStyleId" = "8";
}),
(480,47,o),
(564,90,o),
(605,159,c,{
"Letterink-NibData" = {
AngleInDegrees = -45;
MainAxisWidth = 118;
MinorAxisWidth = -15;
ValidForParentMainAxisWidth = 30;
ValidForParentMinorAxisWidth = 15;
};
"Letterink-NibStyleId" = "8";
})
);
}
);
userData = {
"Letterink-ComputationAllowed" = YES;
};
width = 671;
}
);
metricLeft = O;
metricRight = "=O*.9";
unicode = 67;
userData = {
position = 570;
width = 54;
};
},
{
glyphname = C.ss01;
kernLeft = O;
kernRight = C;
layers = (
{
anchors = (
{
name = bottom;
pos = (382,-6);
},
{
name = top;
pos = (378,689);
}
);
background = {
shapes = (
{
closed = 1;
nodes = (
(574,-25,o),
(720,126,o),
(720,326,cs),
(720,355,ls),
(720,548,o),
(568,702,o),
(378,702,cs,{
"Letterink-NibData" = {
AngleInDegrees = "270";
};
}),
(188,702,o),
(37,548,o),
(37,355,cs,{
"Letterink-NibData" = {
AngleInDegrees = "180";
};
}),
(37,326,ls,{
"Letterink-NibData" = {
AngleInDegrees = "180";
};
}),
(37,126,o),
(181,-19,o),
(382,-22,cs,{
"Letterink-NibData" = {
AngleInDegrees = "90.89517371732774";
};
})
);
},
{
closed = 1;
nodes = (
(231,54,o),
(119,170,o),
(119,326,cs),
(119,355,ls),
(119,504,o),
(233,626,o),
(377,626,cs,{
"Letterink-NibData" = {
AngleInDegrees = "90";
};
}),
(523,626,o),
(638,504,o),
(638,355,cs,{
"Letterink-NibData" = {
AngleInDegrees = "180";
};
}),
(638,326,ls,{
"Letterink-NibData" = {
AngleInDegrees = "180";
};
}),
(638,170,o),
(526,54,o),
(379,54,cs,{
"Letterink-NibData" = {
AngleInDegrees = "270";
};
})
);
}
);
};
layerId = "0CAF3BED-C4AC-4024-B3E1-4C69D1EF7EC0";
shapes = (
{
closed = 1;
nodes = (
(652,531,l),
(620,626,o),
(519,705,o),
(381,705,cs),
(190,705,o),
(36,555,o),
(36,336,cs),
(36,115,o),
(193,-23,o),
(383,-23,cs),
(498,-23,o),
(602,27,o),
(657,118,c),
(591,158,l),
(552,93,o),
(477,53,o),
(384,53,cs),
(229,53,o),
(116,165,o),
(116,335,cs),
(116,505,o),
(228,629,o),
(387,629,cs),
(497,629,o),
(558,570,o),
(580,507,c)
);
}
);
width = 691;
},
{
anchors = (
{
name = bottom;
pos = (381,-2);
},
{
name = top;
pos = (382,685);
}
);
background = {
anchors = (
{
name = bottom;
pos = (376,-27);
},
{
name = top;
pos = (376,721);
}
);
shapes = (
{
attr = {
strokeHeight = 38;
strokeWidth = 42;
};
closed = 0;
nodes = (
(612,537,l,{
"Letterink-NibData" = {
AngleInDegrees = 356.78451;
};
}),
(607,626,o),
(509,691,o),
(385,685,cs,{
"Letterink-NibData" = {
AngleInDegrees = 267.08916;
};
}),
(208,676,o),
(73,532,o),
(73,330,cs,{
"Letterink-NibData" = {
AngleInDegrees = 180;
};
}),
(73,136,o),
(208,0,o),
(398,0,cs,{
"Letterink-NibData" = {
AngleInDegrees = 90;
};
}),
(496,0,o),
(591,52,o),
(637,130,c,{
"Letterink-NibData" = {
AngleInDegrees = 30.52971;
};
})
);
}
);
};
layerId = "49C16FD3-6177-408B-A733-AEB3898BB77C";
shapes = (
{
closed = 1;
nodes = (
(652,531,l),
(625,627,o),
(524,699,o),
(386,699,cs),
(199,699,o),
(52,549,o),
(52,336,cs),
(52,120,o),
(203,-17,o),
(390,-17,cs),
(504,-17,o),
(605,32,o),
(658,120,c),
(629,138,l),
(584,61,o),
(497,17,o),
(390,17,cs),
(221,17,o),
(90,142,o),
(90,336,cs),
(90,529,o),
(220,665,o),
(386,665,cs),
(518,665,o),
(598,595,o),
(620,523,c)
);
}
);
width = 707;
},
{
anchors = (
{
name = bottom;
pos = (381,-27);
},
{
name = top;
pos = (381,721);
}
);
associatedMasterId = "49C16FD3-6177-408B-A733-AEB3898BB77C";
layerId = "5C147D22-45CB-49AC-8F59-80A6CB628E42";
name = "3 Jan 22, 15:09";
shapes = (
{
closed = 1;
nodes = (
(508,-20,o),
(606,31,o),
(666,119,c,{
"Letterink-NibData" = {
AngleInDegrees = 304.07719;
};
}),
(632,142,l,{
"Letterink-NibData" = {
AngleInDegrees = 214.03213;
};
}),
(580,65,o),
(492,20,o),
(396,20,cs,{
"Letterink-NibData" = {
AngleInDegrees = 270;
};
}),
(225,20,o),
(103,159,o),
(103,331,cs),
(103,497,o),
(224,669,o),
(406,669,cs,{
"Letterink-NibData" = {
AngleInDegrees = 90;
};
}),
(505,669,o),
(586,618,o),
(592,552,c,{
"Letterink-NibData" = {
AngleInDegrees = 90;
};
}),
(633,552,l,{
"Letterink-NibData" = {
AngleInDegrees = 355.69553;
};
}),
(626,645,o),
(535,709,o),
(411,709,cs,{
"Letterink-NibData" = {
AngleInDegrees = 270;
};
}),
(207,709,o),
(61,535,o),
(61,334,cs,{
"Letterink-NibData" = {
AngleInDegrees = 180;
};
}),
(61,132,o),
(201,-20,o),
(397,-20,cs,{
"Letterink-NibData" = {
AngleInDegrees = 90;
};
})
);
}
);
width = 706;
},
{
anchors = (
{
name = bottom;
pos = (376,-7);
},
{
name = top;
pos = (376,701);
}
);
associatedMasterId = "0CAF3BED-C4AC-4024-B3E1-4C69D1EF7EC0";
layerId = "F3AD09C8-78E5-4679-83B5-5B942013D0D4";
name = "3 Jan 22, 15:21";
shapes = (
{
closed = 1;
nodes = (
(512,-17,o),
(616,40,o),
(678,139,c,{
"Letterink-NibData" = {
AngleInDegrees = 304.31509;
};
}),
(615,182,l,{
"Letterink-NibData" = {
AngleInDegrees = 211.07166;
};
}),
(568,104,o),
(488,59,o),
(393,59,cs,{
"Letterink-NibData" = {
AngleInDegrees = 270;
};
}),
(240,59,o),
(133,176,o),
(133,324,cs),
(133,494,o),
(248,631,o),
(391,631,cs,{
"Letterink-NibData" = {
AngleInDegrees = 90;
};
}),
(491,631,o),
(569,582,o),
(566,520,c,{
"Letterink-NibData" = {
AngleInDegrees = 90;
};
}),
(645,520,l,{
"Letterink-NibData" = {
AngleInDegrees = 1.06091;
};
}),
(647,628,o),
(542,707,o),
(396,707,cs,{
"Letterink-NibData" = {
AngleInDegrees = 270;
};
}),
(207,707,o),
(53,538,o),
(53,327,cs,{
"Letterink-NibData" = {
AngleInDegrees = 180;
};
}),
(53,132,o),
(197,-17,o),
(392,-17,cs,{
"Letterink-NibData" = {
AngleInDegrees = 90;
};
})
);
}
);
width = 716;
},
{
anchors = (
{
name = bottom;
pos = (387,-27);
},
{
name = top;
pos = (387,721);
}
);
associatedMasterId = "49C16FD3-6177-408B-A733-AEB3898BB77C";
layerId = "60C93F8E-5478-4CF7-8F44-AF3ED9540F66";
name = "5 Jan 22, 07:47";
shapes = (
{
attr = {
strokeHeight = 38;
strokeWidth = 42;
};
closed = 0;
nodes = (
(623,537,l,{
"Letterink-NibData" = {
AngleInDegrees = 356.78451;
};
}),
(618,626,o),
(520,691,o),
(396,685,cs,{
"Letterink-NibData" = {
AngleInDegrees = 267.08916;
};
}),
(219,676,o),
(84,532,o),
(84,330,cs,{
"Letterink-NibData" = {
AngleInDegrees = 180;
};
}),
(84,136,o),
(219,0,o),
(409,0,cs,{
"Letterink-NibData" = {
AngleInDegrees = 90;
};
}),
(507,0,o),
(602,52,o),
(648,130,c,{
"Letterink-NibData" = {
AngleInDegrees = 30.52971;
};
})
);
}
);
width = 712;
},
{
anchors = (
{
name = bottom;
pos = (376,-7);
},
{
name = top;
pos = (376,701);
}
);
associatedMasterId = "0CAF3BED-C4AC-4024-B3E1-4C69D1EF7EC0";
layerId = "E3615987-2AFD-4696-A41C-F6163A2589A7";
name = "5 Jan 22, 07:50";
shapes = (
{
attr = {
strokeHeight = 74;
strokeWidth = 80;
};
closed = 0;
nodes = (
(614,525,ls,{
"Letterink-NibData" = {
AngleInDegrees = 356.63354;
};
}),
(609,610,o),
(516,671,o),
(399,665,cs,{
"Letterink-NibData" = {
AngleInDegrees = 267.02198;
};
}),
(226,656,o),
(94,521,o),
(94,331,cs,{
"Letterink-NibData" = {
AngleInDegrees = 180;
};
}),
(94,148,o),
(224,20,o),
(407,20,cs,{
"Letterink-NibData" = {
AngleInDegrees = 90;
};
}),
(502,20,o),
(593,68,o),
(638,142,c,{
"Letterink-NibData" = {
AngleInDegrees = 31.30412;
};
})
);
}
);
width = 716;
},
{
anchors = (
{
name = bottom;
pos = (404,-12);
},
{
name = top;
pos = (393,696);
}
);
background = {
shapes = (
{
closed = 1;
nodes = (
(596,-25,o),
(742,126,o),
(742,326,cs),
(742,355,ls),
(742,548,o),
(590,702,o),
(400,702,cs,{
"Letterink-NibData" = {
AngleInDegrees = "270";
};
}),
(210,702,o),
(59,548,o),
(59,355,cs,{
"Letterink-NibData" = {
AngleInDegrees = "180";
};
}),
(59,326,ls,{
"Letterink-NibData" = {
AngleInDegrees = "180";
};
}),
(59,126,o),
(203,-19,o),
(404,-22,cs,{
"Letterink-NibData" = {
AngleInDegrees = "90.89517371732774";
};
})
);
},
{
closed = 1;
nodes = (
(253,54,o),
(141,170,o),
(141,326,cs),
(141,355,ls),
(141,504,o),
(255,626,o),
(399,626,cs,{
"Letterink-NibData" = {
AngleInDegrees = "90";
};
}),
(545,626,o),
(660,504,o),
(660,355,cs,{
"Letterink-NibData" = {
AngleInDegrees = "180";
};
}),
(660,326,ls,{
"Letterink-NibData" = {
AngleInDegrees = "180";
};
}),
(660,170,o),
(548,54,o),
(401,54,cs,{
"Letterink-NibData" = {
AngleInDegrees = "270";
};
})
);
}
);
};
layerId = m004;
shapes = (
{
closed = 1;
nodes = (
(682,522,l),
(648,633,o),
(529,713,o),
(393,713,cs),
(192,713,o),
(40,552,o),
(40,341,cs),
(40,130,o),
(194,-28,o),
(401,-28,cs),
(522,-28,o),
(627,29,o),
(682,120,c),
(555,196,l),
(527,149,o),
(469,120,o),
(403,120,cs),
(290,120,o),
(205,211,o),
(205,333,cs),
(205,466,o),
(286,565,o),
(393,565,cs),
(467,565,o),
(525,530,o),
(542,474,c)
);
}
);
width = 720;
},
{
anchors = (
{
name = bottom;
pos = (376,-7);
},
{
name = top;
pos = (376,701);
}
);
associatedMasterId = m004;
layerId = "61EB21C3-3EB3-448C-BA61-69CC21CFBA6E";
name = "3 Jan 22, 15:21";
shapes = (
{
closed = 1;
nodes = (
(512,-17,o),
(616,40,o),
(678,139,c,{
"Letterink-NibData" = {
AngleInDegrees = 304.31509;
};
}),
(615,182,l,{
"Letterink-NibData" = {
AngleInDegrees = 211.07166;
};
}),
(568,104,o),
(488,59,o),
(393,59,cs,{
"Letterink-NibData" = {
AngleInDegrees = 270;
};
}),
(240,59,o),
(133,176,o),
(133,324,cs),
(133,494,o),
(248,631,o),
(391,631,cs,{
"Letterink-NibData" = {
AngleInDegrees = 90;
};
}),
(491,631,o),
(569,582,o),
(566,520,c,{
"Letterink-NibData" = {
AngleInDegrees = 90;
};
}),
(645,520,l,{
"Letterink-NibData" = {
AngleInDegrees = 1.06091;
};
}),
(647,628,o),
(542,707,o),
(396,707,cs,{
"Letterink-NibData" = {
AngleInDegrees = 270;
};
}),
(207,707,o),
(53,538,o),
(53,327,cs,{
"Letterink-NibData" = {
AngleInDegrees = 180;
};
}),
(53,132,o),
(197,-17,o),
(392,-17,cs,{
"Letterink-NibData" = {
AngleInDegrees = 90;
};
})
);
}
);
width = 716;
},
{
anchors = (
{
name = bottom;
pos = (376,-7);
},
{
name = top;
pos = (376,701);
}
);
associatedMasterId = m004;
layerId = "2E6EA62A-4F0C-4C83-906A-4BFA96122663";
name = "5 Jan 22, 07:50";
shapes = (
{
attr = {
strokeHeight = 74;
strokeWidth = 80;
};
closed = 0;
nodes = (
(614,525,ls,{
"Letterink-NibData" = {
AngleInDegrees = 356.63354;
};
}),
(609,610,o),
(516,671,o),
(399,665,cs,{
"Letterink-NibData" = {
AngleInDegrees = 267.02198;
};
}),
(226,656,o),
(94,521,o),
(94,331,cs,{
"Letterink-NibData" = {
AngleInDegrees = 180;
};
}),
(94,148,o),
(224,20,o),
(407,20,cs,{
"Letterink-NibData" = {
AngleInDegrees = 90;
};
}),
(502,20,o),
(593,68,o),
(638,142,c,{
"Letterink-NibData" = {
AngleInDegrees = 31.30412;
};
})
);
}
);
width = 716;
}
);
metricLeft = O;
metricRight = "=O*.95";
userData = {
position = 570;
width = 54;
};
},
{
glyphname = C.swsh;
kernLeft = O;
kernRight = C;
layers = (
{
anchors = (
{
name = bottom;
pos = (389,-8);
},
{
name = top;
pos = (378,691);
}
);
background = {
shapes = (
{
closed = 1;
nodes = (
(573,-25,o),
(719,126,o),
(719,326,cs),
(719,355,ls),
(719,548,o),
(567,702,o),
(377,702,cs,{
"Letterink-NibData" = {
AngleInDegrees = "270";
};
}),
(187,702,o),
(36,548,o),
(36,355,cs,{
"Letterink-NibData" = {
AngleInDegrees = "180";
};
}),
(36,326,ls,{
"Letterink-NibData" = {
AngleInDegrees = "180";
};
}),
(36,126,o),
(180,-19,o),
(381,-22,cs,{
"Letterink-NibData" = {
AngleInDegrees = "90.89517371732774";
};
})
);
},
{
closed = 1;
nodes = (
(230,54,o),
(118,170,o),
(118,326,cs),
(118,355,ls),
(118,504,o),
(232,626,o),
(376,626,cs,{
"Letterink-NibData" = {
AngleInDegrees = "90";
};
}),
(522,626,o),
(637,504,o),
(637,355,cs,{
"Letterink-NibData" = {
AngleInDegrees = "180";
};
}),
(637,326,ls,{
"Letterink-NibData" = {
AngleInDegrees = "180";
};
}),
(637,170,o),
(525,54,o),
(378,54,cs,{
"Letterink-NibData" = {
AngleInDegrees = "270";
};
})
);
}
);
};
layerId = "0CAF3BED-C4AC-4024-B3E1-4C69D1EF7EC0";
shapes = (
{
closed = 1;
nodes = (
(406,496,l),
(421,443,o),
(469,407,o),
(523,407,cs),
(588,407,o),
(634,455,o),
(634,524,cs),
(634,626,o),
(532,700,o),
(390,700,cs),
(185,700,o),
(36,546,o),
(36,335,cs),
(36,128,o),
(183,-22,o),
(387,-22,cs),
(505,-22,o),
(607,31,o),
(660,120,c),
(594,158,l),
(555,91,o),
(481,54,o),
(390,54,cs),
(228,54,o),
(116,169,o),
(116,335,cs),
(116,503,o),
(230,624,o),
(390,624,cs),
(480,624,o),
(554,577,o),
(554,520,cs),
(554,498,o),
(542,483,o),
(524,483,cs),
(504,483,o),
(485,498,o),
(478,518,c)
);
}
);
width = 695;
},
{
anchors = (
{
name = bottom;
pos = (398,-2);
},
{
name = top;
pos = (399,686);
}
);
background = {
shapes = (
{
closed = 1;
nodes = (
(596,-14,o),
(738,131,o),
(738,331,cs),
(738,350,ls),
(738,550,o),
(590,702,o),
(396,702,cs,{
"Letterink-NibData" = {
AngleInDegrees = "270";
};
}),
(202,702,o),
(56,551,o),
(56,350,cs,{
"Letterink-NibData" = {
AngleInDegrees = "180";
};
}),
(56,331,ls,{
"Letterink-NibData" = {
AngleInDegrees = "180";
};
}),
(56,133,o),
(203,-14,o),
(400,-14,cs,{
"Letterink-NibData" = {
AngleInDegrees = "90";
};
})
);
},
{
closed = 1;
nodes = (
(226,24,o),
(98,156,o),
(98,331,cs),
(98,350,ls),
(98,526,o),
(227,662,o),
(395,662,cs,{
"Letterink-NibData" = {
AngleInDegrees = "90";
};
}),
(564,662,o),
(696,526,o),
(696,350,cs,{
"Letterink-NibData" = {
AngleInDegrees = "180";
};
}),
(696,331,ls,{
"Letterink-NibData" = {
AngleInDegrees = "180";
};
}),
(696,156,o),
(567,24,o),
(397,24,cs,{
"Letterink-NibData" = {
AngleInDegrees = "270";
};
})
);
}
);
};
layerId = "49C16FD3-6177-408B-A733-AEB3898BB77C";
shapes = (
{
closed = 1;
nodes = (
(442,509,l),
(455,459,o),
(492,430,o),
(544,430,cs),
(595,430,o),
(635,473,o),
(635,530,cs),
(635,620,o),
(529,694,o),
(399,694,cs),
(199,694,o),
(52,544,o),
(52,341,cs),
(52,137,o),
(198,-11,o),
(401,-11,cs),
(517,-11,o),
(616,40,o),
(667,126,c),
(639,143,l),
(594,67,o),
(507,22,o),
(401,22,cs),
(217,22,o),
(90,153,o),
(90,341,cs),
(90,525,o),
(221,660,o),
(399,660,cs),
(511,660,o),
(602,602,o),
(602,530,cs),
(602,491,o),
(578,464,o),
(544,464,cs),
(508,464,o),
(483,484,o),
(474,518,c)
);
}
);
width = 718;
},
{
anchors = (
{
name = bottom;
pos = (371,0);
},
{
name = top;
pos = (383,684);
}
);
associatedMasterId = "49C16FD3-6177-408B-A733-AEB3898BB77C";
layerId = "3D02E95B-60B1-4244-8F26-D84725EF13C9";
name = "3 Jan 22, 15:07";
shapes = (
{
closed = 1;
nodes = (
(507,-21,o),
(630,33,o),
(680,140,c,{
"Letterink-NibData" = {
AngleInDegrees = 293.55226;
};
}),
(641,157,l,{
"Letterink-NibData" = {
AngleInDegrees = 204.62357;
};
}),
(608,85,o),
(527,18,o),
(390,19,cs,{
"Letterink-NibData" = {
AngleInDegrees = 270.40348;
};
}),
(248,20,o),
(102,149,o),
(102,343,cs),
(102,508,o),
(234,657,o),
(394,657,cs,{
"Letterink-NibData" = {
AngleInDegrees = 90;
};
}),
(475,657,o),
(572,621,o),
(572,548,cs,{
"Letterink-NibData" = {
AngleInDegrees = 180;
};
}),
(572,521,o),
(556,500,o),
(532,500,cs,{
"Letterink-NibData" = {
AngleInDegrees = 270;
};
}),
(519,500,o),
(502,510,o),
(495,523,c,{
"Letterink-NibData" = {
AngleInDegrees = 238.57043;
};
}),
(459,501,l,{
"Letterink-NibData" = {
AngleInDegrees = 149.03624;
};
}),
(477,471,o),
(504,458,o),
(531,458,cs,{
"Letterink-NibData" = {
AngleInDegrees = 90;
};
}),
(573,458,o),
(614,492,o),
(614,546,cs),
(614,639,o),
(506,697,o),
(395,697,cs,{
"Letterink-NibData" = {
AngleInDegrees = 270;
};
}),
(211,697,o),
(60,536,o),
(60,344,cs,{
"Letterink-NibData" = {
AngleInDegrees = 180;
};
}),
(60,159,o),
(191,-21,o),
(391,-21,cs,{
"Letterink-NibData" = {
AngleInDegrees = 90;
};
})
);
}
);
width = 718;
},
{
anchors = (
{
name = bottom;
pos = (378,-9);
},
{
name = top;
pos = (378,703);
}
);
associatedMasterId = "0CAF3BED-C4AC-4024-B3E1-4C69D1EF7EC0";
layerId = "430F94E4-6E0B-477D-BEA9-4D1159DC2E2A";
name = "3 Jan 22, 15:17";
shapes = (
{
closed = 1;
nodes = (
(505,-16,o),
(621,32,o),
(687,139,c,{
"Letterink-NibData" = {
AngleInDegrees = 303.88696;
};
}),
(620,184,l,{
"Letterink-NibData" = {
AngleInDegrees = 210.52971;
};
}),
(574,106,o),
(489,60,o),
(395,60,cs,{
"Letterink-NibData" = {
AngleInDegrees = 270;
};
}),
(243,60,o),
(133,184,o),
(133,337,cs),
(133,493,o),
(251,630,o),
(401,630,cs,{
"Letterink-NibData" = {
AngleInDegrees = 90;
};
}),
(464,630,o),
(558,604,o),
(558,552,cs,{
"Letterink-NibData" = {
AngleInDegrees = 180;
};
}),
(558,539,o),
(548,528,o),
(537,528,cs,{
"Letterink-NibData" = {
AngleInDegrees = 270;
};
}),
(530,528,o),
(520,532,o),
(515,539,c,{
"Letterink-NibData" = {
AngleInDegrees = 218.19868;
};
}),
(467,478,l,{
"Letterink-NibData" = {
AngleInDegrees = 135;
};
}),
(485,460,o),
(513,447,o),
(543,447,cs,{
"Letterink-NibData" = {
AngleInDegrees = 90;
};
}),
(594,447,o),
(638,494,o),
(638,551,cs),
(638,661,o),
(511,706,o),
(400,706,cs,{
"Letterink-NibData" = {
AngleInDegrees = 270;
};
}),
(207,706,o),
(53,536,o),
(53,337,cs,{
"Letterink-NibData" = {
AngleInDegrees = 180;
};
}),
(53,141,o),
(200,-16,o),
(394,-16,cs,{
"Letterink-NibData" = {
AngleInDegrees = 90;
};
})
);
}
);
width = 720;
},
{
anchors = (
{
name = bottom;
pos = (377,0);
},
{
name = top;
pos = (389,684);
}
);
associatedMasterId = "49C16FD3-6177-408B-A733-AEB3898BB77C";
layerId = "BE458C1D-0A4B-40C4-BCF4-9649CDEB98A4";
name = "5 Jan 22, 08:01";
shapes = (
{
attr = {
strokeHeight = 38;
strokeWidth = 42;
};
closed = 0;
nodes = (
(484,527,l,{
"Letterink-NibData" = {
AngleInDegrees = 168.31063;
};
}),
(490,498,o),
(515,478,o),
(549,477,cs,{
"Letterink-NibData" = {
AngleInDegrees = 91.50744;
};
}),
(587,476,o),
(613,516,o),
(613,556,cs),
(613,630,o),
(520,690,o),
(396,684,cs,{
"Letterink-NibData" = {
AngleInDegrees = 267.08916;
};
}),
(219,675,o),
(84,532,o),
(84,330,cs,{
"Letterink-NibData" = {
AngleInDegrees = 180;
};
}),
(84,136,o),
(219,0,o),
(409,0,cs,{
"Letterink-NibData" = {
AngleInDegrees = 90;
};
}),
(507,0,o),
(602,52,o),
(648,130,c,{
"Letterink-NibData" = {
AngleInDegrees = 30.52971;
};
})
);
}
);
width = 724;
},
{
anchors = (
{
name = bottom;
pos = (377,31);
},
{
name = top;
pos = (377,662);
}
);
associatedMasterId = "0CAF3BED-C4AC-4024-B3E1-4C69D1EF7EC0";
layerId = "26DD77D8-93B1-4CFB-A5C5-84AD5242F402";
name = "5 Jan 22, 08:04";
shapes = (
{
attr = {
strokeHeight = 74;
strokeWidth = 80;
};
closed = 0;
nodes = (
(482,519,l,{
"Letterink-NibData" = {
AngleInDegrees = 169.50852;
};
}),
(487,492,o),
(511,472,o),
(540,471,cs,{
"Letterink-NibData" = {
AngleInDegrees = 91.33222;
};
}),
(583,470,o),
(608,508,o),
(608,546,cs),
(608,617,o),
(519,674,o),
(398,669,cs,{
"Letterink-NibData" = {
AngleInDegrees = 267.03906;
};
}),
(224,660,o),
(90,523,o),
(90,334,cs,{
"Letterink-NibData" = {
AngleInDegrees = 180;
};
}),
(90,145,o),
(222,15,o),
(396,15,cs,{
"Letterink-NibData" = {
AngleInDegrees = 90;
};
}),
(501,15,o),
(596,63,o),
(642,140,c,{
"Letterink-NibData" = {
AngleInDegrees = 30.8542;
};
})
);
}
);
width = 720;
},
{
anchors = (
{
name = bottom;
pos = (401,-12);
},
{
name = top;
pos = (396,696);
}
);
background = {
shapes = (
{
closed = 1;
nodes = (
(592,-25,o),
(738,126,o),
(738,326,cs),
(738,355,ls),
(738,548,o),
(586,702,o),
(396,702,cs,{
"Letterink-NibData" = {
AngleInDegrees = "270";
};
}),
(206,702,o),
(55,548,o),
(55,355,cs,{
"Letterink-NibData" = {
AngleInDegrees = "180";
};
}),
(55,326,ls,{
"Letterink-NibData" = {
AngleInDegrees = "180";
};
}),
(55,126,o),
(199,-19,o),
(400,-22,cs,{
"Letterink-NibData" = {
AngleInDegrees = "90.89517371732774";
};
})
);
},
{
closed = 1;
nodes = (
(249,54,o),
(137,170,o),
(137,326,cs),
(137,355,ls),
(137,504,o),
(251,626,o),
(395,626,cs,{
"Letterink-NibData" = {
AngleInDegrees = "90";
};
}),
(541,626,o),
(656,504,o),
(656,355,cs,{
"Letterink-NibData" = {
AngleInDegrees = "180";
};
}),
(656,326,ls,{
"Letterink-NibData" = {
AngleInDegrees = "180";
};
}),
(656,170,o),
(544,54,o),
(397,54,cs,{
"Letterink-NibData" = {
AngleInDegrees = "270";
};
})
);
}
);
};
layerId = m004;
shapes = (
{
closed = 1;
nodes = (
(360,475,l),
(375,407,o),
(438,359,o),
(514,359,cs),
(600,359,o),
(663,422,o),
(663,510,cs),
(663,627,o),
(550,714,o),
(397,714,cs),
(193,714,o),
(40,554,o),
(40,340,cs),
(40,130,o),
(195,-28,o),
(401,-28,cs),
(523,-28,o),
(632,29,o),
(682,121,c),
(555,197,l),
(525,147,o),
(473,120,o),
(405,120,cs),
(284,120,o),
(205,204,o),
(205,332,cs),
(205,469,o),
(288,566,o),
(405,566,cs),
(450,566,o),
(491,552,o),
(507,531,cs),
(516,519,o),
(516,506,o),
(507,503,cs),
(499,500,o),
(490,508,o),
(490,518,c)
);
}
);
width = 721;
},
{
anchors = (
{
name = bottom;
pos = (378,-9);
},
{
name = top;
pos = (378,703);
}
);
associatedMasterId = m004;
layerId = "E1B422B0-C5DA-4EE8-BF30-75EC1E1BD4CA";
name = "3 Jan 22, 15:17";
shapes = (
{
closed = 1;
nodes = (
(505,-16,o),
(621,32,o),
(687,139,c,{
"Letterink-NibData" = {
AngleInDegrees = 303.88696;
};
}),
(620,184,l,{
"Letterink-NibData" = {
AngleInDegrees = 210.52971;
};
}),
(574,106,o),
(489,60,o),
(395,60,cs,{
"Letterink-NibData" = {
AngleInDegrees = 270;
};
}),
(243,60,o),
(133,184,o),
(133,337,cs),
(133,493,o),
(251,630,o),
(401,630,cs,{
"Letterink-NibData" = {
AngleInDegrees = 90;
};
}),
(464,630,o),
(558,604,o),
(558,552,cs,{
"Letterink-NibData" = {
AngleInDegrees = 180;
};
}),
(558,539,o),
(548,528,o),
(537,528,cs,{
"Letterink-NibData" = {
AngleInDegrees = 270;
};
}),
(530,528,o),
(520,532,o),
(515,539,c,{
"Letterink-NibData" = {
AngleInDegrees = 218.19868;
};
}),
(467,478,l,{
"Letterink-NibData" = {
AngleInDegrees = 135;
};
}),
(485,460,o),
(513,447,o),
(543,447,cs,{
"Letterink-NibData" = {
AngleInDegrees = 90;
};
}),
(594,447,o),
(638,494,o),
(638,551,cs),
(638,661,o),
(511,706,o),
(400,706,cs,{
"Letterink-NibData" = {
AngleInDegrees = 270;
};
}),
(207,706,o),
(53,536,o),
(53,337,cs,{
"Letterink-NibData" = {
AngleInDegrees = 180;
};
}),
(53,141,o),
(200,-16,o),
(394,-16,cs,{
"Letterink-NibData" = {
AngleInDegrees = 90;
};
})
);
}
);
width = 720;
},
{
anchors = (
{
name = bottom;
pos = (377,31);
},
{
name = top;
pos = (377,662);
}
);
associatedMasterId = m004;
layerId = "4CF65D10-8B5F-49BE-AA91-F2DD426CB74F";
name = "5 Jan 22, 08:04";
shapes = (
{
attr = {
strokeHeight = 74;
strokeWidth = 80;
};
closed = 0;
nodes = (
(482,519,l,{
"Letterink-NibData" = {
AngleInDegrees = 169.50852;
};
}),
(487,492,o),
(511,472,o),
(540,471,cs,{
"Letterink-NibData" = {
AngleInDegrees = 91.33222;
};
}),
(583,470,o),
(608,508,o),
(608,546,cs),
(608,617,o),
(519,674,o),
(398,669,cs,{
"Letterink-NibData" = {
AngleInDegrees = 267.03906;
};
}),
(224,660,o),
(90,523,o),
(90,334,cs,{
"Letterink-NibData" = {
AngleInDegrees = 180;
};
}),
(90,145,o),
(222,15,o),
(396,15,cs,{
"Letterink-NibData" = {
AngleInDegrees = 90;
};
}),
(501,15,o),
(596,63,o),
(642,140,c,{
"Letterink-NibData" = {
AngleInDegrees = 30.8542;
};
})
);
}
);
width = 720;
}
);
metricLeft = O;
metricRight = "=O*.98";
userData = {
position = 570;
width = 54;
};
},
{
glyphname = D;
kernLeft = E;
kernRight = O;
layers = (
{
anchors = (
{
name = bottom;
pos = (347,-10);
},
{
name = center;
pos = (202,367);
},
{
name = top;
pos = (377,684);
}
);
hints = (
{
name = _corner.caps_left;
origin = (0,7);
type = Corner;
}
);
layerId = "0CAF3BED-C4AC-4024-B3E1-4C69D1EF7EC0";
shapes = (
{
closed = 1;
nodes = (
(347,-10,cs,{
"Letterink-NibData" = {
AngleInDegrees = 90;
};
}),
(551,-10,o),
(695,136,o),
(695,342,cs),
(695,535,o),
(568,672,o),
(377,684,c,{
"Letterink-NibData" = {
AngleInDegrees = 270.21459;
};
}),
(120,685,l,{
"Letterink-NibData" = {
AngleInDegrees = 180;
};
}),
(120,608,l,{
"Letterink-NibData" = {
AngleInDegrees = 90;
};
}),
(366,608,l,{
"Letterink-NibData" = {
AngleInDegrees = 92.97373;
};
}),
(523,600,o),
(613,501,o),
(613,339,cs,{
"Letterink-NibData" = {
AngleInDegrees = 180;
};
}),
(613,163,o),
(507,65,o),
(315,65,cs,{
"Letterink-NibData" = {
AngleInDegrees = 270;
};
}),
(284,65,o),
(244,67,o),
(202,70,c),
(202,651,l,{
"Letterink-NibData" = {
AngleInDegrees = 270;
};
}),
(120,651,l,{
"Letterink-NibData" = {
AngleInDegrees = 180;
};
}),
(120,1,l,{
"Letterink-NibData" = {
AngleInDegrees = 95.10217;
};
}),
(176,-4,ls,{
"Letterink-NibData" = {
AngleInDegrees = 95.12819;
};
}),
(242,-10,o),
(265,-10,o)
);
}
);
width = 731;
},
{
anchors = (
{
name = bottom;
pos = (308,-9);
},
{
name = center;
pos = (154,358);
},
{
name = top;
pos = (325,685);
}
);
hints = (
{
name = _corner.caps_left;
origin = (0,7);
type = Corner;
}
);
layerId = "49C16FD3-6177-408B-A733-AEB3898BB77C";
shapes = (
{
closed = 1;
nodes = (
(344,-9,cs,{
"Letterink-NibData" = {
AngleInDegrees = 90;
};
}),
(547,-9,o),
(681,131,o),
(681,342,cs),
(681,541,o),
(557,672,o),
(364,684,c,{
"Letterink-NibData" = {
AngleInDegrees = 270.22037;
};
}),
(115,685,l,{
"Letterink-NibData" = {
AngleInDegrees = 180;
};
}),
(115,649,l,{
"Letterink-NibData" = {
AngleInDegrees = 90;
};
}),
(355,649,l,{
"Letterink-NibData" = {
AngleInDegrees = 93.25195;
};
}),
(534,639,o),
(642,525,o),
(642,339,cs,{
"Letterink-NibData" = {
AngleInDegrees = 180;
};
}),
(642,141,o),
(528,26,o),
(322,26,cs,{
"Letterink-NibData" = {
AngleInDegrees = 270;
};
}),
(257,26,o),
(170,29,o),
(153,31,c),
(153,649,l,{
"Letterink-NibData" = {
AngleInDegrees = 270;
};
}),
(115,649,l,{
"Letterink-NibData" = {
AngleInDegrees = 180;
};
}),
(115,0,l,{
"Letterink-NibData" = {
AngleInDegrees = 94.18492;
};
}),
(154,-3,ls,{
"Letterink-NibData" = {
AngleInDegrees = 94.20536;
};
}),
(221,-8,o),
(265,-9,o)
);
}
);
width = 733;
},
{
anchors = (
{
name = bottom;
pos = (421,-2);
},
{
name = center;
pos = (255,353);
},
{
name = top;
pos = (439,684);
}
);
hints = (
{
name = _corner.caps_left;
origin = (0,7);
type = Corner;
}
);
layerId = m004;
shapes = (
{
closed = 1;
nodes = (
(390,-10,cs,{
"Letterink-NibData" = {
AngleInDegrees = "90";
};
}),
(606,-14,o),
(761,135,o),
(761,346,cs),
(761,531,o),
(626,672,o),
(439,684,c,{
"Letterink-NibData" = {
AngleInDegrees = "270.21459";
};
}),
(167,685,l,{
"Letterink-NibData" = {
AngleInDegrees = "180";
};
}),
(167,532,l,{
"Letterink-NibData" = {
AngleInDegrees = "90";
};
}),
(424,532,l,{
"Letterink-NibData" = {
AngleInDegrees = "92.97373";
};
}),
(535,528,o),
(596,461,o),
(596,343,cs,{
"Letterink-NibData" = {
AngleInDegrees = "180";
};
}),
(596,217,o),
(524,141,o),
(405,141,cs,{
"Letterink-NibData" = {
AngleInDegrees = "270";
};
}),
(374,141,o),
(356,142,o),
(332,146,c),
(332,655,l,{
"Letterink-NibData" = {
AngleInDegrees = "270";
};
}),
(167,655,l,{
"Letterink-NibData" = {
AngleInDegrees = "180";
};
}),
(167,5,l,{
"Letterink-NibData" = {
AngleInDegrees = "95.10217";
};
}),
(237,-3,ls,{
"Letterink-NibData" = {
AngleInDegrees = "95.12819";
};
}),
(277,-8,o),
(310,-9,o)
);
}
);
width = 801;
}
);
metricLeft = E;
metricRight = O;
unicode = 68;
userData = {
position = 674;
width = 60;
};
},
{
glyphname = D.ss01;
kernLeft = L;
kernRight = O;
layers = (
{
anchors = (
{
name = bottom;
pos = (311,-10);
},
{
name = center;
pos = (166,367);
},
{
name = top;
pos = (298,681);
}
);
layerId = "0CAF3BED-C4AC-4024-B3E1-4C69D1EF7EC0";
shapes = (
{
closed = 1;
nodes = (
(311,-10,cs,{
"Letterink-NibData" = {
AngleInDegrees = 90;
};
}),
(515,-10,o),
(659,136,o),
(659,342,cs),
(659,535,o),
(532,672,o),
(341,684,c,{
"Letterink-NibData" = {
AngleInDegrees = 270.21459;
};
}),
(84,685,l,{
"Letterink-NibData" = {
AngleInDegrees = 180;
};
}),
(84,608,l,{
"Letterink-NibData" = {
AngleInDegrees = 90;
};
}),
(330,608,l,{
"Letterink-NibData" = {
AngleInDegrees = 92.97373;
};
}),
(487,600,o),
(577,501,o),
(577,339,cs,{
"Letterink-NibData" = {
AngleInDegrees = 180;
};
}),
(577,163,o),
(471,65,o),
(279,65,cs,{
"Letterink-NibData" = {
AngleInDegrees = 270;
};
}),
(248,65,o),
(208,67,o),
(166,70,c),
(166,651,l,{
"Letterink-NibData" = {
AngleInDegrees = 270;
};
}),
(84,651,l,{
"Letterink-NibData" = {
AngleInDegrees = 180;
};
}),
(84,1,l,{
"Letterink-NibData" = {
AngleInDegrees = 95.10217;
};
}),
(140,-4,ls,{
"Letterink-NibData" = {
AngleInDegrees = 95.12819;
};
}),
(206,-10,o),
(208,-10,o)
);
}
);
width = 695;
},
{
anchors = (
{
name = bottom;
pos = (256,-11);
},
{
name = center;
pos = (130,358);
},
{
name = top;
pos = (366,690);
}
);
layerId = "49C16FD3-6177-408B-A733-AEB3898BB77C";
shapes = (
{
closed = 1;
nodes = (
(321,-9,cs,{
"Letterink-NibData" = {
AngleInDegrees = 90;
};
}),
(524,-9,o),
(658,131,o),
(658,342,cs),
(658,541,o),
(534,672,o),
(341,684,c,{
"Letterink-NibData" = {
AngleInDegrees = 270.22037;
};
}),
(92,685,l,{
"Letterink-NibData" = {
AngleInDegrees = 180;
};
}),
(92,649,l,{
"Letterink-NibData" = {
AngleInDegrees = 90;
};
}),
(332,649,l,{
"Letterink-NibData" = {
AngleInDegrees = 93.25195;
};
}),
(511,639,o),
(619,525,o),
(619,339,cs,{
"Letterink-NibData" = {
AngleInDegrees = 180;
};
}),
(619,141,o),
(505,26,o),
(299,26,cs,{
"Letterink-NibData" = {
AngleInDegrees = 270;
};
}),
(234,26,o),
(147,29,o),
(130,31,c),
(130,649,l,{
"Letterink-NibData" = {
AngleInDegrees = 270;
};
}),
(92,649,l,{
"Letterink-NibData" = {
AngleInDegrees = 180;
};
}),
(92,0,l,{
"Letterink-NibData" = {
AngleInDegrees = 94.18492;
};
}),
(131,-3,ls,{
"Letterink-NibData" = {
AngleInDegrees = 94.20536;
};
}),
(198,-8,o),
(242,-9,o)
);
}
);
width = 710;
},
{
anchors = (
{
name = bottom;
pos = (301,-10);
},
{
name = center;
pos = (193,360);
},
{
name = top;
pos = (317,685);
}
);
layerId = m004;
shapes = (
{
closed = 1;
nodes = (
(301,-10,cs,{
"Letterink-NibData" = {
AngleInDegrees = "90";
};
}),
(534,-14,o),
(672,151,o),
(672,346,cs),
(672,523,o),
(545,672,o),
(350,684,c,{
"Letterink-NibData" = {
AngleInDegrees = "270.21459";
};
}),
(78,685,l,{
"Letterink-NibData" = {
AngleInDegrees = "180";
};
}),
(78,532,l,{
"Letterink-NibData" = {
AngleInDegrees = "90";
};
}),
(335,532,l,{
"Letterink-NibData" = {
AngleInDegrees = "92.97373";
};
}),
(458,528,o),
(507,448,o),
(507,343,cs,{
"Letterink-NibData" = {
AngleInDegrees = "180";
};
}),
(507,212,o),
(431,141,o),
(316,141,cs,{
"Letterink-NibData" = {
AngleInDegrees = "270";
};
}),
(295,141,o),
(268,141,o),
(243,146,c),
(243,655,l,{
"Letterink-NibData" = {
AngleInDegrees = "270";
};
}),
(78,655,l,{
"Letterink-NibData" = {
AngleInDegrees = "180";
};
}),
(78,5,l,{
"Letterink-NibData" = {
AngleInDegrees = "95.10217";
};
}),
(168,-4,ls,{
"Letterink-NibData" = {
AngleInDegrees = "95.12819";
};
}),
(171,-4,o),
(175,-8,o)
);
}
);
width = 712;
}
);
metricLeft = "=|H";
metricRight = O;
userData = {
position = 674;
width = 60;
};
},
{
glyphname = D.swsh;
kernLeft = Swash;
kernRight = O;
layers = (
{
background = {
anchors = (
{
name = bottom;
pos = (370,0);
},
{
name = center;
pos = (395,11);
},
{
name = top;
pos = (395,11);
}
);
hints = (
{
name = _corner.caps_swash;
origin = (0,7);
type = Corner;
}
);
shapes = (
{
closed = 1;
nodes = (
(334,-10,ls,{
"Letterink-NibData" = {
AngleInDegrees = 90;
};
}),
(538,-10,o),
(683,138,o),
(683,342,cs),
(683,532,o),
(556,678,o),
(364,690,c,{
"Letterink-NibData" = {
AngleInDegrees = 270.20033;
};
}),
(108,691,l,{
"Letterink-NibData" = {
AngleInDegrees = 180;
};
}),
(108,615,l,{
"Letterink-NibData" = {
AngleInDegrees = 90;
};
}),
(353,615,l,{
"Letterink-NibData" = {
AngleInDegrees = 93.55173;
};
}),
(498,606,o),
(601,517,o),
(601,342,cs,{
"Letterink-NibData" = {
AngleInDegrees = 180;
};
}),
(601,175,o),
(508,66,o),
(296,66,cs,{
"Letterink-NibData" = {
AngleInDegrees = 270;
};
}),
(269,66,o),
(243,69,o),
(209,71,c),
(209,559,l,{
"Letterink-NibData" = {
AngleInDegrees = 270;
};
}),
(127,559,l,{
"Letterink-NibData" = {
AngleInDegrees = 180;
};
}),
(127,1,l,{
"Letterink-NibData" = {
AngleInDegrees = 95.01311;
};
}),
(184,-4,ls,{
"Letterink-NibData" = {
AngleInDegrees = 94.93922;
};
}),
(253,-10,o),
(252,-10,o),
(294,-10,cs,{
"Letterink-NibData" = {
AngleInDegrees = 90;
};
})
);
}
);
};
hints = (
{
name = _corner.caps_swash;
origin = (0,7);
type = Corner;
}
);
layerId = "0CAF3BED-C4AC-4024-B3E1-4C69D1EF7EC0";
shapes = (
{
closed = 1;
nodes = (
(353,-10,cs,{
"Letterink-NibData" = {
AngleInDegrees = "90";
};
}),
(557,-10,o),
(701,136,o),
(701,342,cs),
(701,535,o),
(574,672,o),
(383,684,c,{
"Letterink-NibData" = {
AngleInDegrees = "270.21459";
};
}),
(126,685,l,{
"Letterink-NibData" = {
AngleInDegrees = "180";
};
}),
(126,608,l,{
"Letterink-NibData" = {
AngleInDegrees = "90";
};
}),
(372,608,l,{
"Letterink-NibData" = {
AngleInDegrees = "92.97373";
};
}),
(529,600,o),
(619,501,o),
(619,339,cs,{
"Letterink-NibData" = {
AngleInDegrees = "180";
};
}),
(619,163,o),
(513,65,o),
(321,65,cs,{
"Letterink-NibData" = {
AngleInDegrees = "270";
};
}),
(290,65,o),
(250,67,o),
(208,70,c),
(208,560,l,{
"Letterink-NibData" = {
AngleInDegrees = "270";
};
}),
(126,560,l,{
"Letterink-NibData" = {
AngleInDegrees = "180";
};
}),
(126,1,l,{
"Letterink-NibData" = {
AngleInDegrees = "95.10217";
};
}),
(182,-4,ls,{
"Letterink-NibData" = {
AngleInDegrees = "95.12819";
};
}),
(248,-10,o),
(250,-10,o)
);
}
);
width = 737;
},
{
background = {
anchors = (
{
name = bottom;
pos = (361,0);
},
{
name = center;
pos = (379,-8);
},
{
name = top;
pos = (379,-8);
}
);
hints = (
{
name = _corner.caps_swash;
origin = (0,7);
type = Corner;
}
);
shapes = (
{
closed = 1;
nodes = (
(328,-9,ls,{
"Letterink-NibData" = {
AngleInDegrees = 90;
};
}),
(516,-9,o),
(665,122,o),
(665,342,cs),
(665,535,o),
(550,690,o),
(348,690,c,{
"Letterink-NibData" = {
AngleInDegrees = 270.19689;
};
}),
(87,691,l,{
"Letterink-NibData" = {
AngleInDegrees = 180;
};
}),
(87,651,l,{
"Letterink-NibData" = {
AngleInDegrees = 90;
};
}),
(338,651,l,{
"Letterink-NibData" = {
AngleInDegrees = 90;
};
}),
(501,651,o),
(623,535,o),
(623,349,cs,{
"Letterink-NibData" = {
AngleInDegrees = 180;
};
}),
(623,161,o),
(514,30,o),
(300,30,cs,{
"Letterink-NibData" = {
AngleInDegrees = 270;
};
}),
(277,30,o),
(221,32,o),
(159,35,c),
(159,573,l,{
"Letterink-NibData" = {
AngleInDegrees = 270;
};
}),
(117,573,l,{
"Letterink-NibData" = {
AngleInDegrees = 180;
};
}),
(117,0,l,{
"Letterink-NibData" = {
AngleInDegrees = 94.28915;
};
}),
(157,-3,ls,{
"Letterink-NibData" = {
AngleInDegrees = 93.66779;
};
}),
(236,-9,o),
(245,-9,o),
(284,-9,cs,{
"Letterink-NibData" = {
AngleInDegrees = 90;
};
})
);
}
);
};
hints = (
{
name = _corner.caps_swash;
origin = (0,7);
type = Corner;
}
);
layerId = "49C16FD3-6177-408B-A733-AEB3898BB77C";
shapes = (
{
closed = 1;
nodes = (
(345,-9,cs,{
"Letterink-NibData" = {
AngleInDegrees = "90";
};
}),
(548,-9,o),
(682,131,o),
(682,342,cs),
(682,541,o),
(558,672,o),
(365,684,c,{
"Letterink-NibData" = {
AngleInDegrees = "270.22037";
};
}),
(116,685,l,{
"Letterink-NibData" = {
AngleInDegrees = "180";
};
}),
(116,649,l,{
"Letterink-NibData" = {
AngleInDegrees = "90";
};
}),
(356,649,l,{
"Letterink-NibData" = {
AngleInDegrees = "93.25194999999999";
};
}),
(535,639,o),
(643,524,o),
(643,339,cs,{
"Letterink-NibData" = {
AngleInDegrees = "180";
};
}),
(643,141,o),
(529,26,o),
(323,26,cs,{
"Letterink-NibData" = {
AngleInDegrees = "270";
};
}),
(258,26,o),
(171,29,o),
(154,31,c),
(154,569,l,{
"Letterink-NibData" = {
AngleInDegrees = "270";
};
}),
(116,569,l,{
"Letterink-NibData" = {
AngleInDegrees = "180";
};
}),
(116,0,l,{
"Letterink-NibData" = {
AngleInDegrees = "94.18492000000001";
};
}),
(155,-3,ls,{
"Letterink-NibData" = {
AngleInDegrees = "94.20536";
};
}),
(222,-8,o),
(266,-9,o)
);
}
);
width = 734;
},
{
background = {
anchors = (
{
name = bottom;
pos = (445,0);
},
{
name = center;
pos = (470,11);
},
{
name = top;
pos = (470,11);
}
);
hints = (
{
name = _corner.caps_swash;
origin = (0,7);
type = Corner;
}
);
shapes = (
{
closed = 1;
nodes = (
(409,-10,ls,{
"Letterink-NibData" = {
AngleInDegrees = 90;
};
}),
(613,-10,o),
(758,138,o),
(758,342,cs),
(758,532,o),
(631,678,o),
(439,690,c,{
"Letterink-NibData" = {
AngleInDegrees = 270.20033;
};
}),
(183,691,l,{
"Letterink-NibData" = {
AngleInDegrees = 180;
};
}),
(183,615,l,{
"Letterink-NibData" = {
AngleInDegrees = 90;
};
}),
(428,615,l,{
"Letterink-NibData" = {
AngleInDegrees = 93.55173;
};
}),
(573,606,o),
(676,517,o),
(676,342,cs,{
"Letterink-NibData" = {
AngleInDegrees = 180;
};
}),
(676,175,o),
(583,66,o),
(371,66,cs,{
"Letterink-NibData" = {
AngleInDegrees = 270;
};
}),
(344,66,o),
(318,69,o),
(284,71,c),
(284,559,l,{
"Letterink-NibData" = {
AngleInDegrees = 270;
};
}),
(202,559,l,{
"Letterink-NibData" = {
AngleInDegrees = 180;
};
}),
(202,1,l,{
"Letterink-NibData" = {
AngleInDegrees = 95.01311;
};
}),
(259,-4,ls,{
"Letterink-NibData" = {
AngleInDegrees = 94.93922;
};
}),
(328,-10,o),
(327,-10,o),
(369,-10,cs,{
"Letterink-NibData" = {
AngleInDegrees = 90;
};
})
);
}
);
};
hints = (
{
name = _corner.caps_swash;
origin = (0,7);
type = Corner;
}
);
layerId = m004;
shapes = (
{
closed = 1;
nodes = (
(372,-10,cs,{
"Letterink-NibData" = {
AngleInDegrees = "90";
};
}),
(630,-10,o),
(768,151,o),
(768,341,cs),
(768,523,o),
(641,672,o),
(446,684,c,{
"Letterink-NibData" = {
AngleInDegrees = "270.21459";
};
}),
(174,685,l,{
"Letterink-NibData" = {
AngleInDegrees = "180";
};
}),
(174,534,l,{
"Letterink-NibData" = {
AngleInDegrees = "90";
};
}),
(431,534,l,{
"Letterink-NibData" = {
AngleInDegrees = "92.97373";
};
}),
(554,530,o),
(603,448,o),
(603,346,cs,{
"Letterink-NibData" = {
AngleInDegrees = "180";
};
}),
(603,212,o),
(519,141,o),
(409,141,cs,{
"Letterink-NibData" = {
AngleInDegrees = "270";
};
}),
(391,141,o),
(362,143,o),
(339,146,c),
(339,499,l,{
"Letterink-NibData" = {
AngleInDegrees = "270";
};
}),
(174,499,l,{
"Letterink-NibData" = {
AngleInDegrees = "180";
};
}),
(174,5,l,{
"Letterink-NibData" = {
AngleInDegrees = "95.10217";
};
}),
(264,-4,ls,{
"Letterink-NibData" = {
AngleInDegrees = "95.12819";
};
}),
(298,-8,o),
(343,-10,o)
);
}
);
width = 808;
}
);
metricLeft = E;
metricRight = O;
userData = {
position = 674;
width = 60;
};
},
{
glyphname = E;
kernLeft = E;
kernRight = E;
layers = (
{
anchors = (
{
name = bottom;
pos = (378,2);
},
{
name = ogonek;
pos = (612,-1);
},
{
name = top;
pos = (359,684);
},
{
name = topleft;
pos = (48,684);
}
);
hints = (
{
name = _corner.caps_left;
origin = (0,10);
type = Corner;
}
);
layerId = "0CAF3BED-C4AC-4024-B3E1-4C69D1EF7EC0";
shapes = (
{
closed = 1;
nodes = (
(589,-1,l),
(589,75,l,{
"Letterink-NibData" = {
AngleInDegrees = "270";
};
}),
(202,75,l),
(202,323,l,{
"Letterink-NibData" = {
AngleInDegrees = "90";
};
}),
(473,323,l),
(473,399,l,{
"Letterink-NibData" = {
AngleInDegrees = "270";
};
}),
(202,399,l),
(202,608,l,{
"Letterink-NibData" = {
AngleInDegrees = "90";
};
}),
(570,608,l),
(570,684,l,{
"Letterink-NibData" = {
AngleInDegrees = "270";
};
}),
(120,684,l,{
"Letterink-NibData" = {
AngleInDegrees = "180";
};
}),
(120,-1,l,{
"Letterink-NibData" = {
AngleInDegrees = "90";
};
})
);
}
);
width = 622;
},
{
anchors = (
{
name = bottom;
pos = (329,0);
},
{
name = ogonek;
pos = (548,1);
},
{
name = top;
pos = (336,684);
},
{
name = topleft;
pos = (22,684);
}
);
hints = (
{
name = _corner.caps_left;
origin = (0,10);
type = Corner;
}
);
layerId = "49C16FD3-6177-408B-A733-AEB3898BB77C";
shapes = (
{
closed = 1;
nodes = (
(549,0,l),
(549,36,l,{
"Letterink-NibData" = {
AngleInDegrees = 270;
};
}),
(163,36,l),
(163,346,l,{
"Letterink-NibData" = {
AngleInDegrees = 90;
};
}),
(426,346,l),
(426,382,l,{
"Letterink-NibData" = {
AngleInDegrees = 270;
};
}),
(163,382,l),
(163,649,l,{
"Letterink-NibData" = {
AngleInDegrees = 90;
};
}),
(551,649,l),
(551,685,l,{
"Letterink-NibData" = {
AngleInDegrees = 269.86613;
};
}),
(125,684,l,{
"Letterink-NibData" = {
AngleInDegrees = 180;
};
}),
(125,0,l,{
"Letterink-NibData" = {
AngleInDegrees = 90;
};
})
);
}
);
width = 586;
},
{
anchors = (
{
name = bottom;
pos = (426,0);
},
{
name = ogonek;
pos = (669,-5);
},
{
name = top;
pos = (428,684);
},
{
name = topleft;
pos = (167,684);
}
);
hints = (
{
name = _corner.caps_left;
origin = (0,10);
type = Corner;
}
);
layerId = m004;
shapes = (
{
closed = 1;
nodes = (
(669,0,l),
(669,148,l,{
"Letterink-NibData" = {
AngleInDegrees = "270";
};
}),
(333,148,l),
(333,273,l,{
"Letterink-NibData" = {
AngleInDegrees = "90";
};
}),
(573,273,l),
(573,421,l,{
"Letterink-NibData" = {
AngleInDegrees = "270";
};
}),
(333,421,l),
(333,536,l,{
"Letterink-NibData" = {
AngleInDegrees = "90";
};
}),
(659,536,l),
(659,684,l,{
"Letterink-NibData" = {
AngleInDegrees = "270";
};
}),
(167,684,l,{
"Letterink-NibData" = {
AngleInDegrees = "180";
};
}),
(167,0,l,{
"Letterink-NibData" = {
AngleInDegrees = "90";
};
})
);
}
);
width = 738;
}
);
metricLeft = H;
unicode = 69;
userData = {
position = 130;
width = 61;
};
},
{
glyphname = E.ss01;
kernLeft = L;
kernRight = E;
layers = (
{
anchors = (
{
name = bottom;
pos = (322,0);
},
{
name = ogonek;
pos = (553,-1);
},
{
name = top;
pos = (324,685);
},
{
name = topleft;
pos = (20,684);
}
);
layerId = "0CAF3BED-C4AC-4024-B3E1-4C69D1EF7EC0";
shapes = (
{
closed = 1;
nodes = (
(553,-1,l),
(553,75,l,{
"Letterink-NibData" = {
AngleInDegrees = 270;
};
}),
(166,75,l),
(166,323,l,{
"Letterink-NibData" = {
AngleInDegrees = 90;
};
}),
(437,323,l),
(437,399,l,{
"Letterink-NibData" = {
AngleInDegrees = 270;
};
}),
(166,399,l),
(166,608,l,{
"Letterink-NibData" = {
AngleInDegrees = 90;
};
}),
(534,608,l),
(534,684,l,{
"Letterink-NibData" = {
AngleInDegrees = 270;
};
}),
(84,684,l,{
"Letterink-NibData" = {
AngleInDegrees = 180;
};
}),
(84,-1,l,{
"Letterink-NibData" = {
AngleInDegrees = 90;
};
})
);
}
);
width = 556;
},
{
anchors = (
{
name = bottom;
pos = (321,2);
},
{
name = ogonek;
pos = (543,1);
},
{
name = top;
pos = (319,684);
},
{
name = topleft;
pos = (27,684);
}
);
layerId = "49C16FD3-6177-408B-A733-AEB3898BB77C";
shapes = (
{
closed = 1;
nodes = (
(543,0,l),
(543,36,l,{
"Letterink-NibData" = {
AngleInDegrees = 270;
};
}),
(131,36,l),
(131,346,l,{
"Letterink-NibData" = {
AngleInDegrees = 90;
};
}),
(420,346,l),
(420,382,l,{
"Letterink-NibData" = {
AngleInDegrees = 270;
};
}),
(131,382,l),
(131,649,l,{
"Letterink-NibData" = {
AngleInDegrees = 90;
};
}),
(523,649,l),
(523,685,l,{
"Letterink-NibData" = {
AngleInDegrees = 270;
};
}),
(92,685,l,{
"Letterink-NibData" = {
AngleInDegrees = 180;
};
}),
(92,0,l,{
"Letterink-NibData" = {
AngleInDegrees = 90;
};
})
);
}
);
width = 565;
},
{
anchors = (
{
name = bottom;
pos = (335,0);
},
{
name = ogonek;
pos = (579,-5);
},
{
name = top;
pos = (322,687);
},
{
name = topleft;
pos = (78,684);
}
);
layerId = m004;
shapes = (
{
closed = 1;
nodes = (
(580,0,l),
(580,148,l,{
"Letterink-NibData" = {
AngleInDegrees = 270;
};
}),
(244,148,l),
(244,273,l,{
"Letterink-NibData" = {
AngleInDegrees = 90;
};
}),
(484,273,l),
(484,421,l,{
"Letterink-NibData" = {
AngleInDegrees = 270;
};
}),
(244,421,l),
(244,536,l,{
"Letterink-NibData" = {
AngleInDegrees = 90;
};
}),
(570,536,l),
(570,684,l,{
"Letterink-NibData" = {
AngleInDegrees = 270;
};
}),
(78,684,l,{
"Letterink-NibData" = {
AngleInDegrees = 180;
};
}),
(78,0,l,{
"Letterink-NibData" = {
AngleInDegrees = 90;
};
})
);
}
);
width = 585;
}
);
metricLeft = N.ss01;
userData = {
position = 95;
width = 61;
};
},
{
glyphname = E.swsh;
kernLeft = Swash;
kernRight = E;
layers = (
{
anchors = (
{
name = bottom;
pos = (400,0);
},
{
name = ogonek;
pos = (618,0);
},
{
name = top;
pos = (394,684);
},
{
name = topleft;
pos = (2,684);
}
);
hints = (
{
name = _corner.caps_swash;
origin = (1,3);
type = Corner;
}
);
layerId = "0CAF3BED-C4AC-4024-B3E1-4C69D1EF7EC0";
shapes = (
{
closed = 1;
nodes = (
(618,0,l),
(618,76,l,{
"Letterink-NibData" = {
AngleInDegrees = 270;
};
}),
(252,76,l),
(252,325,l,{
"Letterink-NibData" = {
AngleInDegrees = 90;
};
}),
(502,325,l),
(502,401,l,{
"Letterink-NibData" = {
AngleInDegrees = 270;
};
}),
(252,401,l),
(252,559,l,{
"Letterink-NibData" = {
AngleInDegrees = 270;
};
}),
(170,559,l,{
"Letterink-NibData" = {
AngleInDegrees = 180;
};
}),
(170,0,l,{
"Letterink-NibData" = {
AngleInDegrees = 90;
};
})
);
},
{
closed = 1;
nodes = (
(145,609,l,{
"Letterink-NibData" = {
AngleInDegrees = 90;
};
}),
(618,609,l),
(618,685,l,{
"Letterink-NibData" = {
AngleInDegrees = 270;
};
}),
(145,685,l,{
"Letterink-NibData" = {
AngleInDegrees = 180;
};
})
);
}
);
width = 628;
},
{
anchors = (
{
name = bottom;
pos = (404,0);
},
{
name = ogonek;
pos = (612,0);
},
{
name = top;
pos = (394,684);
},
{
name = topleft;
pos = (-2,684);
}
);
hints = (
{
name = _corner.caps_swash;
origin = (1,3);
type = Corner;
}
);
layerId = "49C16FD3-6177-408B-A733-AEB3898BB77C";
shapes = (
{
closed = 1;
nodes = (
(612,0,l),
(612,36,l,{
"Letterink-NibData" = {
AngleInDegrees = 270;
};
}),
(220,36,l),
(220,346,l,{
"Letterink-NibData" = {
AngleInDegrees = 90;
};
}),
(488,346,l),
(488,382,l,{
"Letterink-NibData" = {
AngleInDegrees = 270;
};
}),
(220,382,l),
(220,570,l,{
"Letterink-NibData" = {
AngleInDegrees = 270;
};
}),
(183,570,l,{
"Letterink-NibData" = {
AngleInDegrees = 180;
};
}),
(183,0,l,{
"Letterink-NibData" = {
AngleInDegrees = 90;
};
})
);
},
{
closed = 1;
nodes = (
(149,648,l,{
"Letterink-NibData" = {
AngleInDegrees = 90;
};
}),
(612,648,l),
(612,684,l,{
"Letterink-NibData" = {
AngleInDegrees = 270;
};
}),
(149,684,l,{
"Letterink-NibData" = {
AngleInDegrees = 180;
};
})
);
}
);
width = 639;
},
{
anchors = (
{
name = bottom;
pos = (449,0);
},
{
name = ogonek;
pos = (700,-5);
},
{
name = top;
pos = (448,684);
},
{
name = topleft;
pos = (-11,728);
}
);
hints = (
{
name = _corner.caps_swash;
origin = (1,3);
type = Corner;
}
);
layerId = m004;
shapes = (
{
closed = 1;
nodes = (
(700,0,l),
(700,148,l,{
"Letterink-NibData" = {
AngleInDegrees = "270";
};
}),
(364,148,l),
(364,276,l,{
"Letterink-NibData" = {
AngleInDegrees = "90";
};
}),
(604,276,l),
(604,424,l,{
"Letterink-NibData" = {
AngleInDegrees = "270";
};
}),
(364,424,l),
(364,501,l,{
"Letterink-NibData" = {
AngleInDegrees = "90";
};
}),
(198,500,l,{
"Letterink-NibData" = {
AngleInDegrees = "180";
};
}),
(198,0,l,{
"Letterink-NibData" = {
AngleInDegrees = "90";
};
})
);
},
{
closed = 1;
nodes = (
(198,536,l),
(690,536,l),
(690,684,l,{
"Letterink-NibData" = {
AngleInDegrees = "270";
};
}),
(198,684,l,{
"Letterink-NibData" = {
AngleInDegrees = "180";
};
})
);
}
);
width = 717;
}
);
userData = {
position = 130;
width = 61;
};
},
{
glyphname = Schwa;
kernLeft = O;
kernRight = O;
layers = (
{
anchors = (
{
name = bottom;
pos = (341,-14);
},
{
name = ogonek;
pos = (562,85);
},
{
name = top;
pos = (342,701);
}
);
layerId = "49C16FD3-6177-408B-A733-AEB3898BB77C";
shapes = (
{
closed = 1;
nodes = (
(256,701,o),
(174,679,o),
(103,630,c,{
"Letterink-NibData" = {
AngleInDegrees = 328.49573;
};
}),
(119,604,l,{
"Letterink-NibData" = {
AngleInDegrees = 241.38954;
};
}),
(197,648,o),
(257,668,o),
(332,668,cs,{
"Letterink-NibData" = {
AngleInDegrees = 270;
};
}),
(589,668,o),
(612,442,o),
(612,359,cs),
(612,168,o),
(504,16,o),
(339,16,cs,{
"Letterink-NibData" = {
AngleInDegrees = 90;
};
}),
(216,16,o),
(112,121,o),
(112,267,cs,{
"Letterink-NibData" = {
AngleInDegrees = 180;
};
}),
(112,278,o),
(113,315,o),
(120,351,c,{
"Letterink-NibData" = {
AngleInDegrees = 90;
};
}),
(81,351,l,{
"Letterink-NibData" = {
AngleInDegrees = 4.96974;
};
}),
(78,316,o),
(76,291,o),
(76,270,cs),
(76,99,o),
(184,-12,o),
(341,-14,cs,{
"Letterink-NibData" = {
AngleInDegrees = 270.42128;
};
}),
(521,-16,o),
(647,128,o),
(647,365,cs,{
"Letterink-NibData" = {
AngleInDegrees = 180;
};
}),
(647,566,o),
(540,701,o),
(342,701,cs,{
"Letterink-NibData" = {
AngleInDegrees = 90;
};
})
);
},
{
closed = 1;
nodes = (
(107,351,l),
(107,318,l,{
"Letterink-NibData" = {
AngleInDegrees = 270;
};
}),
(619,318,l,{
"Letterink-NibData" = {
AngleInDegrees = 180;
};
}),
(619,351,l,{
"Letterink-NibData" = {
AngleInDegrees = 90;
};
})
);
}
);
userData = {
RMXScaler = {
height = 140;
weight = -145;
width = 135;
};
};
width = 718;
},
{
anchors = (
{
name = bottom;
pos = (338,0);
},
{
name = ogonek;
pos = (626,68);
},
{
name = top;
pos = (338,712);
}
);
layerId = "0CAF3BED-C4AC-4024-B3E1-4C69D1EF7EC0";
shapes = (
{
closed = 1;
nodes = (
(245,712,o),
(150,683,o),
(82,629,c,{
"Letterink-NibData" = {
AngleInDegrees = 328.49573;
};
}),
(118,569,l,{
"Letterink-NibData" = {
AngleInDegrees = 235.0806;
};
}),
(197,621,o),
(259,635,o),
(333,635,cs,{
"Letterink-NibData" = {
AngleInDegrees = 270;
};
}),
(555,635,o),
(568,442,o),
(568,370,cs),
(568,169,o),
(463,62,o),
(338,62,cs,{
"Letterink-NibData" = {
AngleInDegrees = 90;
};
}),
(228,62,o),
(140,153,o),
(140,273,cs,{
"Letterink-NibData" = {
AngleInDegrees = 180;
};
}),
(140,301,o),
(144,337,o),
(150,377,c,{
"Letterink-NibData" = {
AngleInDegrees = 90;
};
}),
(62,377,l,{
"Letterink-NibData" = {
AngleInDegrees = 4.08562;
};
}),
(60,342,o),
(56,313,o),
(56,277,cs),
(56,113,o),
(179,-15,o),
(337,-15,cs,{
"Letterink-NibData" = {
AngleInDegrees = 270;
};
}),
(542,-15,o),
(652,177,o),
(652,369,cs,{
"Letterink-NibData" = {
AngleInDegrees = 180;
};
}),
(652,568,o),
(540,712,o),
(338,712,cs,{
"Letterink-NibData" = {
AngleInDegrees = 90;
};
})
);
},
{
closed = 1;
nodes = (
(93,377,l),
(93,300,l,{
"Letterink-NibData" = {
AngleInDegrees = 270;
};
}),
(625,300,l,{
"Letterink-NibData" = {
AngleInDegrees = 180;
};
}),
(625,377,l,{
"Letterink-NibData" = {
AngleInDegrees = 90;
};
})
);
}
);
userData = {
RMXScaler = {
height = 140;
weight = -120;
width = 135;
};
};
width = 705;
},
{
anchors = (
{
name = bottom;
pos = (361,48);
},
{
name = ogonek;
pos = (665,96);
},
{
name = top;
pos = (357,697);
}
);
layerId = m004;
shapes = (
{
closed = 1;
nodes = (
(214,707,o),
(99,660,o),
(45,592,c,{
"Letterink-NibData" = {
AngleInDegrees = 328.49573;
};
}),
(127,476,l,{
"Letterink-NibData" = {
AngleInDegrees = 235.0806;
};
}),
(178,529,o),
(250,558,o),
(319,558,cs,{
"Letterink-NibData" = {
AngleInDegrees = 270;
};
}),
(460,558,o),
(480,437,o),
(480,354,cs),
(480,198,o),
(406,129,o),
(330,129,cs,{
"Letterink-NibData" = {
AngleInDegrees = 90;
};
}),
(265,129,o),
(210,184,o),
(210,264,cs,{
"Letterink-NibData" = {
AngleInDegrees = 180;
};
}),
(210,299,o),
(210,334,o),
(221,399,c,{
"Letterink-NibData" = {
AngleInDegrees = 90;
};
}),
(44,399,l,{
"Letterink-NibData" = {
AngleInDegrees = 4.08562;
};
}),
(38,354,o),
(35,316,o),
(35,268,cs),
(35,100,o),
(159,-18,o),
(327,-19,cs,{
"Letterink-NibData" = {
AngleInDegrees = 270;
};
}),
(539,-20,o),
(660,161,o),
(660,354,cs,{
"Letterink-NibData" = {
AngleInDegrees = 180;
};
}),
(660,550,o),
(541,707,o),
(330,707,cs,{
"Letterink-NibData" = {
AngleInDegrees = 90;
};
})
);
},
{
closed = 1;
nodes = (
(55,399,l),
(55,269,l,{
"Letterink-NibData" = {
AngleInDegrees = 270;
};
}),
(642,269,l,{
"Letterink-NibData" = {
AngleInDegrees = 180;
};
}),
(642,399,l,{
"Letterink-NibData" = {
AngleInDegrees = 90;
};
})
);
}
);
userData = {
RMXScaler = {
height = 140;
weight = 200;
width = 135;
};
};
width = 691;
}
);
unicode = 399;
userData = {
RMXScaler = {
source = e.ss01;
};
};
},
{
glyphname = F;
kernLeft = E;
kernRight = F;
layers = (
{
anchors = (
{
name = bottom;
pos = (334,0);
},
{
name = top;
pos = (335,684);
}
);
hints = (
{
name = _corner.caps_left;
origin = (0,8);
type = Corner;
}
);
layerId = "0CAF3BED-C4AC-4024-B3E1-4C69D1EF7EC0";
shapes = (
{
closed = 1;
nodes = (
(203,-1,l),
(203,323,l,{
"Letterink-NibData" = {
AngleInDegrees = 90;
};
}),
(453,323,l),
(453,400,l,{
"Letterink-NibData" = {
AngleInDegrees = 270;
};
}),
(203,400,l),
(203,609,l,{
"Letterink-NibData" = {
AngleInDegrees = 90;
};
}),
(549,609,l),
(549,685,l,{
"Letterink-NibData" = {
AngleInDegrees = 270;
};
}),
(120,685,l,{
"Letterink-NibData" = {
AngleInDegrees = 179.91648;
};
}),
(121,-1,l,{
"Letterink-NibData" = {
AngleInDegrees = 90;
};
})
);
}
);
width = 559;
},
{
anchors = (
{
name = bottom;
pos = (339,-18);
},
{
name = top;
pos = (341,684);
}
);
hints = (
{
name = _corner.caps_left;
origin = (0,8);
type = Corner;
}
);
layerId = "49C16FD3-6177-408B-A733-AEB3898BB77C";
shapes = (
{
closed = 1;
nodes = (
(163,0,l),
(163,345,l,{
"Letterink-NibData" = {
AngleInDegrees = 90;
};
}),
(430,345,l),
(430,381,l,{
"Letterink-NibData" = {
AngleInDegrees = 270;
};
}),
(163,381,l),
(163,648,l,{
"Letterink-NibData" = {
AngleInDegrees = 90;
};
}),
(533,648,l),
(533,684,l,{
"Letterink-NibData" = {
AngleInDegrees = 270;
};
}),
(125,684,l,{
"Letterink-NibData" = {
AngleInDegrees = 180;
};
}),
(125,0,l,{
"Letterink-NibData" = {
AngleInDegrees = 90;
};
})
);
}
);
width = 560;
},
{
anchors = (
{
name = bottom;
pos = (410,-3);
},
{
name = top;
pos = (412,684);
}
);
background = {
anchors = (
{
name = bottom;
pos = (350,0);
},
{
name = top;
pos = (350,684);
}
);
hints = (
{
name = _corner.caps_left;
origin = (0,8);
type = Corner;
}
);
shapes = (
{
closed = 1;
nodes = (
(258,-1,l),
(258,323,l,{
"Letterink-NibData" = {
AngleInDegrees = 90;
};
}),
(508,323,l),
(508,400,l,{
"Letterink-NibData" = {
AngleInDegrees = 270;
};
}),
(258,400,l),
(258,609,l,{
"Letterink-NibData" = {
AngleInDegrees = 90;
};
}),
(604,609,l),
(604,685,l,{
"Letterink-NibData" = {
AngleInDegrees = 270;
};
}),
(175,685,l,{
"Letterink-NibData" = {
AngleInDegrees = 179.91648;
};
}),
(176,-1,l,{
"Letterink-NibData" = {
AngleInDegrees = 90;
};
})
);
}
);
};
hints = (
{
name = _corner.caps_left;
origin = (0,8);
type = Corner;
}
);
layerId = m004;
shapes = (
{
closed = 1;
nodes = (
(334,0,l),
(333,263,l,{
"Letterink-NibData" = {
AngleInDegrees = "90";
};
}),
(553,263,l),
(553,411,l,{
"Letterink-NibData" = {
AngleInDegrees = "270";
};
}),
(333,411,l),
(333,536,l,{
"Letterink-NibData" = {
AngleInDegrees = "90";
};
}),
(639,536,l),
(639,684,l,{
"Letterink-NibData" = {
AngleInDegrees = "270";
};
}),
(167,684,l,{
"Letterink-NibData" = {
AngleInDegrees = "180";
};
}),
(167,0,l,{
"Letterink-NibData" = {
AngleInDegrees = "90";
};
})
);
}
);
width = 650;
}
);
metricLeft = E;
unicode = 70;
userData = {
position = 129;
width = 61;
};
},
{
glyphname = F.ss01;
kernLeft = L;
kernRight = F;
layers = (
{
anchors = (
{
name = bottom;
pos = (297,0);
},
{
name = top;
pos = (298,684);
}
);
layerId = "0CAF3BED-C4AC-4024-B3E1-4C69D1EF7EC0";
shapes = (
{
closed = 1;
nodes = (
(166,-1,l),
(166,315,l,{
"Letterink-NibData" = {
AngleInDegrees = 90;
};
}),
(444,315,l),
(444,393,l,{
"Letterink-NibData" = {
AngleInDegrees = 270;
};
}),
(166,393,l),
(166,608,l,{
"Letterink-NibData" = {
AngleInDegrees = 90;
};
}),
(512,608,l),
(512,686,l,{
"Letterink-NibData" = {
AngleInDegrees = 270;
};
}),
(84,686,l,{
"Letterink-NibData" = {
AngleInDegrees = 180;
};
}),
(84,-1,l,{
"Letterink-NibData" = {
AngleInDegrees = 90;
};
})
);
}
);
width = 506;
},
{
anchors = (
{
name = bottom;
pos = (293,0);
},
{
name = top;
pos = (295,684);
}
);
layerId = "49C16FD3-6177-408B-A733-AEB3898BB77C";
shapes = (
{
closed = 1;
nodes = (
(133,1,l),
(133,337,l,{
"Letterink-NibData" = {
AngleInDegrees = 90;
};
}),
(430,337,l),
(430,372,l,{
"Letterink-NibData" = {
AngleInDegrees = 270;
};
}),
(133,372,l),
(133,648,l,{
"Letterink-NibData" = {
AngleInDegrees = 90;
};
}),
(502,648,l),
(502,685,l,{
"Letterink-NibData" = {
AngleInDegrees = 270;
};
}),
(92,685,l,{
"Letterink-NibData" = {
AngleInDegrees = 180;
};
}),
(92,1,l,{
"Letterink-NibData" = {
AngleInDegrees = 90;
};
})
);
}
);
width = 519;
},
{
anchors = (
{
name = bottom;
pos = (312,-11);
},
{
name = top;
pos = (314,684);
}
);
layerId = m004;
shapes = (
{
closed = 1;
nodes = (
(245,1,l),
(244,263,l,{
"Letterink-NibData" = {
AngleInDegrees = "90";
};
}),
(464,263,l),
(464,411,l,{
"Letterink-NibData" = {
AngleInDegrees = "270";
};
}),
(244,411,l),
(244,536,l,{
"Letterink-NibData" = {
AngleInDegrees = "90";
};
}),
(550,536,l),
(550,684,l,{
"Letterink-NibData" = {
AngleInDegrees = "270";
};
}),
(78,684,l,{
"Letterink-NibData" = {
AngleInDegrees = "180";
};
}),
(78,1,l,{
"Letterink-NibData" = {
AngleInDegrees = "90";
};
})
);
}
);
width = 534;
}
);
metricLeft = N.ss01;
userData = {
position = 95;
width = 61;
};
},
{
glyphname = F.swsh;
kernLeft = E.swsh;
kernRight = F;
layers = (
{
anchors = (
{
name = bottom;
pos = (363,0);
},
{
name = top;
pos = (357,684);
}
);
hints = (
{
name = _corner.caps_swash;
origin = (1,3);
type = Corner;
}
);
layerId = "0CAF3BED-C4AC-4024-B3E1-4C69D1EF7EC0";
shapes = (
{
closed = 1;
nodes = (
(254,-1,l),
(254,324,l,{
"Letterink-NibData" = {
AngleInDegrees = 90;
};
}),
(503,324,l),
(503,400,l,{
"Letterink-NibData" = {
AngleInDegrees = 270;
};
}),
(254,400,l),
(254,559,l,{
"Letterink-NibData" = {
AngleInDegrees = 270;
};
}),
(171,559,l,{
"Letterink-NibData" = {
AngleInDegrees = 180;
};
}),
(171,-1,l,{
"Letterink-NibData" = {
AngleInDegrees = 90;
};
})
);
},
{
closed = 1;
nodes = (
(145,608,l,{
"Letterink-NibData" = {
AngleInDegrees = 90;
};
}),
(599,608,l),
(599,684,l,{
"Letterink-NibData" = {
AngleInDegrees = 270;
};
}),
(145,684,l,{
"Letterink-NibData" = {
AngleInDegrees = 180;
};
})
);
}
);
width = 609;
},
{
anchors = (
{
name = bottom;
pos = (357,0);
},
{
name = top;
pos = (353,684);
}
);
hints = (
{
name = _corner.caps_swash;
origin = (1,3);
type = Corner;
}
);
layerId = "49C16FD3-6177-408B-A733-AEB3898BB77C";
shapes = (
{
closed = 1;
nodes = (
(213,0,l),
(213,345,l,{
"Letterink-NibData" = {
AngleInDegrees = 90;
};
}),
(481,345,l),
(481,381,l,{
"Letterink-NibData" = {
AngleInDegrees = 270;
};
}),
(213,381,l),
(213,570,l,{
"Letterink-NibData" = {
AngleInDegrees = 270;
};
}),
(175,570,l,{
"Letterink-NibData" = {
AngleInDegrees = 180;
};
}),
(175,0,l,{
"Letterink-NibData" = {
AngleInDegrees = 90;
};
})
);
},
{
closed = 1;
nodes = (
(142,648,l,{
"Letterink-NibData" = {
AngleInDegrees = 90;
};
}),
(585,648,l),
(585,684,l,{
"Letterink-NibData" = {
AngleInDegrees = 270;
};
}),
(142,684,l,{
"Letterink-NibData" = {
AngleInDegrees = 180;
};
})
);
}
);
width = 612;
},
{
anchors = (
{
name = bottom;
pos = (456,-4);
},
{
name = top;
pos = (459,684);
}
);
hints = (
{
name = _corner.caps_swash;
origin = (1,3);
type = Corner;
}
);
layerId = m004;
shapes = (
{
closed = 1;
nodes = (
(372,0,l),
(370,263,l,{
"Letterink-NibData" = {
AngleInDegrees = "90";
};
}),
(590,263,l),
(590,411,l,{
"Letterink-NibData" = {
AngleInDegrees = "270";
};
}),
(370,411,l),
(370,500,l,{
"Letterink-NibData" = {
AngleInDegrees = "90";
};
}),
(204,499,l),
(205,0,l,{
"Letterink-NibData" = {
AngleInDegrees = "90";
};
})
);
},
{
closed = 1;
nodes = (
(204,536,l),
(676,536,l),
(676,684,l,{
"Letterink-NibData" = {
AngleInDegrees = "270";
};
}),
(204,684,l,{
"Letterink-NibData" = {
AngleInDegrees = "180";
};
})
);
}
);
width = 695;
}
);
userData = {
position = 129;
width = 61;
};
},
{
glyphname = G;
kernLeft = O;
kernRight = O;
layers = (
{
anchors = (
{
name = bottom;
pos = (370,-9);
},
{
name = top;
pos = (370,689);
}
);
background = {
shapes = (
{
closed = 1;
nodes = (
(573,-25,o),
(719,126,o),
(719,326,cs),
(719,355,ls),
(719,548,o),
(567,702,o),
(377,702,cs,{
"Letterink-NibData" = {
AngleInDegrees = "270";
};
}),
(187,702,o),
(36,548,o),
(36,355,cs,{
"Letterink-NibData" = {
AngleInDegrees = "180";
};
}),
(36,326,ls,{
"Letterink-NibData" = {
AngleInDegrees = "180";
};
}),
(36,126,o),
(180,-19,o),
(381,-22,cs,{
"Letterink-NibData" = {
AngleInDegrees = "90.89517371732774";
};
})
);
},
{
closed = 1;
nodes = (
(230,54,o),
(118,170,o),
(118,326,cs),
(118,355,ls),
(118,504,o),
(232,626,o),
(376,626,cs,{
"Letterink-NibData" = {
AngleInDegrees = "90";
};
}),
(522,626,o),
(637,504,o),
(637,355,cs,{
"Letterink-NibData" = {
AngleInDegrees = "180";
};
}),
(637,326,ls,{
"Letterink-NibData" = {
AngleInDegrees = "180";
};
}),
(637,170,o),
(525,54,o),
(378,54,cs,{
"Letterink-NibData" = {
AngleInDegrees = "270";
};
})
);
}
);
};
layerId = "0CAF3BED-C4AC-4024-B3E1-4C69D1EF7EC0";
shapes = (
{
closed = 1;
nodes = (
(473,454,l),
(495,439,o),
(518,434,o),
(536,434,cs),
(590,434,o),
(640,477,o),
(640,541,cs),
(640,654,o),
(518,703,o),
(384,703,cs),
(197,703,o),
(36,559,o),
(36,339,cs),
(36,128,o),
(187,-19,o),
(388,-19,cs),
(586,-19,o),
(690,137,o),
(685,305,cs),
(684,342,l),
(372,342,l),
(372,272,l),
(647,272,l),
(609,303,l),
(612,158,o),
(539,55,o),
(388,55,cs),
(233,55,o),
(116,164,o),
(116,339,cs),
(116,511,o),
(237,627,o),
(384,627,cs),
(515,627,o),
(560,575,o),
(560,541,cs),
(560,527,o),
(552,508,o),
(536,508,cs),
(530,508,o),
(521,509,o),
(513,514,c)
);
}
);
width = 720;
},
{
anchors = (
{
name = bottom;
pos = (389,0);
},
{
name = top;
pos = (387,688);
}
);
background = {
shapes = (
{
closed = 1;
nodes = (
(590,-14,o),
(732,131,o),
(732,331,cs),
(732,350,ls),
(732,550,o),
(584,702,o),
(390,702,cs,{
"Letterink-NibData" = {
AngleInDegrees = "270";
};
}),
(196,702,o),
(50,551,o),
(50,350,cs,{
"Letterink-NibData" = {
AngleInDegrees = "180";
};
}),
(50,331,ls,{
"Letterink-NibData" = {
AngleInDegrees = "180";
};
}),
(50,133,o),
(197,-14,o),
(394,-14,cs,{
"Letterink-NibData" = {
AngleInDegrees = "90";
};
})
);
},
{
closed = 1;
nodes = (
(220,24,o),
(92,156,o),
(92,331,cs),
(92,350,ls),
(92,526,o),
(221,662,o),
(389,662,cs,{
"Letterink-NibData" = {
AngleInDegrees = "90";
};
}),
(558,662,o),
(690,526,o),
(690,350,cs,{
"Letterink-NibData" = {
AngleInDegrees = "180";
};
}),
(690,331,ls,{
"Letterink-NibData" = {
AngleInDegrees = "180";
};
}),
(690,156,o),
(561,24,o),
(391,24,cs,{
"Letterink-NibData" = {
AngleInDegrees = "270";
};
})
);
}
);
};
layerId = "49C16FD3-6177-408B-A733-AEB3898BB77C";
shapes = (
{
closed = 1;
nodes = (
(505,468,l),
(524,454,o),
(544,451,o),
(559,451,cs),
(600,451,o),
(641,489,o),
(641,543,cs),
(641,625,o),
(541,701,o),
(387,701,cs),
(205,701,o),
(52,558,o),
(52,340,cs),
(52,128,o),
(191,-14,o),
(395,-14,cs),
(575,-14,o),
(696,117,o),
(696,311,cs),
(696,330,l),
(406,330,l),
(406,292,l),
(678,292,l),
(658,311,l),
(653,145,o),
(557,25,o),
(395,25,cs),
(208,25,o),
(90,153,o),
(90,340,cs),
(90,531,o),
(221,663,o),
(387,663,cs),
(531,663,o),
(602,590,o),
(603,543,cs),
(604,519,o),
(588,490,o),
(559,490,cs),
(548,490,o),
(536,493,o),
(527,499,c)
);
}
);
width = 747;
},
{
anchors = (
{
name = bottom;
pos = (392,-35);
},
{
name = top;
pos = (402,683);
}
);
associatedMasterId = "49C16FD3-6177-408B-A733-AEB3898BB77C";
layerId = "D0E3D1AC-81E4-4FC2-A1B9-BDF5A86A417E";
name = "3 Jan 22, 15:37";
shapes = (
{
closed = 1;
nodes = (
(537,-20,o),
(678,85,o),
(678,253,c),
(678,296,l,{
"Letterink-NibData" = {
AngleInDegrees = 270;
};
}),
(636,296,l,{
"Letterink-NibData" = {
AngleInDegrees = 180;
};
}),
(636,251,l,{
"Letterink-NibData" = {
AngleInDegrees = 180;
};
}),
(636,124,o),
(523,20,o),
(392,20,cs,{
"Letterink-NibData" = {
AngleInDegrees = 270;
};
}),
(227,20,o),
(103,157,o),
(103,329,cs),
(103,504,o),
(232,658,o),
(402,658,cs,{
"Letterink-NibData" = {
AngleInDegrees = 90;
};
}),
(466,658,o),
(587,637,o),
(587,563,cs,{
"Letterink-NibData" = {
AngleInDegrees = 180;
};
}),
(587,537,o),
(570,514,o),
(547,514,cs,{
"Letterink-NibData" = {
AngleInDegrees = 270;
};
}),
(537,514,o),
(529,518,o),
(524,524,c,{
"Letterink-NibData" = {
AngleInDegrees = 218.23383;
};
}),
(498,491,l,{
"Letterink-NibData" = {
AngleInDegrees = 138.36646;
};
}),
(506,482,o),
(524,473,o),
(546,473,cs,{
"Letterink-NibData" = {
AngleInDegrees = 90;
};
}),
(594,473,o),
(628,509,o),
(628,563,cs),
(628,669,o),
(486,698,o),
(401,698,cs,{
"Letterink-NibData" = {
AngleInDegrees = 270;
};
}),
(203,698,o),
(61,531,o),
(61,330,cs,{
"Letterink-NibData" = {
AngleInDegrees = 180;
};
}),
(61,138,o),
(198,-20,o),
(392,-20,cs,{
"Letterink-NibData" = {
AngleInDegrees = 90;
};
})
);
},
{
closed = 1;
nodes = (
(678,293,l),
(678,335,l,{
"Letterink-NibData" = {
AngleInDegrees = 270;
};
}),
(387,335,l,{
"Letterink-NibData" = {
AngleInDegrees = 180;
};
}),
(387,293,l,{
"Letterink-NibData" = {
AngleInDegrees = 90;
};
})
);
}
);
width = 735;
},
{
anchors = (
{
name = bottom;
pos = (390,-16);
},
{
name = top;
pos = (393,684);
}
);
associatedMasterId = "0CAF3BED-C4AC-4024-B3E1-4C69D1EF7EC0";
layerId = "801CC91F-0C96-44A6-9720-FE52325A0B43";
name = "3 Jan 22, 15:45";
shapes = (
{
closed = 1;
nodes = (
(541,-13,o),
(683,104,o),
(683,271,cs),
(683,319,l,{
"Letterink-NibData" = {
AngleInDegrees = 270;
};
}),
(600,319,l,{
"Letterink-NibData" = {
AngleInDegrees = 178.85424;
};
}),
(601,269,l,{
"Letterink-NibData" = {
AngleInDegrees = 180.96286;
};
}),
(599,150,o),
(504,63,o),
(390,63,cs,{
"Letterink-NibData" = {
AngleInDegrees = 270;
};
}),
(245,63,o),
(135,176,o),
(135,342,cs),
(135,497,o),
(245,620,o),
(399,620,cs,{
"Letterink-NibData" = {
AngleInDegrees = 90;
};
}),
(456,620,o),
(558,599,o),
(558,544,cs,{
"Letterink-NibData" = {
AngleInDegrees = 180;
};
}),
(558,530,o),
(551,518,o),
(537,517,cs,{
"Letterink-NibData" = {
AngleInDegrees = 264.28941;
};
}),
(527,516,o),
(517,523,o),
(511,528,c,{
"Letterink-NibData" = {
AngleInDegrees = 218.90414;
};
}),
(465,471,l,{
"Letterink-NibData" = {
AngleInDegrees = 136.54816;
};
}),
(483,452,o),
(511,442,o),
(536,442,cs,{
"Letterink-NibData" = {
AngleInDegrees = 90;
};
}),
(591,442,o),
(635,488,o),
(635,547,cs),
(635,656,o),
(481,696,o),
(398,696,cs,{
"Letterink-NibData" = {
AngleInDegrees = 270;
};
}),
(205,696,o),
(53,539,o),
(53,343,cs,{
"Letterink-NibData" = {
AngleInDegrees = 180;
};
}),
(53,141,o),
(196,-13,o),
(390,-13,cs,{
"Letterink-NibData" = {
AngleInDegrees = 90;
};
})
);
},
{
closed = 1;
nodes = (
(683,280,l),
(683,356,l,{
"Letterink-NibData" = {
AngleInDegrees = 270;
};
}),
(364,356,l,{
"Letterink-NibData" = {
AngleInDegrees = 180;
};
}),
(364,280,l,{
"Letterink-NibData" = {
AngleInDegrees = 90;
};
})
);
}
);
width = 734;
},
{
anchors = (
{
name = bottom;
pos = (390,-16);
},
{
name = top;
pos = (393,684);
}
);
associatedMasterId = "0CAF3BED-C4AC-4024-B3E1-4C69D1EF7EC0";
layerId = "F3CD14B1-1EDD-434D-B368-A4692BE06C00";
name = "5 Jan 22, 08:08";
shapes = (
{
attr = {
strokeHeight = 74;
strokeWidth = 80;
};
closed = 0;
nodes = (
(515,478,l,{
"Letterink-NibData" = {
AngleInDegrees = 116.56505;
};
}),
(525,473,o),
(534,471,o),
(543,471,cs,{
"Letterink-NibData" = {
AngleInDegrees = 90;
};
}),
(587,471,o),
(608,511,o),
(608,546,cs),
(608,617,o),
(519,674,o),
(391,668,cs,{
"Letterink-NibData" = {
AngleInDegrees = 267.25739;
};
}),
(224,660,o),
(90,522,o),
(90,334,cs,{
"Letterink-NibData" = {
AngleInDegrees = 180;
};
}),
(90,144,o),
(227,4,o),
(408,15,cs,{
"Letterink-NibData" = {
AngleInDegrees = 86.30861;
};
}),
(563,25,o),
(648,137,o),
(648,281,c,{
"Letterink-NibData" = {
AngleInDegrees = 358.26429;
};
}),
(647,314,l,{
"Letterink-NibData" = {
AngleInDegrees = 270.21221;
};
}),
(377,315,l,{
"Letterink-NibData" = {
AngleInDegrees = 270.21221;
};
})
);
}
);
width = 734;
},
{
anchors = (
{
name = bottom;
pos = (392,-35);
},
{
name = top;
pos = (402,683);
}
);
associatedMasterId = "49C16FD3-6177-408B-A733-AEB3898BB77C";
background = {
shapes = (
{
closed = 1;
nodes = (
(540,-19,o),
(678,85,o),
(678,253,c),
(678,296,l),
(636,296,l),
(636,251,l),
(636,124,o),
(523,20,o),
(392,20,cs),
(227,20,o),
(103,157,o),
(103,329,cs),
(103,504,o),
(232,658,o),
(402,658,cs),
(466,658,o),
(587,637,o),
(587,563,cs),
(587,537,o),
(570,514,o),
(547,514,cs),
(537,514,o),
(529,518,o),
(524,524,c),
(498,491,l),
(506,482,o),
(524,473,o),
(546,473,cs),
(594,473,o),
(628,509,o),
(628,563,cs),
(628,669,o),
(486,698,o),
(401,698,cs),
(203,698,o),
(61,531,o),
(61,330,cs),
(61,138,o),
(198,-21,o),
(392,-20,cs)
);
}
);
};
layerId = "F0F46AC2-3B0D-4489-B32E-B81CEA10F2A9";
name = "5 Jan 22, 08:18";
shapes = (
{
attr = {
strokeHeight = 38;
strokeWidth = 42;
};
closed = 0;
nodes = (
(518,484,l,{
"Letterink-NibData" = {
AngleInDegrees = 116.56505;
};
}),
(528,479,o),
(537,477,o),
(547,477,cs,{
"Letterink-NibData" = {
AngleInDegrees = 90;
};
}),
(591,477,o),
(613,519,o),
(613,556,cs),
(613,630,o),
(522,690,o),
(391,683,cs,{
"Letterink-NibData" = {
AngleInDegrees = 267.30572;
};
}),
(221,675,o),
(84,530,o),
(84,334,cs,{
"Letterink-NibData" = {
AngleInDegrees = 180;
};
}),
(84,135,o),
(224,-12,o),
(404,0,cs,{
"Letterink-NibData" = {
AngleInDegrees = 86.48932;
};
}),
(567,10,o),
(654,127,o),
(654,278,c,{
"Letterink-NibData" = {
AngleInDegrees = 358.36342;
};
}),
(653,313,l,{
"Letterink-NibData" = {
AngleInDegrees = 270.20759;
};
}),
(377,314,l,{
"Letterink-NibData" = {
AngleInDegrees = 270.20759;
};
})
);
}
);
width = 735;
},
{
anchors = (
{
name = bottom;
pos = (392,-10);
},
{
name = top;
pos = (392,703);
}
);
background = {
shapes = (
{
closed = 1;
nodes = (
(595,-25,o),
(741,126,o),
(741,326,cs),
(741,355,ls),
(741,548,o),
(589,702,o),
(399,702,cs,{
"Letterink-NibData" = {
AngleInDegrees = "270";
};
}),
(209,702,o),
(58,548,o),
(58,355,cs,{
"Letterink-NibData" = {
AngleInDegrees = "180";
};
}),
(58,326,ls,{
"Letterink-NibData" = {
AngleInDegrees = "180";
};
}),
(58,126,o),
(202,-19,o),
(403,-22,cs,{
"Letterink-NibData" = {
AngleInDegrees = "90.89517371732774";
};
})
);
},
{
closed = 1;
nodes = (
(252,54,o),
(140,170,o),
(140,326,cs),
(140,355,ls),
(140,504,o),
(254,626,o),
(398,626,cs,{
"Letterink-NibData" = {
AngleInDegrees = "90";
};
}),
(544,626,o),
(659,504,o),
(659,355,cs,{
"Letterink-NibData" = {
AngleInDegrees = "180";
};
}),
(659,326,ls,{
"Letterink-NibData" = {
AngleInDegrees = "180";
};
}),
(659,170,o),
(547,54,o),
(400,54,cs,{
"Letterink-NibData" = {
AngleInDegrees = "270";
};
})
);
}
);
};
layerId = m004;
shapes = (
{
closed = 1;
nodes = (
(431,419,l),
(466,395,o),
(498,379,o),
(533,383,cs),
(609,379,o),
(678,442,o),
(678,523,cs),
(678,628,o),
(564,711,o),
(409,711,cs),
(192,711,o),
(40,550,o),
(40,335,cs),
(40,122,o),
(189,-28,o),
(392,-28,cs),
(584,-28,o),
(719,106,o),
(722,309,c),
(720,362,l),
(393,362,l),
(393,224,l),
(645,224,l),
(570,285,l),
(573,184,o),
(511,120,o),
(405,120,cs),
(284,120,o),
(205,203,o),
(205,333,cs),
(205,458,o),
(277,563,o),
(414,563,cs),
(454,563,o),
(496,554,o),
(516,541,cs),
(530,532,o),
(538,518,o),
(534,510,cs),
(530,502,o),
(514,502,o),
(500,514,c)
);
}
);
width = 761;
},
{
anchors = (
{
name = bottom;
pos = (390,-16);
},
{
name = top;
pos = (393,684);
}
);
associatedMasterId = m004;
layerId = "0E9EACE4-EA9D-4B48-AA91-148DF9A2A64E";
name = "3 Jan 22, 15:45";
shapes = (
{
closed = 1;
nodes = (
(541,-13,o),
(683,104,o),
(683,271,cs),
(683,319,l,{
"Letterink-NibData" = {
AngleInDegrees = 270;
};
}),
(600,319,l,{
"Letterink-NibData" = {
AngleInDegrees = 178.85424;
};
}),
(601,269,l,{
"Letterink-NibData" = {
AngleInDegrees = 180.96286;
};
}),
(599,150,o),
(504,63,o),
(390,63,cs,{
"Letterink-NibData" = {
AngleInDegrees = 270;
};
}),
(245,63,o),
(135,176,o),
(135,342,cs),
(135,497,o),
(245,620,o),
(399,620,cs,{
"Letterink-NibData" = {
AngleInDegrees = 90;
};
}),
(456,620,o),
(558,599,o),
(558,544,cs,{
"Letterink-NibData" = {
AngleInDegrees = 180;
};
}),
(558,530,o),
(551,518,o),
(537,517,cs,{
"Letterink-NibData" = {
AngleInDegrees = 264.28941;
};
}),
(527,516,o),
(517,523,o),
(511,528,c,{
"Letterink-NibData" = {
AngleInDegrees = 218.90414;
};
}),
(465,471,l,{
"Letterink-NibData" = {
AngleInDegrees = 136.54816;
};
}),
(483,452,o),
(511,442,o),
(536,442,cs,{
"Letterink-NibData" = {
AngleInDegrees = 90;
};
}),
(591,442,o),
(635,488,o),
(635,547,cs),
(635,656,o),
(481,696,o),
(398,696,cs,{
"Letterink-NibData" = {
AngleInDegrees = 270;
};
}),
(205,696,o),
(53,539,o),
(53,343,cs,{
"Letterink-NibData" = {
AngleInDegrees = 180;
};
}),
(53,141,o),
(196,-13,o),
(390,-13,cs,{
"Letterink-NibData" = {
AngleInDegrees = 90;
};
})
);
},
{
closed = 1;
nodes = (
(683,280,l),
(683,356,l,{
"Letterink-NibData" = {
AngleInDegrees = 270;
};
}),
(364,356,l,{
"Letterink-NibData" = {
AngleInDegrees = 180;
};
}),
(364,280,l,{
"Letterink-NibData" = {
AngleInDegrees = 90;
};
})
);
}
);
width = 734;
},
{
anchors = (
{
name = bottom;
pos = (390,-16);
},
{
name = top;
pos = (393,684);
}
);
associatedMasterId = m004;
layerId = "E2560365-B553-4320-8997-4873FFE2CB5E";
name = "5 Jan 22, 08:08";
shapes = (
{
attr = {
strokeHeight = 74;
strokeWidth = 80;
};
closed = 0;
nodes = (
(515,478,l,{
"Letterink-NibData" = {
AngleInDegrees = 116.56505;
};
}),
(525,473,o),
(534,471,o),
(543,471,cs,{
"Letterink-NibData" = {
AngleInDegrees = 90;
};
}),
(587,471,o),
(608,511,o),
(608,546,cs),
(608,617,o),
(519,674,o),
(391,668,cs,{
"Letterink-NibData" = {
AngleInDegrees = 267.25739;
};
}),
(224,660,o),
(90,522,o),
(90,334,cs,{
"Letterink-NibData" = {
AngleInDegrees = 180;
};
}),
(90,144,o),
(227,4,o),
(408,15,cs,{
"Letterink-NibData" = {
AngleInDegrees = 86.30861;
};
}),
(563,25,o),
(648,137,o),
(648,281,c,{
"Letterink-NibData" = {
AngleInDegrees = 358.26429;
};
}),
(647,314,l,{
"Letterink-NibData" = {
AngleInDegrees = 270.21221;
};
}),
(377,315,l,{
"Letterink-NibData" = {
AngleInDegrees = 270.21221;
};
})
);
}
);
width = 734;
}
);
metricLeft = O;
metricRight = "=O*.975";
note = "Bold: 98/95.5%";
unicode = 71;
userData = {
position = 593;
width = 57;
};
},
{
glyphname = G.ss01;
kernLeft = O;
kernRight = O;
layers = (
{
anchors = (
{
name = bottom;
pos = (381,-6);
},
{
name = top;
pos = (378,691);
}
);
background = {
shapes = (
{
closed = 1;
nodes = (
(570,-25,o),
(716,126,o),
(716,326,cs),
(716,355,ls),
(716,548,o),
(564,702,o),
(374,702,cs,{
"Letterink-NibData" = {
AngleInDegrees = "270";
};
}),
(184,702,o),
(33,548,o),
(33,355,cs,{
"Letterink-NibData" = {
AngleInDegrees = "180";
};
}),
(33,326,ls,{
"Letterink-NibData" = {
AngleInDegrees = "180";
};
}),
(33,126,o),
(177,-19,o),
(378,-22,cs,{
"Letterink-NibData" = {
AngleInDegrees = "90.89517371732774";
};
})
);
},
{
closed = 1;
nodes = (
(227,54,o),
(115,170,o),
(115,326,cs),
(115,355,ls),
(115,504,o),
(229,626,o),
(373,626,cs,{
"Letterink-NibData" = {
AngleInDegrees = "90";
};
}),
(519,626,o),
(634,504,o),
(634,355,cs,{
"Letterink-NibData" = {
AngleInDegrees = "180";
};
}),
(634,326,ls,{
"Letterink-NibData" = {
AngleInDegrees = "180";
};
}),
(634,170,o),
(522,54,o),
(375,54,cs,{
"Letterink-NibData" = {
AngleInDegrees = "270";
};
})
);
}
);
};
layerId = "0CAF3BED-C4AC-4024-B3E1-4C69D1EF7EC0";
shapes = (
{
closed = 1;
nodes = (
(660,535,l),
(630,639,o),
(518,709,o),
(384,709,cs),
(182,709,o),
(36,556,o),
(36,344,cs),
(36,133,o),
(179,-17,o),
(381,-17,cs),
(571,-17,o),
(697,117,o),
(697,320,cs),
(697,358,l),
(389,358,l),
(389,282,l),
(659,282,l),
(621,320,l),
(621,162,o),
(527,59,o),
(383,59,cs),
(227,59,o),
(116,178,o),
(116,345,cs),
(116,512,o),
(229,633,o),
(385,633,cs),
(484,633,o),
(566,584,o),
(588,513,c)
);
}
);
width = 733;
},
{
anchors = (
{
name = bottom;
pos = (389,-2);
},
{
name = top;
pos = (396,694);
}
);
background = {
shapes = (
{
closed = 1;
nodes = (
(585,-14,o),
(727,131,o),
(727,331,cs),
(727,350,ls),
(727,550,o),
(579,702,o),
(385,702,cs,{
"Letterink-NibData" = {
AngleInDegrees = "270";
};
}),
(191,702,o),
(45,551,o),
(45,350,cs,{
"Letterink-NibData" = {
AngleInDegrees = "180";
};
}),
(45,331,ls,{
"Letterink-NibData" = {
AngleInDegrees = "180";
};
}),
(45,133,o),
(192,-14,o),
(389,-14,cs,{
"Letterink-NibData" = {
AngleInDegrees = "90";
};
})
);
},
{
closed = 1;
nodes = (
(215,24,o),
(87,156,o),
(87,331,cs),
(87,350,ls),
(87,526,o),
(216,662,o),
(384,662,cs,{
"Letterink-NibData" = {
AngleInDegrees = "90";
};
}),
(553,662,o),
(685,526,o),
(685,350,cs,{
"Letterink-NibData" = {
AngleInDegrees = "180";
};
}),
(685,331,ls,{
"Letterink-NibData" = {
AngleInDegrees = "180";
};
}),
(685,156,o),
(556,24,o),
(386,24,cs,{
"Letterink-NibData" = {
AngleInDegrees = "270";
};
})
);
}
);
};
layerId = "49C16FD3-6177-408B-A733-AEB3898BB77C";
shapes = (
{
closed = 1;
nodes = (
(661,535,l),
(632,625,o),
(533,699,o),
(396,699,cs),
(203,699,o),
(52,557,o),
(52,339,cs),
(52,132,o),
(196,-12,o),
(394,-12,cs),
(577,-12,o),
(698,120,o),
(698,319,cs),
(698,336,l),
(398,336,l),
(398,303,l),
(682,303,l),
(665,319,l),
(665,141,o),
(555,22,o),
(394,22,cs),
(219,22,o),
(90,152,o),
(90,339,cs),
(90,535,o),
(222,665,o),
(396,665,cs),
(525,665,o),
(607,595,o),
(629,524,c)
);
}
);
width = 750;
},
{
anchors = (
{
name = bottom;
pos = (386,0);
},
{
name = top;
pos = (401,684);
}
);
associatedMasterId = "49C16FD3-6177-408B-A733-AEB3898BB77C";
layerId = "96951EB1-18FB-4FDF-9014-B6300BAB0AB6";
name = "3 Jan 22, 15:40";
shapes = (
{
closed = 1;
nodes = (
(542,-15,o),
(675,97,o),
(675,285,cs),
(675,343,l,{
"Letterink-NibData" = {
AngleInDegrees = 270;
};
}),
(633,343,l,{
"Letterink-NibData" = {
AngleInDegrees = 180;
};
}),
(633,273,ls,{
"Letterink-NibData" = {
AngleInDegrees = 180;
};
}),
(633,127,o),
(512,25,o),
(391,25,cs,{
"Letterink-NibData" = {
AngleInDegrees = 270;
};
}),
(209,25,o),
(104,154,o),
(104,331,cs),
(104,508,o),
(231,656,o),
(401,656,cs,{
"Letterink-NibData" = {
AngleInDegrees = 90;
};
}),
(470,656,o),
(577,625,o),
(584,557,c,{
"Letterink-NibData" = {
AngleInDegrees = 88.60282;
};
}),
(625,558,l,{
"Letterink-NibData" = {
AngleInDegrees = 356.1432;
};
}),
(619,647,o),
(507,696,o),
(403,696,cs,{
"Letterink-NibData" = {
AngleInDegrees = 270;
};
}),
(207,696,o),
(62,537,o),
(62,332,cs,{
"Letterink-NibData" = {
AngleInDegrees = 180;
};
}),
(62,131,o),
(179,-15,o),
(387,-15,cs,{
"Letterink-NibData" = {
AngleInDegrees = 90;
};
})
);
},
{
closed = 1;
nodes = (
(675,303,l),
(675,343,l,{
"Letterink-NibData" = {
AngleInDegrees = 270;
};
}),
(384,343,l,{
"Letterink-NibData" = {
AngleInDegrees = 180;
};
}),
(384,303,l,{
"Letterink-NibData" = {
AngleInDegrees = 90;
};
})
);
}
);
width = 730;
},
{
anchors = (
{
name = bottom;
pos = (387,0);
},
{
name = top;
pos = (401,684);
}
);
associatedMasterId = "0CAF3BED-C4AC-4024-B3E1-4C69D1EF7EC0";
layerId = "B969E5E4-86DE-47F2-A424-5DC87FFFE71B";
name = "5 Jan 22, 08:26";
shapes = (
{
attr = {
strokeHeight = 74;
strokeWidth = 80;
};
closed = 0;
nodes = (
(618,528,ls,{
"Letterink-NibData" = {
AngleInDegrees = 356.63354;
};
}),
(613,613,o),
(519,675,o),
(391,669,cs,{
"Letterink-NibData" = {
AngleInDegrees = 267.25739;
};
}),
(224,661,o),
(90,523,o),
(90,331,cs,{
"Letterink-NibData" = {
AngleInDegrees = 180;
};
}),
(90,145,o),
(222,15,o),
(403,15,c,{
"Letterink-NibData" = {
AngleInDegrees = 86.42367;
};
}),
(563,25,o),
(648,137,o),
(648,281,c,{
"Letterink-NibData" = {
AngleInDegrees = 358.26429;
};
}),
(647,314,l,{
"Letterink-NibData" = {
AngleInDegrees = 270.21221;
};
}),
(377,315,l,{
"Letterink-NibData" = {
AngleInDegrees = 270.21221;
};
})
);
}
);
width = 730;
},
{
anchors = (
{
name = bottom;
pos = (387,-27);
},
{
name = top;
pos = (387,721);
}
);
associatedMasterId = "49C16FD3-6177-408B-A733-AEB3898BB77C";
background = {
shapes = (
{
closed = 1;
nodes = (
(542,-15,o),
(675,97,o),
(675,285,cs),
(675,343,l),
(633,343,l),
(633,273,ls),
(633,127,o),
(512,25,o),
(391,25,cs),
(209,25,o),
(104,154,o),
(104,331,cs),
(104,508,o),
(231,656,o),
(401,656,cs),
(470,656,o),
(577,625,o),
(584,557,c),
(625,558,l),
(619,647,o),
(507,696,o),
(403,696,cs),
(207,696,o),
(62,537,o),
(62,332,cs),
(62,131,o),
(179,-15,o),
(387,-15,cs)
);
},
{
closed = 1;
nodes = (
(675,303,l),
(675,343,l),
(384,343,l),
(384,303,l)
);
}
);
};
layerId = "AFEECE5E-BFEE-4508-863A-E5AFB845FDE7";
name = "5 Jan 22, 08:33";
shapes = (
{
attr = {
strokeHeight = 38;
strokeWidth = 42;
};
closed = 0;
nodes = (
(623,537,ls,{
"Letterink-NibData" = {
AngleInDegrees = 356.78451;
};
}),
(618,626,o),
(522,691,o),
(391,684,cs,{
"Letterink-NibData" = {
AngleInDegrees = 267.30572;
};
}),
(221,676,o),
(84,532,o),
(84,330,cs,{
"Letterink-NibData" = {
AngleInDegrees = 180;
};
}),
(84,136,o),
(219,0,o),
(409,0,c,{
"Letterink-NibData" = {
AngleInDegrees = 86.37852;
};
}),
(567,10,o),
(654,127,o),
(654,278,c,{
"Letterink-NibData" = {
AngleInDegrees = 358.36342;
};
}),
(653,313,l,{
"Letterink-NibData" = {
AngleInDegrees = 270.20759;
};
}),
(377,314,l,{
"Letterink-NibData" = {
AngleInDegrees = 270.20759;
};
})
);
}
);
width = 730;
},
{
anchors = (
{
name = bottom;
pos = (386,-12);
},
{
name = top;
pos = (400,698);
}
);
background = {
shapes = (
{
closed = 1;
nodes = (
(592,-25,o),
(738,126,o),
(738,326,cs),
(738,355,ls),
(738,548,o),
(586,702,o),
(396,702,cs,{
"Letterink-NibData" = {
AngleInDegrees = "270";
};
}),
(206,702,o),
(55,548,o),
(55,355,cs,{
"Letterink-NibData" = {
AngleInDegrees = "180";
};
}),
(55,326,ls,{
"Letterink-NibData" = {
AngleInDegrees = "180";
};
}),
(55,126,o),
(199,-19,o),
(400,-22,cs,{
"Letterink-NibData" = {
AngleInDegrees = "90.89517371732774";
};
})
);
},
{
closed = 1;
nodes = (
(249,54,o),
(137,170,o),
(137,326,cs),
(137,355,ls),
(137,504,o),
(251,626,o),
(395,626,cs,{
"Letterink-NibData" = {
AngleInDegrees = "90";
};
}),
(541,626,o),
(656,504,o),
(656,355,cs,{
"Letterink-NibData" = {
AngleInDegrees = "180";
};
}),
(656,326,ls,{
"Letterink-NibData" = {
AngleInDegrees = "180";
};
}),
(656,170,o),
(544,54,o),
(397,54,cs,{
"Letterink-NibData" = {
AngleInDegrees = "270";
};
})
);
}
);
};
layerId = m004;
shapes = (
{
closed = 1;
nodes = (
(691,527,l),
(656,648,o),
(535,713,o),
(402,713,cs),
(195,713,o),
(40,559,o),
(40,340,cs),
(40,118,o),
(191,-31,o),
(392,-31,cs),
(594,-31,o),
(731,116,o),
(731,340,c),
(731,387,l),
(414,387,l),
(414,239,l),
(657,239,l),
(583,313,l),
(583,193,o),
(517,117,o),
(402,117,cs),
(285,117,o),
(205,201,o),
(205,338,cs),
(205,467,o),
(283,565,o),
(406,565,cs),
(485,565,o),
(538,522,o),
(549,485,c)
);
}
);
width = 771;
},
{
anchors = (
{
name = bottom;
pos = (387,0);
},
{
name = top;
pos = (401,684);
}
);
associatedMasterId = m004;
layerId = "2166FA3C-D590-4885-A8B0-B32BF30CBC31";
name = "5 Jan 22, 08:26";
shapes = (
{
attr = {
strokeHeight = 74;
strokeWidth = 80;
};
closed = 0;
nodes = (
(618,528,ls,{
"Letterink-NibData" = {
AngleInDegrees = 356.63354;
};
}),
(613,613,o),
(519,675,o),
(391,669,cs,{
"Letterink-NibData" = {
AngleInDegrees = 267.25739;
};
}),
(224,661,o),
(90,523,o),
(90,331,cs,{
"Letterink-NibData" = {
AngleInDegrees = 180;
};
}),
(90,145,o),
(222,15,o),
(403,15,c,{
"Letterink-NibData" = {
AngleInDegrees = 86.42367;
};
}),
(563,25,o),
(648,137,o),
(648,281,c,{
"Letterink-NibData" = {
AngleInDegrees = 358.26429;
};
}),
(647,314,l,{
"Letterink-NibData" = {
AngleInDegrees = 270.21221;
};
}),
(377,315,l,{
"Letterink-NibData" = {
AngleInDegrees = 270.21221;
};
})
);
}
);
width = 730;
}
);
metricLeft = O;
metricRight = O;
userData = {
position = 593;
width = 57;
};
},
{
glyphname = G.swsh;
kernLeft = O;
kernRight = j;
layers = (
{
layerId = "0CAF3BED-C4AC-4024-B3E1-4C69D1EF7EC0";
shapes = (
{
ref = G;
},
{
closed = 1;
nodes = (
(417,-187,l),
(441,-235,o),
(488,-266,o),
(540,-266,cs),
(611,-266,o),
(678,-216,o),
(678,-110,cs),
(678,342,l),
(601,342,l),
(601,-110,ls),
(601,-156,o),
(580,-190,o),
(540,-190,cs),
(520,-190,o),
(497,-177,o),
(485,-153,c)
);
}
);
width = 720;
},
{
layerId = "49C16FD3-6177-408B-A733-AEB3898BB77C";
shapes = (
{
ref = G;
},
{
closed = 1;
nodes = (
(456,-208,l),
(479,-251,o),
(521,-278,o),
(567,-278,cs),
(631,-278,o),
(690,-232,o),
(690,-137,cs),
(690,318,l),
(651,318,l),
(651,-137,ls),
(651,-198,o),
(615,-236,o),
(567,-236,cs),
(537,-236,o),
(509,-219,o),
(494,-188,c)
);
}
);
width = 747;
},
{
anchors = (
{
name = bottom;
pos = (393,0);
},
{
name = top;
pos = (402,684);
}
);
associatedMasterId = "49C16FD3-6177-408B-A733-AEB3898BB77C";
layerId = "99324C05-2E3B-491C-BB33-A281431388C0";
name = "3 Jan 22, 15:43";
shapes = (
{
closed = 1;
nodes = (
(632,-275,o),
(677,-247,o),
(677,-188,cs),
(677,296,l,{
"Letterink-NibData" = {
AngleInDegrees = 270;
};
}),
(635,296,l,{
"Letterink-NibData" = {
AngleInDegrees = 180;
};
}),
(635,231,l,{
"Letterink-NibData" = {
AngleInDegrees = 189.05072;
};
}),
(617,118,o),
(524,19,o),
(389,19,cs,{
"Letterink-NibData" = {
AngleInDegrees = 270;
};
}),
(229,19,o),
(103,157,o),
(103,331,cs),
(103,504,o),
(226,661,o),
(399,661,cs,{
"Letterink-NibData" = {
AngleInDegrees = 90;
};
}),
(467,661,o),
(588,637,o),
(588,563,cs,{
"Letterink-NibData" = {
AngleInDegrees = 180;
};
}),
(588,537,o),
(571,514,o),
(548,514,cs,{
"Letterink-NibData" = {
AngleInDegrees = 270;
};
}),
(542,514,o),
(535,516,o),
(528,519,c,{
"Letterink-NibData" = {
AngleInDegrees = 218.23383;
};
}),
(502,486,l,{
"Letterink-NibData" = {
AngleInDegrees = 122.73523;
};
}),
(516,477,o),
(531,473,o),
(547,473,cs,{
"Letterink-NibData" = {
AngleInDegrees = 90;
};
}),
(595,473,o),
(629,509,o),
(629,562,cs),
(629,670,o),
(485,701,o),
(402,701,cs,{
"Letterink-NibData" = {
AngleInDegrees = 270;
};
}),
(204,701,o),
(61,530,o),
(61,333,cs,{
"Letterink-NibData" = {
AngleInDegrees = 180;
};
}),
(61,137,o),
(202,-21,o),
(385,-21,cs,{
"Letterink-NibData" = {
AngleInDegrees = 90;
};
}),
(490,-21,o),
(597,31,o),
(635,124,c,{
"Letterink-NibData" = {
AngleInDegrees = 180;
};
}),
(635,-188,l,{
"Letterink-NibData" = {
AngleInDegrees = 186.00901;
};
}),
(633,-207,o),
(619,-229,o),
(592,-229,cs,{
"Letterink-NibData" = {
AngleInDegrees = 270;
};
}),
(579,-229,o),
(569,-224,o),
(562,-217,c,{
"Letterink-NibData" = {
AngleInDegrees = 236.65929;
};
}),
(524,-242,l,{
"Letterink-NibData" = {
AngleInDegrees = 142.69605;
};
}),
(540,-263,o),
(563,-275,o),
(591,-275,cs,{
"Letterink-NibData" = {
AngleInDegrees = 90;
};
})
);
}
);
width = 745;
},
{
anchors = (
{
name = bottom;
pos = (392,-35);
},
{
name = top;
pos = (402,683);
}
);
associatedMasterId = "49C16FD3-6177-408B-A733-AEB3898BB77C";
layerId = "993784D9-67C7-4A50-9317-88BF6374F3F5";
name = "5 Jan 22, 08:42";
shapes = (
{
closed = 1;
nodes = (
(632,-188,l,{
"Letterink-NibData" = {
AngleInDegrees = 186.00901;
};
}),
(630,-207,o),
(616,-229,o),
(589,-229,cs,{
"Letterink-NibData" = {
AngleInDegrees = 270;
};
}),
(576,-229,o),
(566,-224,o),
(559,-217,c,{
"Letterink-NibData" = {
AngleInDegrees = 236.65929;
};
}),
(521,-242,l,{
"Letterink-NibData" = {
AngleInDegrees = 142.69605;
};
}),
(537,-263,o),
(560,-275,o),
(588,-275,cs,{
"Letterink-NibData" = {
AngleInDegrees = 90;
};
}),
(629,-275,o),
(674,-247,o),
(674,-188,cs),
(674,296,l,{
"Letterink-NibData" = {
AngleInDegrees = 270;
};
}),
(632,296,l,{
"Letterink-NibData" = {
AngleInDegrees = 180;
};
})
);
},
{
ref = G;
}
);
width = 745;
},
{
anchors = (
{
name = bottom;
pos = (392,-35);
},
{
name = top;
pos = (402,683);
}
);
associatedMasterId = "49C16FD3-6177-408B-A733-AEB3898BB77C";
hints = (
{
name = _corner.caps_swash;
options = 1;
origin = (0,2);
scale = (-1,1);
type = Corner;
}
);
layerId = "A1B0A753-5F1E-49B0-BC7C-F65043380999";
name = "5 Jan 22, 08:46";
shapes = (
{
closed = 1;
nodes = (
(651,330,l,{
"Letterink-NibData" = {
AngleInDegrees = 270;
};
}),
(651,-154,l),
(693,-154,l,{
"Letterink-NibData" = {
AngleInDegrees = 186.00901;
};
}),
(693,330,l,{
"Letterink-NibData" = {
AngleInDegrees = 180;
};
})
);
},
{
ref = G;
},
{
closed = 0;
nodes = (
(344,-192,l),
(363,-228,o),
(402,-253,o),
(446,-253,cs),
(509,-253,o),
(561,-202,o),
(561,-139,cs),
(561,-139,o),
(561,-139,o),
(561,-138,cs),
(561,308,l)
);
}
);
width = 745;
},
{
anchors = (
{
name = bottom;
pos = (393,-16);
},
{
name = top;
pos = (396,689);
}
);
associatedMasterId = "0CAF3BED-C4AC-4024-B3E1-4C69D1EF7EC0";
layerId = "14C1AB9A-2353-4380-971D-F4E2C0A0EA14";
name = "5 Jan 22, 08:50";
shapes = (
{
closed = 1;
nodes = (
(605,-161,l,{
"Letterink-NibData" = {
AngleInDegrees = 180;
};
}),
(605,-174,o),
(595,-183,o),
(582,-183,cs,{
"Letterink-NibData" = {
AngleInDegrees = 270;
};
}),
(569,-183,o),
(563,-178,o),
(556,-165,c,{
"Letterink-NibData" = {
AngleInDegrees = 235.68491;
};
}),
(493,-208,l,{
"Letterink-NibData" = {
AngleInDegrees = 154.88516;
};
}),
(508,-240,o),
(544,-263,o),
(581,-263,cs,{
"Letterink-NibData" = {
AngleInDegrees = 90;
};
}),
(626,-263,o),
(685,-228,o),
(685,-162,cs),
(685,317,l,{
"Letterink-NibData" = {
AngleInDegrees = 270;
};
}),
(605,317,l,{
"Letterink-NibData" = {
AngleInDegrees = 180;
};
})
);
},
{
attr = {
strokeHeight = 74;
strokeWidth = 80;
};
closed = 0;
nodes = (
(515,478,l,{
"Letterink-NibData" = {
AngleInDegrees = 116.56505;
};
}),
(525,473,o),
(534,471,o),
(543,471,cs,{
"Letterink-NibData" = {
AngleInDegrees = 90;
};
}),
(587,471,o),
(608,511,o),
(608,546,cs),
(608,617,o),
(519,674,o),
(391,668,cs,{
"Letterink-NibData" = {
AngleInDegrees = 267.25739;
};
}),
(224,660,o),
(90,522,o),
(90,334,cs,{
"Letterink-NibData" = {
AngleInDegrees = 180;
};
}),
(90,144,o),
(227,4,o),
(408,15,cs,{
"Letterink-NibData" = {
AngleInDegrees = 86.30861;
};
}),
(563,25,o),
(648,137,o),
(648,281,c,{
"Letterink-NibData" = {
AngleInDegrees = 358.26429;
};
}),
(647,314,l,{
"Letterink-NibData" = {
AngleInDegrees = 270.21221;
};
}),
(377,315,l,{
"Letterink-NibData" = {
AngleInDegrees = 270.21221;
};
})
);
}
);
width = 749;
},
{
layerId = m004;
shapes = (
{
ref = G;
},
{
closed = 1;
nodes = (
(328,-153,l),
(361,-219,o),
(424,-262,o),
(498,-262,cs),
(598,-262,o),
(694,-196,o),
(694,-50,cs),
(694,312,l),
(534,312,l),
(534,-50,ls),
(534,-83,o),
(527,-114,o),
(498,-114,cs),
(488,-114,o),
(469,-105,o),
(460,-87,c)
);
}
);
width = 761;
},
{
anchors = (
{
name = bottom;
pos = (393,-16);
},
{
name = top;
pos = (396,689);
}
);
associatedMasterId = m004;
layerId = "1BDCECD6-6FE7-4C37-9D37-AA6D55EDC2F1";
name = "5 Jan 22, 08:50";
shapes = (
{
closed = 1;
nodes = (
(605,-161,l,{
"Letterink-NibData" = {
AngleInDegrees = 180;
};
}),
(605,-174,o),
(595,-183,o),
(582,-183,cs,{
"Letterink-NibData" = {
AngleInDegrees = 270;
};
}),
(569,-183,o),
(563,-178,o),
(556,-165,c,{
"Letterink-NibData" = {
AngleInDegrees = 235.68491;
};
}),
(493,-208,l,{
"Letterink-NibData" = {
AngleInDegrees = 154.88516;
};
}),
(508,-240,o),
(544,-263,o),
(581,-263,cs,{
"Letterink-NibData" = {
AngleInDegrees = 90;
};
}),
(626,-263,o),
(685,-228,o),
(685,-162,cs),
(685,317,l,{
"Letterink-NibData" = {
AngleInDegrees = 270;
};
}),
(605,317,l,{
"Letterink-NibData" = {
AngleInDegrees = 180;
};
})
);
},
{
attr = {
strokeHeight = 74;
strokeWidth = 80;
};
closed = 0;
nodes = (
(515,478,l,{
"Letterink-NibData" = {
AngleInDegrees = 116.56505;
};
}),
(525,473,o),
(534,471,o),
(543,471,cs,{
"Letterink-NibData" = {
AngleInDegrees = 90;
};
}),
(587,471,o),
(608,511,o),
(608,546,cs),
(608,617,o),
(519,674,o),
(391,668,cs,{
"Letterink-NibData" = {
AngleInDegrees = 267.25739;
};
}),
(224,660,o),
(90,522,o),
(90,334,cs,{
"Letterink-NibData" = {
AngleInDegrees = 180;
};
}),
(90,144,o),
(227,4,o),
(408,15,cs,{
"Letterink-NibData" = {
AngleInDegrees = 86.30861;
};
}),
(563,25,o),
(648,137,o),
(648,281,c,{
"Letterink-NibData" = {
AngleInDegrees = 358.26429;
};
}),
(647,314,l,{
"Letterink-NibData" = {
AngleInDegrees = 270.21221;
};
}),
(377,315,l,{
"Letterink-NibData" = {
AngleInDegrees = 270.21221;
};
})
);
}
);
width = 749;
}
);
metricLeft = O;
metricRight = G;
userData = {
position = 593;
width = 57;
};
},
{
glyphname = H;
kernLeft = E;
layers = (
{
anchors = (
{
name = bottom;
pos = (375,0);
},
{
name = center;
pos = (375,500);
},
{
name = top;
pos = (375,675);
},
{
name = topleft;
pos = (16,684);
}
);
hints = (
{
name = _corner.caps_vert;
origin = (0,9);
type = Corner;
}
);
layerId = "0CAF3BED-C4AC-4024-B3E1-4C69D1EF7EC0";
shapes = (
{
closed = 1;
nodes = (
(192,-1,l),
(192,319,l,{
"Letterink-NibData" = {
AngleInDegrees = 90;
};
}),
(557,319,l,{
"Letterink-NibData" = {
AngleInDegrees = 180;
};
}),
(557,-1,l,{
"Letterink-NibData" = {
AngleInDegrees = 90;
};
}),
(639,-1,l),
(639,686,l,{
"Letterink-NibData" = {
AngleInDegrees = 270;
};
}),
(557,686,l,{
"Letterink-NibData" = {
AngleInDegrees = 180;
};
}),
(557,395,l,{
"Letterink-NibData" = {
AngleInDegrees = 270;
};
}),
(192,395,l),
(192,559,l,{
"Letterink-NibData" = {
AngleInDegrees = 269.30131;
};
}),
(110,558,l,{
"Letterink-NibData" = {
AngleInDegrees = 180;
};
}),
(110,-1,l,{
"Letterink-NibData" = {
AngleInDegrees = 90;
};
})
);
}
);
width = 723;
},
{
anchors = (
{
name = bottom;
pos = (378,0);
},
{
name = center;
pos = (378,489);
},
{
name = top;
pos = (378,685);
},
{
name = topleft;
pos = (51,684);
}
);
hints = (
{
name = _corner.caps_vert;
origin = (0,9);
type = Corner;
}
);
layerId = "49C16FD3-6177-408B-A733-AEB3898BB77C";
shapes = (
{
closed = 1;
nodes = (
(168,1,l),
(168,340,l,{
"Letterink-NibData" = {
AngleInDegrees = 90;
};
}),
(590,340,l,{
"Letterink-NibData" = {
AngleInDegrees = 180;
};
}),
(590,1,l,{
"Letterink-NibData" = {
AngleInDegrees = 90;
};
}),
(627,1,l),
(627,685,l,{
"Letterink-NibData" = {
AngleInDegrees = 270;
};
}),
(590,685,l,{
"Letterink-NibData" = {
AngleInDegrees = 180;
};
}),
(590,376,l,{
"Letterink-NibData" = {
AngleInDegrees = 270;
};
}),
(168,376,l),
(168,570,l,{
"Letterink-NibData" = {
AngleInDegrees = 270;
};
}),
(130,570,l,{
"Letterink-NibData" = {
AngleInDegrees = 180;
};
}),
(130,1,l,{
"Letterink-NibData" = {
AngleInDegrees = 90;
};
})
);
}
);
width = 719;
},
{
anchors = (
{
name = bottom;
pos = (408,0);
},
{
name = center;
pos = (408,500);
},
{
name = top;
pos = (407,684);
},
{
name = topleft;
pos = (87,684);
}
);
hints = (
{
name = _corner.caps_vert;
origin = (0,9);
type = Corner;
}
);
layerId = m004;
shapes = (
{
closed = 1;
nodes = (
(294,0,l),
(294,270,l,{
"Letterink-NibData" = {
AngleInDegrees = "90";
};
}),
(531,270,l,{
"Letterink-NibData" = {
AngleInDegrees = "180";
};
}),
(531,0,l,{
"Letterink-NibData" = {
AngleInDegrees = "90";
};
}),
(696,0,l),
(696,684,l,{
"Letterink-NibData" = {
AngleInDegrees = "270";
};
}),
(531,684,l,{
"Letterink-NibData" = {
AngleInDegrees = "180";
};
}),
(531,422,l,{
"Letterink-NibData" = {
AngleInDegrees = "270";
};
}),
(294,422,l),
(294,500,l,{
"Letterink-NibData" = {
AngleInDegrees = "270";
};
}),
(129,500,l,{
"Letterink-NibData" = {
AngleInDegrees = "180";
};
}),
(129,0,l,{
"Letterink-NibData" = {
AngleInDegrees = "90";
};
})
);
}
);
width = 774;
}
);
unicode = 72;
userData = {
position = 554;
width = 61;
};
},
{
glyphname = H.ss01;
layers = (
{
anchors = (
{
name = bottom;
pos = (357,0);
},
{
name = center;
pos = (357,512);
},
{
name = top;
pos = (357,684);
},
{
name = topleft;
pos = (40,684);
}
);
layerId = "0CAF3BED-C4AC-4024-B3E1-4C69D1EF7EC0";
shapes = (
{
closed = 1;
nodes = (
(166,-1,l),
(166,318,l,{
"Letterink-NibData" = {
AngleInDegrees = 90;
};
}),
(544,318,l,{
"Letterink-NibData" = {
AngleInDegrees = 180;
};
}),
(544,-1,l,{
"Letterink-NibData" = {
AngleInDegrees = 90;
};
}),
(626,-1,l),
(626,684,l,{
"Letterink-NibData" = {
AngleInDegrees = 270;
};
}),
(544,684,l,{
"Letterink-NibData" = {
AngleInDegrees = 180;
};
}),
(544,394,l,{
"Letterink-NibData" = {
AngleInDegrees = 270;
};
}),
(166,394,l),
(166,684,l,{
"Letterink-NibData" = {
AngleInDegrees = 270;
};
}),
(84,684,l,{
"Letterink-NibData" = {
AngleInDegrees = 180;
};
}),
(84,-1,l,{
"Letterink-NibData" = {
AngleInDegrees = 90;
};
})
);
}
);
width = 710;
},
{
anchors = (
{
name = bottom;
pos = (342,0);
},
{
name = center;
pos = (344,498);
},
{
name = top;
pos = (343,684);
},
{
name = topleft;
pos = (33,684);
}
);
layerId = "49C16FD3-6177-408B-A733-AEB3898BB77C";
shapes = (
{
closed = 1;
nodes = (
(130,0,l),
(130,340,l,{
"Letterink-NibData" = {
AngleInDegrees = 90;
};
}),
(558,340,l,{
"Letterink-NibData" = {
AngleInDegrees = 180;
};
}),
(558,0,l,{
"Letterink-NibData" = {
AngleInDegrees = 90;
};
}),
(596,0,l),
(596,684,l,{
"Letterink-NibData" = {
AngleInDegrees = 270;
};
}),
(558,684,l,{
"Letterink-NibData" = {
AngleInDegrees = 180;
};
}),
(558,376,l,{
"Letterink-NibData" = {
AngleInDegrees = 270;
};
}),
(130,376,l),
(130,684,l,{
"Letterink-NibData" = {
AngleInDegrees = 270;
};
}),
(92,684,l,{
"Letterink-NibData" = {
AngleInDegrees = 180;
};
}),
(92,0,l,{
"Letterink-NibData" = {
AngleInDegrees = 90;
};
})
);
}
);
width = 688;
},
{
anchors = (
{
name = bottom;
pos = (374,0);
},
{
name = center;
pos = (375,508);
},
{
name = top;
pos = (374,684);
},
{
name = topleft;
pos = (40,684);
}
);
layerId = m004;
shapes = (
{
closed = 1;
nodes = (
(243,0,l),
(243,270,l,{
"Letterink-NibData" = {
AngleInDegrees = "90";
};
}),
(504,270,l,{
"Letterink-NibData" = {
AngleInDegrees = "180";
};
}),
(504,0,l,{
"Letterink-NibData" = {
AngleInDegrees = "90";
};
}),
(669,0,l),
(669,684,l,{
"Letterink-NibData" = {
AngleInDegrees = "270";
};
}),
(504,684,l,{
"Letterink-NibData" = {
AngleInDegrees = "180";
};
}),
(504,422,l,{
"Letterink-NibData" = {
AngleInDegrees = "270";
};
}),
(243,422,l),
(243,684,l,{
"Letterink-NibData" = {
AngleInDegrees = "270";
};
}),
(78,684,l,{
"Letterink-NibData" = {
AngleInDegrees = "180";
};
}),
(78,0,l,{
"Letterink-NibData" = {
AngleInDegrees = "90";
};
})
);
}
);
width = 747;
}
);
metricLeft = "=|H";
metricRight = H;
userData = {
position = 525;
width = 61;
};
},
{
glyphname = H.swsh;
kernLeft = Swash;
layers = (
{
anchors = (
{
name = bottom;
pos = (410,0);
},
{
name = center;
pos = (410,478);
},
{
name = top;
pos = (410,675);
},
{
name = topleft;
pos = (48,684);
}
);
hints = (
{
name = _corner.caps_swash_vert;
origin = (0,9);
type = Corner;
}
);
layerId = "0CAF3BED-C4AC-4024-B3E1-4C69D1EF7EC0";
shapes = (
{
closed = 1;
nodes = (
(234,-1,l),
(234,317,l,{
"Letterink-NibData" = {
AngleInDegrees = 90;
};
}),
(579,317,l,{
"Letterink-NibData" = {
AngleInDegrees = 180;
};
}),
(579,-1,l,{
"Letterink-NibData" = {
AngleInDegrees = 90;
};
}),
(661,-1,l),
(661,686,l,{
"Letterink-NibData" = {
AngleInDegrees = 270;
};
}),
(579,686,l,{
"Letterink-NibData" = {
AngleInDegrees = 180;
};
}),
(579,395,l,{
"Letterink-NibData" = {
AngleInDegrees = 270;
};
}),
(234,395,l),
(234,559,l,{
"Letterink-NibData" = {
AngleInDegrees = 270;
};
}),
(152,559,l,{
"Letterink-NibData" = {
AngleInDegrees = 180;
};
}),
(152,-1,l,{
"Letterink-NibData" = {
AngleInDegrees = 90;
};
})
);
}
);
width = 745;
},
{
anchors = (
{
name = bottom;
pos = (401,0);
},
{
name = center;
pos = (401,450);
},
{
name = top;
pos = (401,684);
},
{
name = topleft;
pos = (68,684);
}
);
hints = (
{
name = _corner.caps_swash_vert;
options = 1;
origin = (0,9);
type = Corner;
}
);
layerId = "49C16FD3-6177-408B-A733-AEB3898BB77C";
shapes = (
{
closed = 1;
nodes = (
(196,1,l),
(196,340,l,{
"Letterink-NibData" = {
AngleInDegrees = 90;
};
}),
(607,340,l,{
"Letterink-NibData" = {
AngleInDegrees = 180;
};
}),
(607,1,l,{
"Letterink-NibData" = {
AngleInDegrees = 90;
};
}),
(645,1,l),
(645,685,l,{
"Letterink-NibData" = {
AngleInDegrees = 270;
};
}),
(607,685,l,{
"Letterink-NibData" = {
AngleInDegrees = 180;
};
}),
(607,376,l,{
"Letterink-NibData" = {
AngleInDegrees = 270;
};
}),
(196,376,l),
(196,570,l,{
"Letterink-NibData" = {
AngleInDegrees = 270;
};
}),
(158,570,l,{
"Letterink-NibData" = {
AngleInDegrees = 180;
};
}),
(158,1,l,{
"Letterink-NibData" = {
AngleInDegrees = 90;
};
})
);
}
);
width = 737;
},
{
anchors = (
{
name = bottom;
pos = (464,0);
},
{
name = center;
pos = (464,512);
},
{
name = top;
pos = (464,684);
},
{
name = topleft;
pos = (139,684);
}
);
hints = (
{
name = _corner.caps_swash_vert;
origin = (0,9);
type = Corner;
}
);
layerId = m004;
shapes = (
{
closed = 1;
nodes = (
(349,-5,l),
(349,270,l,{
"Letterink-NibData" = {
AngleInDegrees = "90";
};
}),
(586,270,l,{
"Letterink-NibData" = {
AngleInDegrees = "180";
};
}),
(586,-5,l,{
"Letterink-NibData" = {
AngleInDegrees = "90";
};
}),
(751,-5,l),
(751,684,l,{
"Letterink-NibData" = {
AngleInDegrees = "270";
};
}),
(586,684,l,{
"Letterink-NibData" = {
AngleInDegrees = "180";
};
}),
(586,422,l,{
"Letterink-NibData" = {
AngleInDegrees = "270";
};
}),
(349,422,l),
(349,501,l,{
"Letterink-NibData" = {
AngleInDegrees = "270";
};
}),
(184,501,l,{
"Letterink-NibData" = {
AngleInDegrees = "180";
};
}),
(184,-5,l,{
"Letterink-NibData" = {
AngleInDegrees = "90";
};
})
);
}
);
width = 829;
}
);
metricRight = H;
userData = {
position = 554;
width = 61;
};
},
{
glyphname = I;
layers = (
{
anchors = (
{
name = bottom;
pos = (125,0);
},
{
name = center;
pos = (124,340);
},
{
name = ogonek;
pos = (166,-1);
},
{
name = top;
pos = (123,684);
},
{
name = topleft;
pos = (18,684);
}
);
layerId = "0CAF3BED-C4AC-4024-B3E1-4C69D1EF7EC0";
shapes = (
{
closed = 1;
nodes = (
(166,-1,l),
(166,684,l,{
"Letterink-NibData" = {
AngleInDegrees = 270;
};
}),
(84,684,l,{
"Letterink-NibData" = {
AngleInDegrees = 180;
};
}),
(84,-1,l,{
"Letterink-NibData" = {
AngleInDegrees = 90;
};
})
);
}
);
width = 250;
},
{
anchors = (
{
name = bottom;
pos = (112,0);
},
{
name = center;
pos = (112,343);
},
{
name = ogonek;
pos = (133,1);
},
{
name = top;
pos = (112,686);
},
{
name = topleft;
pos = (26,684);
}
);
layerId = "49C16FD3-6177-408B-A733-AEB3898BB77C";
shapes = (
{
closed = 1;
nodes = (
(133,1,l),
(133,686,l,{
"Letterink-NibData" = {
AngleInDegrees = 270;
};
}),
(92,686,l,{
"Letterink-NibData" = {
AngleInDegrees = 180;
};
}),
(92,1,l,{
"Letterink-NibData" = {
AngleInDegrees = 90;
};
})
);
}
);
width = 225;
},
{
anchors = (
{
name = bottom;
pos = (161,-1);
},
{
name = center;
pos = (161,339);
},
{
name = ogonek;
pos = (243,0);
},
{
name = top;
pos = (160,684);
},
{
name = topleft;
pos = (16,684);
}
);
layerId = m004;
shapes = (
{
closed = 1;
nodes = (
(243,0,l),
(243,684,l,{
"Letterink-NibData" = {
AngleInDegrees = 270;
};
}),
(78,684,l,{
"Letterink-NibData" = {
AngleInDegrees = 180;
};
}),
(78,0,l,{
"Letterink-NibData" = {
AngleInDegrees = 90;
};
})
);
}
);
width = 321;
}
);
metricLeft = "=|H";
metricRight = H;
unicode = 73;
userData = {
position = 54;
width = 61;
};
},
{
glyphname = I.swsh;
kernLeft = Swash;
layers = (
{
anchors = (
{
name = bottom;
pos = (204,0);
},
{
name = center;
pos = (203,340);
},
{
name = ogonek;
pos = (245,-1);
},
{
name = top;
pos = (204,684);
},
{
name = topleft;
pos = (97,684);
}
);
hints = (
{
name = _corner.caps_swash;
origin = (1,3);
type = Corner;
}
);
layerId = "0CAF3BED-C4AC-4024-B3E1-4C69D1EF7EC0";
shapes = (
{
closed = 1;
nodes = (
(245,0,l),
(245,684,l,{
"Letterink-NibData" = {
AngleInDegrees = 270;
};
}),
(163,684,l,{
"Letterink-NibData" = {
AngleInDegrees = 180;
};
}),
(163,0,l,{
"Letterink-NibData" = {
AngleInDegrees = 90;
};
})
);
},
{
closed = 1;
nodes = (
(138,608,l),
(203,608,l),
(203,684,l),
(138,684,l)
);
}
);
width = 329;
},
{
anchors = (
{
name = bottom;
pos = (190,0);
},
{
name = center;
pos = (189,342);
},
{
name = ogonek;
pos = (212,1);
},
{
name = top;
pos = (189,684);
},
{
name = topleft;
pos = (101,684);
}
);
hints = (
{
name = _corner.caps_swash;
origin = (1,3);
type = Corner;
}
);
layerId = "49C16FD3-6177-408B-A733-AEB3898BB77C";
shapes = (
{
closed = 1;
nodes = (
(207,1,l),
(207,684,l,{
"Letterink-NibData" = {
AngleInDegrees = 270;
};
}),
(170,684,l,{
"Letterink-NibData" = {
AngleInDegrees = 180;
};
}),
(170,1,l,{
"Letterink-NibData" = {
AngleInDegrees = 90;
};
})
);
},
{
closed = 1;
nodes = (
(122,648,l),
(176,648,l),
(176,684,l),
(122,684,l)
);
}
);
width = 299;
},
{
anchors = (
{
name = bottom;
pos = (179,0);
},
{
name = center;
pos = (178,386);
},
{
name = ogonek;
pos = (202,1);
},
{
name = top;
pos = (176,684);
},
{
name = topleft;
pos = (88,684);
}
);
associatedMasterId = "49C16FD3-6177-408B-A733-AEB3898BB77C";
hints = (
{
name = _corner.caps_swash_vert;
options = 1;
origin = (0,1);
type = Corner;
}
);
layerId = "AE169FFE-AC8B-4E8A-9035-7F809B0493BD";
name = "5 Jan 22, 09:48";
shapes = (
{
closed = 1;
nodes = (
(198,1,l),
(198,576,l,{
"Letterink-NibData" = {
AngleInDegrees = 270;
};
}),
(156,576,l,{
"Letterink-NibData" = {
AngleInDegrees = 180;
};
}),
(156,1,l,{
"Letterink-NibData" = {
AngleInDegrees = 90;
};
})
);
}
);
width = 301;
},
{
anchors = (
{
name = bottom;
pos = (288,0);
},
{
name = center;
pos = (292,341);
},
{
name = ogonek;
pos = (371,-1);
},
{
name = top;
pos = (291,684);
},
{
name = topleft;
pos = (140,684);
}
);
hints = (
{
name = _corner.caps_swash;
origin = (1,3);
type = Corner;
}
);
layerId = m004;
shapes = (
{
closed = 1;
nodes = (
(371,-1,l),
(371,684,l,{
"Letterink-NibData" = {
AngleInDegrees = 270;
};
}),
(206,684,l,{
"Letterink-NibData" = {
AngleInDegrees = 180;
};
}),
(206,-1,l,{
"Letterink-NibData" = {
AngleInDegrees = 90;
};
})
);
},
{
closed = 1;
nodes = (
(185,536,l),
(333,536,l),
(333,684,l),
(185,684,l,{
"Letterink-NibData" = {
AngleInDegrees = 180;
};
})
);
}
);
width = 449;
}
);
metricLeft = H.swsh;
metricRight = I;
userData = {
position = 54;
width = 61;
};
},
{
glyphname = J;
kernLeft = J;
kernRight = J;
layers = (
{
anchors = (
{
name = bottom;
pos = (246,0);
},
{
name = top;
pos = (246,684);
}
);
layerId = "0CAF3BED-C4AC-4024-B3E1-4C69D1EF7EC0";
shapes = (
{
closed = 1;
nodes = (
(357,-7,o),
(435,70,o),
(435,193,cs),
(435,689,l,{
"Letterink-NibData" = {
AngleInDegrees = 270;
};
}),
(366,689,l,{
"Letterink-NibData" = {
AngleInDegrees = 211.6075;
};
}),
(358,676,o),
(328,663,o),
(308,663,cs,{
"Letterink-NibData" = {
AngleInDegrees = 270;
};
}),
(266,663,o),
(233,698,o),
(183,698,cs,{
"Letterink-NibData" = {
AngleInDegrees = 270;
};
}),
(147,698,o),
(115,692,o),
(58,664,c,{
"Letterink-NibData" = {
AngleInDegrees = 153.09391;
};
}),
(92,597,l,{
"Letterink-NibData" = {
AngleInDegrees = 67.52057;
};
}),
(121,609,o),
(150,620,o),
(175,620,cs,{
"Letterink-NibData" = {
AngleInDegrees = 90;
};
}),
(223,620,o),
(260,587,o),
(303,587,cs,{
"Letterink-NibData" = {
AngleInDegrees = 90;
};
}),
(325,587,o),
(340,589,o),
(353,594,c,{
"Letterink-NibData" = {
AngleInDegrees = 180;
};
}),
(353,196,ls,{
"Letterink-NibData" = {
AngleInDegrees = 180;
};
}),
(353,118,o),
(308,69,o),
(236,69,cs,{
"Letterink-NibData" = {
AngleInDegrees = 270;
};
}),
(160,69,o),
(115,115,o),
(119,188,c,{
"Letterink-NibData" = {
AngleInDegrees = 274.39871;
};
}),
(41,194,l,{
"Letterink-NibData" = {
AngleInDegrees = 181.88819;
};
}),
(37,71,o),
(111,-7,o),
(233,-7,cs,{
"Letterink-NibData" = {
AngleInDegrees = 90;
};
})
);
}
);
width = 515;
},
{
anchors = (
{
name = bottom;
pos = (246,0);
},
{
name = top;
pos = (262,684);
}
);
layerId = "49C16FD3-6177-408B-A733-AEB3898BB77C";
shapes = (
{
closed = 1;
nodes = (
(348,-6,o),
(422,68,o),
(422,184,cs),
(422,688,l,{
"Letterink-NibData" = {
AngleInDegrees = 270;
};
}),
(377,688,l,{
"Letterink-NibData" = {
AngleInDegrees = 209.35776;
};
}),
(367,671,o),
(340,660,o),
(318,660,cs,{
"Letterink-NibData" = {
AngleInDegrees = 270;
};
}),
(277,660,o),
(227,697,o),
(170,697,cs,{
"Letterink-NibData" = {
AngleInDegrees = 270;
};
}),
(145,697,o),
(119,690,o),
(78,673,c,{
"Letterink-NibData" = {
AngleInDegrees = 153.43495;
};
}),
(94,641,l,{
"Letterink-NibData" = {
AngleInDegrees = 70.82099;
};
}),
(114,651,o),
(140,662,o),
(170,662,cs,{
"Letterink-NibData" = {
AngleInDegrees = 90;
};
}),
(234,662,o),
(252,625,o),
(316,625,cs,{
"Letterink-NibData" = {
AngleInDegrees = 90;
};
}),
(343,625,o),
(367,632,o),
(384,650,c,{
"Letterink-NibData" = {
AngleInDegrees = 180;
};
}),
(384,187,ls,{
"Letterink-NibData" = {
AngleInDegrees = 180;
};
}),
(384,90,o),
(326,30,o),
(235,30,cs,{
"Letterink-NibData" = {
AngleInDegrees = 270;
};
}),
(143,30,o),
(91,83,o),
(89,156,c,{
"Letterink-NibData" = {
AngleInDegrees = 275.5722;
};
}),
(52,156,l,{
"Letterink-NibData" = {
AngleInDegrees = 176.71075;
};
}),
(59,58,o),
(129,-6,o),
(232,-6,cs,{
"Letterink-NibData" = {
AngleInDegrees = 90;
};
})
);
}
);
width = 509;
},
{
anchors = (
{
name = bottom;
pos = (288,0);
},
{
name = top;
pos = (263,684);
}
);
layerId = m004;
shapes = (
{
closed = 1;
nodes = (
(402,-22,o),
(488,62,o),
(488,197,cs),
(488,697,l,{
"Letterink-NibData" = {
AngleInDegrees = 270;
};
}),
(381,697,l,{
"Letterink-NibData" = {
AngleInDegrees = 211.6075;
};
}),
(365,682,o),
(340,674,o),
(317,674,cs,{
"Letterink-NibData" = {
AngleInDegrees = 270;
};
}),
(278,674,o),
(240,696,o),
(172,696,cs,{
"Letterink-NibData" = {
AngleInDegrees = 270;
};
}),
(117,696,o),
(84,686,o),
(37,653,c,{
"Letterink-NibData" = {
AngleInDegrees = 153.09391;
};
}),
(105,521,l,{
"Letterink-NibData" = {
AngleInDegrees = 67.52057;
};
}),
(131,534,o),
(160,541,o),
(187,541,cs,{
"Letterink-NibData" = {
AngleInDegrees = 90;
};
}),
(228,541,o),
(253,524,o),
(282,524,cs,{
"Letterink-NibData" = {
AngleInDegrees = 90;
};
}),
(304,524,o),
(319,529,o),
(323,533,c,{
"Letterink-NibData" = {
AngleInDegrees = 180;
};
}),
(323,200,ls,{
"Letterink-NibData" = {
AngleInDegrees = 180;
};
}),
(323,157,o),
(301,130,o),
(259,130,cs,{
"Letterink-NibData" = {
AngleInDegrees = 270;
};
}),
(208,130,o),
(182,169,o),
(191,237,c,{
"Letterink-NibData" = {
AngleInDegrees = 274.39871;
};
}),
(34,247,l,{
"Letterink-NibData" = {
AngleInDegrees = 181.88819;
};
}),
(16,82,o),
(103,-22,o),
(260,-22,cs,{
"Letterink-NibData" = {
AngleInDegrees = 90;
};
})
);
}
);
width = 562;
}
);
metricRight = "=H*.95";
unicode = 74;
userData = {
position = 333;
width = 53;
};
},
{
glyphname = J.ss01;
kernLeft = Jtext;
kernRight = J;
layers = (
{
anchors = (
{
name = bottom;
pos = (249,-9);
},
{
name = top;
pos = (428,684);
}
);
layerId = "0CAF3BED-C4AC-4024-B3E1-4C69D1EF7EC0";
shapes = (
{
closed = 1;
nodes = (
(385,-9,o),
(471,78,o),
(471,216,cs),
(471,684,l,{
"Letterink-NibData" = {
AngleInDegrees = 270;
};
}),
(389,684,l,{
"Letterink-NibData" = {
AngleInDegrees = 180;
};
}),
(389,219,ls,{
"Letterink-NibData" = {
AngleInDegrees = 180;
};
}),
(389,126,o),
(324,67,o),
(252,67,cs,{
"Letterink-NibData" = {
AngleInDegrees = 270;
};
}),
(156,67,o),
(111,121,o),
(115,206,c,{
"Letterink-NibData" = {
AngleInDegrees = 274.39871;
};
}),
(37,212,l,{
"Letterink-NibData" = {
AngleInDegrees = 181.88819;
};
}),
(33,77,o),
(107,-9,o),
(249,-9,cs,{
"Letterink-NibData" = {
AngleInDegrees = 90;
};
})
);
}
);
width = 551;
},
{
anchors = (
{
name = bottom;
pos = (248,-6);
},
{
name = top;
pos = (441,684);
}
);
layerId = "49C16FD3-6177-408B-A733-AEB3898BB77C";
shapes = (
{
closed = 1;
nodes = (
(377,-6,o),
(459,78,o),
(459,210,cs),
(459,685,l,{
"Letterink-NibData" = {
AngleInDegrees = 268.5679;
};
}),
(419,684,l,{
"Letterink-NibData" = {
AngleInDegrees = 184.66686;
};
}),
(423,213,ls,{
"Letterink-NibData" = {
AngleInDegrees = 180;
};
}),
(424,99,o),
(352,30,o),
(247,30,cs,{
"Letterink-NibData" = {
AngleInDegrees = 270;
};
}),
(153,30,o),
(90,86,o),
(87,180,c,{
"Letterink-NibData" = {
AngleInDegrees = 275.19443;
};
}),
(47,183,l,{
"Letterink-NibData" = {
AngleInDegrees = 178.68309;
};
}),
(49,68,o),
(126,-6,o),
(248,-6,cs,{
"Letterink-NibData" = {
AngleInDegrees = 90;
};
})
);
}
);
width = 546;
},
{
anchors = (
{
name = bottom;
pos = (281,-7);
},
{
name = top;
pos = (419,684);
}
);
layerId = m004;
shapes = (
{
closed = 1;
nodes = (
(415,-22,o),
(505,66,o),
(505,207,cs),
(505,686,l,{
"Letterink-NibData" = {
AngleInDegrees = "270";
};
}),
(340,686,l,{
"Letterink-NibData" = {
AngleInDegrees = "180";
};
}),
(340,210,ls,{
"Letterink-NibData" = {
AngleInDegrees = "180";
};
}),
(340,161,o),
(314,130,o),
(274,130,cs,{
"Letterink-NibData" = {
AngleInDegrees = "270";
};
}),
(207,130,o),
(177,169,o),
(193,237,c,{
"Letterink-NibData" = {
AngleInDegrees = "274.39871";
};
}),
(36,247,l,{
"Letterink-NibData" = {
AngleInDegrees = "181.88819";
};
}),
(12,82,o),
(103,-22,o),
(271,-22,cs,{
"Letterink-NibData" = {
AngleInDegrees = "90";
};
})
);
}
);
width = 579;
}
);
metricLeft = "=J*.9";
metricRight = J;
userData = {
position = 333;
width = 53;
};
},
{
glyphname = J.swsh;
kernLeft = J;
kernRight = J;
layers = (
{
anchors = (
{
name = bottom;
pos = (286,0);
},
{
name = top;
pos = (286,684);
}
);
layerId = "0CAF3BED-C4AC-4024-B3E1-4C69D1EF7EC0";
shapes = (
{
closed = 1;
nodes = (
(389,-12,o),
(475,73,o),
(475,208,cs),
(475,685,l,{
"Letterink-NibData" = {
AngleInDegrees = 270;
};
}),
(410,685,l,{
"Letterink-NibData" = {
AngleInDegrees = 211.6075;
};
}),
(393,626,l),
(393,211,ls,{
"Letterink-NibData" = {
AngleInDegrees = 180;
};
}),
(393,121,o),
(342,64,o),
(254,64,cs,{
"Letterink-NibData" = {
AngleInDegrees = 270;
};
}),
(168,64,o),
(114,118,o),
(119,203,c,{
"Letterink-NibData" = {
AngleInDegrees = 274.39871;
};
}),
(41,209,l,{
"Letterink-NibData" = {
AngleInDegrees = 181.88819;
};
}),
(37,74,o),
(118,-12,o),
(253,-12,cs,{
"Letterink-NibData" = {
AngleInDegrees = 90;
};
})
);
},
{
closed = 1;
nodes = (
(321,630,o),
(304,703,o),
(190,703,cs),
(70,703,o),
(9,574,o),
(69,494,cs),
(112,438,o),
(203,438,o),
(241,494,c),
(180,540,l),
(167,524,o),
(147,524,o),
(135,540,cs),
(108,575,o),
(130,627,o),
(190,627,cs),
(248,627,o),
(323,536,o),
(459,630,c),
(411,685,l)
);
}
);
width = 555;
},
{
anchors = (
{
name = bottom;
pos = (286,0);
},
{
name = top;
pos = (285,684);
}
);
background = {
shapes = (
{
closed = 1;
nodes = (
(410,-6,o),
(464,86,o),
(464,185,cs),
(464,688,l,{
"Letterink-NibData" = {
AngleInDegrees = "270";
};
}),
(417,688,l,{
"Letterink-NibData" = {
AngleInDegrees = "209.35776";
};
}),
(408,672,o),
(380,660,o),
(358,660,cs,{
"Letterink-NibData" = {
AngleInDegrees = "270";
};
}),
(340,660,o),
(320,666,o),
(300,674,cs,{
"Letterink-NibData" = {
AngleInDegrees = "291.57131";
};
}),
(257,691,o),
(227,697,o),
(212,697,cs,{
"Letterink-NibData" = {
AngleInDegrees = "270";
};
}),
(186,697,o),
(168,691,o),
(117,672,c,{
"Letterink-NibData" = {
AngleInDegrees = "153.43495";
};
}),
(135,636,l,{
"Letterink-NibData" = {
AngleInDegrees = "70.82098999999999";
};
}),
(158,644,o),
(183,658,o),
(212,658,cs,{
"Letterink-NibData" = {
AngleInDegrees = "90";
};
}),
(233,658,o),
(251,651,o),
(269,643,cs,{
"Letterink-NibData" = {
AngleInDegrees = "113.42869";
};
}),
(299,630,o),
(323,621,o),
(356,621,cs,{
"Letterink-NibData" = {
AngleInDegrees = "90";
};
}),
(377,621,o),
(403,625,o),
(422,644,c,{
"Letterink-NibData" = {
AngleInDegrees = "180";
};
}),
(422,188,ls,{
"Letterink-NibData" = {
AngleInDegrees = "180";
};
}),
(422,121,o),
(392,34,o),
(276,34,cs,{
"Letterink-NibData" = {
AngleInDegrees = "270";
};
}),
(187,34,o),
(135,86,o),
(133,159,c,{
"Letterink-NibData" = {
AngleInDegrees = "275.5722";
};
}),
(92,163,l,{
"Letterink-NibData" = {
AngleInDegrees = "176.71075";
};
}),
(97,76,o),
(143,-6,o),
(273,-6,cs,{
"Letterink-NibData" = {
AngleInDegrees = "90";
};
})
);
},
{
closed = 1;
nodes = (
(410,-6,o),
(464,86,o),
(464,185,cs),
(464,688,l,{
"Letterink-NibData" = {
AngleInDegrees = "270";
};
}),
(417,688,l,{
"Letterink-NibData" = {
AngleInDegrees = "209.35776";
};
}),
(408,672,o),
(380,660,o),
(358,660,cs,{
"Letterink-NibData" = {
AngleInDegrees = "270";
};
}),
(340,660,o),
(320,666,o),
(300,674,cs,{
"Letterink-NibData" = {
AngleInDegrees = "291.57131";
};
}),
(257,691,o),
(227,697,o),
(212,697,cs,{
"Letterink-NibData" = {
AngleInDegrees = "270";
};
}),
(186,697,o),
(168,691,o),
(117,672,c,{
"Letterink-NibData" = {
AngleInDegrees = "153.43495";
};
}),
(135,636,l,{
"Letterink-NibData" = {
AngleInDegrees = "70.82098999999999";
};
}),
(158,644,o),
(183,658,o),
(212,658,cs,{
"Letterink-NibData" = {
AngleInDegrees = "90";
};
}),
(233,658,o),
(251,651,o),
(269,643,cs,{
"Letterink-NibData" = {
AngleInDegrees = "113.42869";
};
}),
(299,630,o),
(323,621,o),
(356,621,cs,{
"Letterink-NibData" = {
AngleInDegrees = "90";
};
}),
(377,621,o),
(403,625,o),
(422,644,c,{
"Letterink-NibData" = {
AngleInDegrees = "180";
};
}),
(422,188,ls,{
"Letterink-NibData" = {
AngleInDegrees = "180";
};
}),
(422,121,o),
(392,34,o),
(276,34,cs,{
"Letterink-NibData" = {
AngleInDegrees = "270";
};
}),
(187,34,o),
(135,86,o),
(133,159,c,{
"Letterink-NibData" = {
AngleInDegrees = "275.5722";
};
}),
(92,163,l,{
"Letterink-NibData" = {
AngleInDegrees = "176.71075";
};
}),
(97,76,o),
(143,-6,o),
(273,-6,cs,{
"Letterink-NibData" = {
AngleInDegrees = "90";
};
})
);
}
);
};
layerId = "49C16FD3-6177-408B-A733-AEB3898BB77C";
shapes = (
{
closed = 1;
nodes = (
(380,-6,o),
(462,77,o),
(462,204,cs),
(462,686,l,{
"Letterink-NibData" = {
AngleInDegrees = 270;
};
}),
(431,686,l,{
"Letterink-NibData" = {
AngleInDegrees = 180;
};
}),
(424,662,l),
(424,207,ls,{
"Letterink-NibData" = {
AngleInDegrees = 180;
};
}),
(424,98,o),
(358,30,o),
(255,30,cs,{
"Letterink-NibData" = {
AngleInDegrees = 270;
};
}),
(159,30,o),
(92,83,o),
(89,176,c,{
"Letterink-NibData" = {
AngleInDegrees = 275.5722;
};
}),
(52,180,l,{
"Letterink-NibData" = {
AngleInDegrees = 176.71075;
};
}),
(60,66,o),
(137,-6,o),
(252,-6,cs,{
"Letterink-NibData" = {
AngleInDegrees = 90;
};
})
);
},
{
closed = 1;
nodes = (
(340,626,o),
(294,702,o),
(197,702,cs),
(88,702,o),
(38,585,o),
(89,518,cs),
(130,465,o),
(203,475,o),
(233,518,c),
(204,540,l),
(181,508,o),
(143,508,o),
(119,540,cs),
(84,588,o),
(117,666,o),
(197,666,cs),
(269,666,o),
(338,580,o),
(448,659,c),
(431,686,l,{
"Letterink-NibData" = {
AngleInDegrees = 180;
};
})
);
}
);
width = 549;
},
{
anchors = (
{
name = bottom;
pos = (328,0);
},
{
name = top;
pos = (252,692);
}
);
layerId = m004;
shapes = (
{
closed = 1;
nodes = (
(435,-31,o),
(528,62,o),
(528,208,cs),
(528,677,l,{
"Letterink-NibData" = {
AngleInDegrees = 270;
};
}),
(389,677,l,{
"Letterink-NibData" = {
AngleInDegrees = 211.6075;
};
}),
(360,536,l),
(363,211,ls,{
"Letterink-NibData" = {
AngleInDegrees = 180;
};
}),
(363,158,o),
(338,121,o),
(285,121,cs,{
"Letterink-NibData" = {
AngleInDegrees = 270;
};
}),
(212,121,o),
(183,173,o),
(206,248,c,{
"Letterink-NibData" = {
AngleInDegrees = 274.39871;
};
}),
(49,258,l,{
"Letterink-NibData" = {
AngleInDegrees = 181.88819;
};
}),
(18,80,o),
(108,-31,o),
(284,-31,cs,{
"Letterink-NibData" = {
AngleInDegrees = 90;
};
})
);
},
{
closed = 1;
nodes = (
(357,654,o),
(311,706,o),
(223,706,cs),
(64,706,o),
(-22,550,o),
(70,429,cs),
(129,352,o),
(264,357,o),
(330,437,c),
(218,519,l),
(210,511,o),
(198,513,o),
(188,525,cs),
(175,541,o),
(196,558,o),
(228,558,cs),
(289,558,o),
(351,466,o),
(485,569,c),
(389,677,l,{
"Letterink-NibData" = {
AngleInDegrees = 211.6075;
};
})
);
}
);
width = 602;
}
);
metricLeft = J;
metricRight = J;
userData = {
position = 333;
width = 53;
};
},
